SplineFontDB: 3.2
FontName: NimbusSans-BoldItalic
FullName: Nimbus Sans Bold Italic
FamilyName: Nimbus Sans
Weight: Bold
Copyright: (URW)++,Copyright 2014 by (URW)++ Design & Development
Version: 1.10
ItalicAngle: -12
UnderlinePosition: -296
UnderlineWidth: 141
Ascent: 1638
Descent: 410
InvalidEm: 0
sfntRevision: 0x00011999
LayerCount: 2
Layer: 0 1 "Hinten" 1
Layer: 1 1 "Vorne" 0
XUID: [1021 367 390255522 3854121]
StyleMap: 0x0021
FSType: 4
OS2Version: 4
OS2_WeightWidthSlopeOnly: 0
OS2_UseTypoMetrics: 1
CreationTime: 1590483796
ModificationTime: 1737390203
PfmFamily: 81
TTFWeight: 700
TTFWidth: 5
LineGap: 410
VLineGap: 0
Panose: 0 0 0 0 0 0 0 0 0 0
OS2TypoAscent: 1843
OS2TypoAOffset: 0
OS2TypoDescent: -512
OS2TypoDOffset: 0
OS2TypoLinegap: 410
OS2WinAscent: 1951
OS2WinAOffset: 0
OS2WinDescent: 451
OS2WinDOffset: 0
HheadAscent: 1843
HheadAOffset: 0
HheadDescent: -512
HheadDOffset: 0
OS2SubXSize: 1331
OS2SubYSize: 1331
OS2SubXOff: 0
OS2SubYOff: 307
OS2SupXSize: 1331
OS2SupYSize: 1331
OS2SupXOff: 0
OS2SupYOff: 983
OS2StrikeYSize: 276
OS2StrikeYPos: 700
OS2CapHeight: 1493
OS2XHeight: 1106
OS2FamilyClass: 2053
OS2Vendor: 'URW '
OS2CodePages: 0000009f.00000000
OS2UnicodeRanges: a00002af.100178ff.00000000.00000000
Lookup: 6 0 0 "'ordn' Ordinals lookup 0" { "'ordn' Ordinals lookup 0 contextual 0"  "'ordn' Ordinals lookup 0 contextual 1"  } ['ordn' ('DFLT' <'dflt' > 'grek' <'dflt' > 'latn' <'dflt' > ) ]
Lookup: 1 0 0 "Single Substitution lookup 1" { "Single Substitution lookup 1 subtable"  } []
Lookup: 258 8 0 "'kern' Horizontal Kerning lookup 0" { "'kern' Horizontal Kerning lookup 0 subtable"  } ['kern' ('DFLT' <'dflt' > 'grek' <'dflt' > 'latn' <'dflt' > ) ]
DEI: 91125
ChainSub2: coverage "'ordn' Ordinals lookup 0 contextual 1" 0 0 0 1
 1 1 0
  Coverage: 3 O o
  BCoverage: 49 zero one two three four five six seven eight nine
 1
  SeqLookup: 0 "Single Substitution lookup 1"
EndFPST
ChainSub2: coverage "'ordn' Ordinals lookup 0 contextual 0" 0 0 0 1
 1 1 0
  Coverage: 3 A a

StartChar: .notdef
Encoding: 65536 -1 0
Width: 569
Flags: W
LayerCount: 2
Fore
SplineSet
57 0 m 1,0,-1
 57 1493 l 1,1,-1
 512 1493 l 1,2,-1
 512 0 l 1,3,-1
 57 0 l 1,0,-1
455 57 m 1,4,-1
 455 1436 l 1,5,-1
 114 1436 l 1,6,-1
 114 57 l 1,7,-1
 455 57 l 1,4,-1
EndSplineSet
EndChar

StartChar: exclam
Encoding: 33 33 2
Width: 682
GlyphClass: 2
Flags: W
LayerCount: 2
Fore
SplineSet
854 1487 m 1,0,-1
 762 1057 l 1,1,-1
 542 424 l 1,2,-1
 404 424 l 1,3,-1
 455 1057 l 1,4,-1
 546 1487 l 1,5,-1
 854 1487 l 1,0,-1
600 299 m 1,6,-1
 536 0 l 1,7,-1
 229 0 l 1,8,-1
 293 299 l 1,9,-1
 600 299 l 1,6,-1
EndSplineSet
EndChar

StartChar: quotedbl
Encoding: 34 34 3
Width: 971
GlyphClass: 2
Flags: W
LayerCount: 2
Fore
SplineSet
702 1493 m 1,0,-1
 645 1228 l 1,1,-1
 502 963 l 1,2,-1
 388 963 l 1,3,-1
 362 1228 l 1,4,-1
 419 1493 l 1,5,-1
 702 1493 l 1,0,-1
1185 1493 m 1,6,-1
 1129 1228 l 1,7,-1
 986 963 l 1,8,-1
 872 963 l 1,9,-1
 845 1228 l 1,10,-1
 902 1493 l 1,11,-1
 1185 1493 l 1,6,-1
EndSplineSet
EndChar

StartChar: numbersign
Encoding: 35 35 4
Width: 1139
GlyphClass: 2
Flags: W
LayerCount: 2
Fore
SplineSet
283 -66 m 1,0,-1
 68 -66 l 1,1,-1
 239 352 l 1,2,-1
 81 352 l 1,3,-1
 124 557 l 1,4,-1
 322 557 l 1,5,-1
 450 868 l 1,6,-1
 247 868 l 1,7,-1
 290 1073 l 1,8,-1
 533 1073 l 1,9,-1
 679 1427 l 1,10,-1
 894 1427 l 1,11,-1
 748 1073 l 1,12,-1
 959 1073 l 1,13,-1
 1105 1427 l 1,14,-1
 1321 1427 l 1,15,-1
 1175 1073 l 1,16,-1
 1352 1073 l 1,17,-1
 1309 868 l 1,18,-1
 1092 868 l 1,19,-1
 964 557 l 1,20,-1
 1168 557 l 1,21,-1
 1124 352 l 1,22,-1
 881 352 l 1,23,-1
 710 -66 l 1,24,-1
 494 -66 l 1,25,-1
 665 352 l 1,26,-1
 454 352 l 1,27,-1
 283 -66 l 1,0,-1
537 557 m 1,28,-1
 748 557 l 1,29,-1
 876 868 l 1,30,-1
 665 868 l 1,31,-1
 537 557 l 1,28,-1
EndSplineSet
EndChar

StartChar: dollar
Encoding: 36 36 5
Width: 1139
GlyphClass: 2
Flags: W
LayerCount: 2
Fore
SplineSet
1275 1020 m 1,0,-1
 1013 1020 l 1,1,2
 1020 1069 1020 1069 1020 1101 c 0,3,4
 1020 1114 1020 1114 1018 1126 c 0,5,6
 1004 1229 1004 1229 901 1246 c 1,7,-1
 813 833 l 1,8,9
 972 785 972 785 1053 724 c 0,10,11
 1174 632 1174 632 1174 484 c 0,12,13
 1174 309 1174 309 1054 158 c 0,14,15
 919 -12 919 -12 627 -43 c 1,16,-1
 581 -258 l 1,17,-1
 443 -258 l 1,18,-1
 489 -43 l 1,19,20
 322 -26 322 -26 233 50 c 0,21,22
 121 147 121 147 121 303 c 0,23,24
 121 351 121 351 132 403 c 0,25,26
 133 410 133 410 136 424 c 1,27,-1
 403 424 l 1,28,29
 402 385 402 385 402 357 c 0,30,31
 402 202 402 202 535 176 c 1,32,-1
 628 613 l 1,33,34
 291 697 291 697 291 972 c 0,35,36
 291 1143 291 1143 415 1278 c 0,37,38
 554 1429 554 1429 806 1451 c 1,39,-1
 830 1563 l 1,40,-1
 968 1563 l 1,41,-1
 945 1451 l 1,42,43
 1106 1437 1106 1437 1184 1370 c 0,44,45
 1286 1282 1286 1282 1286 1121 c 0,46,47
 1286 1084 1286 1084 1280 1045 c 0,48,49
 1278 1037 1278 1037 1275 1020 c 1,0,-1
763 1246 m 1,50,51
 692 1233 692 1233 653 1207 c 0,52,53
 610 1177 610 1177 583.5 1128 c 128,-1,54
 557 1079 557 1079 557 1027 c 0,55,56
 557 1005 557 1005 564 984 c 0,57,58
 586 913 586 913 684 875 c 1,59,-1
 763 1246 l 1,50,51
674 176 m 1,60,61
 749 194 749 194 795 229 c 0,62,63
 881 298 881 298 881 406 c 0,64,65
 881 529 881 529 759 578 c 1,66,-1
 674 176 l 1,60,61
EndSplineSet
EndChar

StartChar: percent
Encoding: 37 37 6
Width: 1821
GlyphClass: 2
Flags: W
LayerCount: 2
Fore
SplineSet
1549 1452 m 1,0,-1
 1706 1452 l 1,1,-1
 578 -41 l 1,2,-1
 421 -41 l 1,3,-1
 1549 1452 l 1,0,-1
720 1436 m 0,4,5
 798 1436 798 1436 862 1408 c 0,6,7
 944 1371 944 1371 989 1301 c 128,-1,8
 1034 1231 1034 1231 1034 1141 c 0,9,10
 1034 978 1034 978 910 844 c 0,11,12
 768 690 768 690 574 690 c 0,13,14
 441 690 441 690 352.5 774.5 c 128,-1,15
 264 859 264 859 264 988 c 0,16,17
 264 1025 264 1025 272 1063 c 0,18,19
 305 1220 305 1220 435 1327 c 0,20,21
 568 1436 568 1436 720 1436 c 0,4,5
678 1235 m 0,22,23
 641 1235 641 1235 608 1222 c 0,24,25
 547 1198 547 1198 508 1143 c 128,-1,26
 469 1088 469 1088 469 1027 c 0,27,28
 469 1011 469 1011 472 997 c 0,29,30
 482 951 482 951 523 921 c 128,-1,31
 564 891 564 891 618 891 c 0,32,33
 656 891 656 891 690 904 c 0,34,35
 750 927 750 927 789.5 982 c 128,-1,36
 829 1037 829 1037 829 1098 c 0,37,38
 829 1157 829 1157 786 1196 c 128,-1,39
 743 1235 743 1235 678 1235 c 0,22,23
1535 705 m 0,40,41
 1613 705 1613 705 1677 677 c 0,42,43
 1759 640 1759 640 1804 570 c 128,-1,44
 1849 500 1849 500 1849 410 c 0,45,46
 1849 247 1849 247 1725 113 c 0,47,48
 1583 -41 1583 -41 1389 -41 c 0,49,50
 1255 -41 1255 -41 1167 43.5 c 128,-1,51
 1079 128 1079 128 1079 257 c 0,52,53
 1079 294 1079 294 1087 332 c 0,54,55
 1120 489 1120 489 1250 596 c 0,56,57
 1383 705 1383 705 1535 705 c 0,40,41
1493 504 m 0,58,59
 1456 504 1456 504 1423 491 c 0,60,61
 1362 467 1362 467 1323 412 c 128,-1,62
 1284 357 1284 357 1284 296 c 0,63,64
 1284 280 1284 280 1287 266 c 0,65,66
 1297 219 1297 219 1338 189.5 c 128,-1,67
 1379 160 1379 160 1433 160 c 0,68,69
 1471 160 1471 160 1505 173 c 0,70,71
 1566 196 1566 196 1605 251 c 128,-1,72
 1644 306 1644 306 1644 367 c 0,73,74
 1644 426 1644 426 1601 465 c 128,-1,75
 1558 504 1558 504 1493 504 c 0,58,59
EndSplineSet
EndChar

StartChar: ampersand
Encoding: 38 38 7
Width: 1479
GlyphClass: 2
Flags: W
LayerCount: 2
Fore
SplineSet
1243 764 m 1,0,-1
 1474 764 l 1,1,2
 1431 515 1431 515 1233 327 c 1,3,-1
 1425 0 l 1,4,-1
 1098 0 l 1,5,-1
 1022 124 l 1,6,7
 930 58 930 58 877 26 c 0,8,9
 751 -47 751 -47 588 -47 c 0,10,11
 495 -47 495 -47 411 -20 c 0,12,13
 182 55 182 55 182 320 c 0,14,15
 182 442 182 442 242 541 c 0,16,17
 293 627 293 627 375.5 689.5 c 128,-1,18
 458 752 458 752 612 822 c 1,19,20
 504 977 504 977 504 1071 c 0,21,22
 504 1101 504 1101 510 1132 c 0,23,24
 544 1296 544 1296 690 1397 c 0,25,26
 811 1481 811 1481 964 1481 c 0,27,28
 1047 1481 1047 1481 1121 1453 c 0,29,30
 1195 1426 1195 1426 1236.5 1370 c 128,-1,31
 1278 1314 1278 1314 1278 1241 c 0,32,33
 1278 1204 1278 1204 1269 1163 c 0,34,35
 1245 1052 1245 1052 1177 974 c 128,-1,36
 1109 896 1109 896 953 802 c 1,37,-1
 1119 522 l 1,38,39
 1174 573 1174 573 1200 624 c 128,-1,40
 1226 675 1226 675 1243 764 c 1,0,-1
711 654 m 1,41,-1
 603 593 l 2,42,43
 518 545 518 545 489 492 c 0,44,45
 463 444 463 444 463 384 c 0,46,47
 463 325 463 325 496 275 c 0,48,49
 550 191 550 191 646 191 c 0,50,51
 698 191 698 191 752.5 215.5 c 128,-1,52
 807 240 807 240 913 311 c 1,53,-1
 711 654 l 1,41,-1
858 963 m 1,54,55
 1022 1047 1022 1047 1022 1176 c 0,56,57
 1022 1205 1022 1205 1006 1226 c 0,58,59
 980 1260 980 1260 919 1260 c 0,60,61
 860 1260 860 1260 822.5 1224 c 128,-1,62
 785 1188 785 1188 785 1131 c 0,63,64
 785 1102 785 1102 796.5 1075.5 c 128,-1,65
 808 1049 808 1049 858 963 c 1,54,55
EndSplineSet
EndChar

StartChar: quotesingle
Encoding: 39 39 8
Width: 487
GlyphClass: 2
Flags: W
LayerCount: 2
Fore
SplineSet
702 1493 m 1,0,-1
 645 1228 l 1,1,-1
 502 963 l 1,2,-1
 388 963 l 1,3,-1
 362 1228 l 1,4,-1
 419 1493 l 1,5,-1
 702 1493 l 1,0,-1
EndSplineSet
EndChar

StartChar: parenleft
Encoding: 40 40 9
Width: 682
GlyphClass: 2
Flags: W
LayerCount: 2
Fore
SplineSet
733 1493 m 1,0,-1
 938 1493 l 1,1,2
 743 1227 743 1227 645 1050 c 0,3,4
 416 636 416 636 416 230 c 0,5,6
 416 87 416 87 441.5 -51 c 128,-1,7
 467 -189 467 -189 534 -410 c 1,8,-1
 329 -410 l 1,9,10
 172 -50 172 -50 172 250 c 0,11,12
 172 393 172 393 203 542 c 0,13,14
 276 888 276 888 522 1227 c 0,15,16
 623 1366 623 1366 733 1493 c 1,0,-1
EndSplineSet
EndChar

StartChar: parenright
Encoding: 41 41 10
Width: 682
GlyphClass: 2
Flags: W
LayerCount: 2
Fore
SplineSet
162 -410 m 1,0,-1
 -43 -410 l 1,1,2
 158 -138 158 -138 254 33 c 0,3,4
 485 448 485 448 485 852 c 0,5,6
 485 947 485 947 471 1049 c 0,7,8
 449 1216 449 1216 361 1493 c 1,9,-1
 566 1493 l 1,10,11
 729 1128 729 1128 729 832 c 0,12,13
 729 691 729 691 697 541 c 0,14,15
 623 194 623 194 375 -144 c 0,16,17
 276 -279 276 -279 162 -410 c 1,0,-1
EndSplineSet
EndChar

StartChar: asterisk
Encoding: 42 42 11
Width: 797
GlyphClass: 2
Flags: W
LayerCount: 2
Fore
SplineSet
503 1113 m 1,0,-1
 297 1187 l 1,1,-1
 373 1329 l 1,2,-1
 579 1255 l 1,3,-1
 630 1493 l 1,4,-1
 777 1493 l 1,5,-1
 726 1255 l 1,6,-1
 964 1329 l 1,7,-1
 979 1187 l 1,8,-1
 741 1113 l 1,9,-1
 838 921 l 1,10,-1
 700 833 l 1,11,-1
 604 1026 l 1,12,-1
 425 833 l 1,13,-1
 325 921 l 1,14,-1
 503 1113 l 1,0,-1
EndSplineSet
EndChar

StartChar: plus
Encoding: 43 43 12
Width: 1196
GlyphClass: 2
Flags: W
LayerCount: 2
Fore
SplineSet
1220 598 m 1,0,-1
 1169 352 l 1,1,-1
 794 352 l 1,2,-1
 715 -20 l 1,3,-1
 471 -20 l 1,4,-1
 550 352 l 1,5,-1
 178 352 l 1,6,-1
 230 598 l 1,7,-1
 602 598 l 1,8,-1
 682 969 l 1,9,-1
 925 969 l 1,10,-1
 846 598 l 1,11,-1
 1220 598 l 1,0,-1
EndSplineSet
EndChar

StartChar: comma
Encoding: 44 44 13
Width: 569
GlyphClass: 2
Flags: W
LayerCount: 2
Fore
SplineSet
194 299 m 1,0,-1
 501 299 l 1,1,-1
 442 18 l 2,2,3
 413 -119 413 -119 367 -184 c 0,4,5
 267 -329 267 -329 55 -356 c 1,6,-1
 79 -241 l 1,7,8
 268 -208 268 -208 306 0 c 1,9,-1
 131 0 l 1,10,-1
 194 299 l 1,0,-1
EndSplineSet
EndChar

StartChar: hyphen
Encoding: 45 45 14
Width: 682
GlyphClass: 2
Flags: W
LayerCount: 2
Fore
SplineSet
759 700 m 1,0,-1
 701 424 l 1,1,-1
 143 424 l 1,2,-1
 202 700 l 1,3,-1
 759 700 l 1,0,-1
EndSplineSet
EndChar

StartChar: period
Encoding: 46 46 15
Width: 569
GlyphClass: 2
Flags: W
LayerCount: 2
Fore
SplineSet
502 299 m 1,0,-1
 438 0 l 1,1,-1
 131 0 l 1,2,-1
 195 299 l 1,3,-1
 502 299 l 1,0,-1
EndSplineSet
EndChar

StartChar: slash
Encoding: 47 47 16
Width: 569
GlyphClass: 2
Flags: W
LayerCount: 2
Fore
SplineSet
737 1462 m 1,0,-1
 875 1462 l 1,1,-1
 135 -29 l 1,2,-1
 -2 -29 l 1,3,-1
 737 1462 l 1,0,-1
EndSplineSet
EndChar

StartChar: zero
Encoding: 48 48 17
Width: 1139
GlyphClass: 2
Flags: W
LayerCount: 2
Fore
SplineSet
863 1483 m 0,0,1
 964 1483 964 1483 1047 1447 c 0,2,3
 1149 1404 1149 1404 1203.5 1308 c 128,-1,4
 1258 1212 1258 1212 1258 1077 c 0,5,6
 1258 921 1258 921 1208.5 694 c 128,-1,7
 1159 467 1159 467 1094 327 c 0,8,9
 1006 138 1006 138 856 40 c 0,10,11
 723 -47 723 -47 555 -47 c 0,12,13
 461 -47 461 -47 380.5 -12.5 c 128,-1,14
 300 22 300 22 250 84 c 0,15,16
 166 188 166 188 166 360 c 0,17,18
 166 516 166 516 215.5 741.5 c 128,-1,19
 265 967 265 967 330 1108 c 0,20,21
 418 1298 418 1298 568 1396 c 0,22,23
 700 1483 700 1483 863 1483 c 0,0,1
808 1254 m 0,24,25
 763 1254 763 1254 725 1234 c 0,26,27
 660 1200 660 1200 620.5 1125.5 c 128,-1,28
 581 1051 581 1051 541 890 c 0,29,30
 459 555 459 555 459 375 c 0,31,32
 459 323 459 323 482 277 c 0,33,34
 498 243 498 243 534.5 223 c 128,-1,35
 571 203 571 203 614 203 c 0,36,37
 661 203 661 203 699 222 c 0,38,39
 763 253 763 253 803 326 c 128,-1,40
 843 399 843 399 882 558 c 0,41,42
 919 706 919 706 942 852 c 128,-1,43
 965 998 965 998 965 1081 c 0,44,45
 965 1133 965 1133 943 1178 c 0,46,47
 905 1254 905 1254 808 1254 c 0,24,25
EndSplineSet
EndChar

StartChar: one
Encoding: 49 49 18
Width: 1139
GlyphClass: 2
Flags: W
LayerCount: 2
Fore
SplineSet
701 1001 m 1,0,-1
 352 1001 l 1,1,-1
 392 1192 l 1,2,3
 770 1192 770 1192 893 1452 c 1,4,-1
 1083 1452 l 1,5,-1
 774 0 l 1,6,-1
 488 0 l 1,7,-1
 701 1001 l 1,0,-1
EndSplineSet
EndChar

StartChar: two
Encoding: 50 50 19
Width: 1139
GlyphClass: 2
Flags: W
LayerCount: 2
Fore
SplineSet
1102 256 m 1,0,-1
 1048 0 l 1,1,-1
 61 0 l 1,2,3
 103 162 103 162 170 266 c 0,4,5
 225 351 225 351 295.5 412.5 c 128,-1,6
 366 474 366 474 517 568 c 0,7,8
 804 746 804 746 883 827 c 0,9,10
 993 939 993 939 993 1091 c 0,11,12
 993 1120 993 1120 985 1147 c 0,13,14
 952 1254 952 1254 818 1254 c 0,15,16
 766 1254 766 1254 725 1237 c 0,17,18
 659 1210 659 1210 615.5 1134 c 128,-1,19
 572 1058 572 1058 558 946 c 1,20,-1
 282 946 l 1,21,22
 311 1133 311 1133 403 1263 c 0,23,24
 559 1483 559 1483 861 1483 c 0,25,26
 966 1483 966 1483 1059 1453 c 0,27,28
 1168 1418 1168 1418 1227 1334 c 128,-1,29
 1286 1250 1286 1250 1286 1131 c 0,30,31
 1286 932 1286 932 1152 773 c 0,32,33
 1104 716 1104 716 1036.5 663 c 128,-1,34
 969 610 969 610 842 530 c 0,35,36
 657 414 657 414 593 364.5 c 128,-1,37
 529 315 529 315 487 256 c 1,38,-1
 1102 256 l 1,0,-1
EndSplineSet
EndChar

StartChar: three
Encoding: 51 51 20
Width: 1139
GlyphClass: 2
Flags: W
LayerCount: 2
Fore
SplineSet
582 649 m 1,0,-1
 623 842 l 1,1,-1
 645 842 l 2,2,3
 808 842 808 842 888 934 c 0,4,5
 952 1008 952 1008 952 1110 c 0,6,7
 952 1174 952 1174 908.5 1213.5 c 128,-1,8
 865 1253 865 1253 794 1253 c 0,9,10
 751 1253 751 1253 710 1238 c 0,11,12
 647 1213 647 1213 614 1162 c 128,-1,13
 581 1111 581 1111 555 995 c 1,14,-1
 290 995 l 1,15,16
 313 1116 313 1116 345.5 1190 c 128,-1,17
 378 1264 378 1264 434 1325 c 0,18,19
 578 1483 578 1483 846 1483 c 0,20,21
 1061 1483 1061 1483 1169 1386 c 0,22,23
 1255 1309 1255 1309 1255 1174 c 0,24,25
 1255 1118 1255 1118 1239 1060 c 0,26,27
 1190 890 1190 890 1009 778 c 1,28,29
 1157 688 1157 688 1157 526 c 0,30,31
 1157 427 1157 427 1121 325.5 c 128,-1,32
 1085 224 1085 224 1024 148 c 0,33,34
 865 -47 865 -47 556 -47 c 0,35,36
 453 -47 453 -47 364 -19 c 0,37,38
 257 15 257 15 197 101.5 c 128,-1,39
 137 188 137 188 137 310 c 0,40,41
 137 358 137 358 146 408 c 0,42,43
 147 414 147 414 150 426 c 1,44,-1
 428 426 l 1,45,46
 429 408 429 408 430 361 c 0,47,48
 431 297 431 297 459 264 c 0,49,50
 511 203 511 203 614 203 c 0,51,52
 672 203 672 203 716 224 c 0,53,54
 780 255 780 255 822 326 c 128,-1,55
 864 397 864 397 864 473 c 0,56,57
 864 650 864 650 622 650 c 0,58,59
 611 650 611 650 582 649 c 1,0,-1
EndSplineSet
EndChar

StartChar: four
Encoding: 52 52 21
Width: 1139
GlyphClass: 2
Flags: W
LayerCount: 2
Fore
SplineSet
1188 560 m 1,0,-1
 1138 322 l 1,1,-1
 987 322 l 1,2,-1
 918 0 l 1,3,-1
 632 0 l 1,4,-1
 700 322 l 1,5,-1
 117 322 l 1,6,-1
 169 565 l 1,7,-1
 890 1452 l 1,8,-1
 1227 1452 l 1,9,-1
 1037 560 l 1,10,-1
 1188 560 l 1,0,-1
751 560 m 1,11,-1
 883 1181 l 1,12,-1
 372 560 l 1,13,-1
 751 560 l 1,11,-1
EndSplineSet
EndChar

StartChar: five
Encoding: 53 53 22
Width: 1139
GlyphClass: 2
Flags: W
LayerCount: 2
Fore
SplineSet
1313 1452 m 1,0,-1
 1258 1196 l 1,1,-1
 650 1196 l 1,2,-1
 541 893 l 1,3,4
 675 981 675 981 812 981 c 0,5,6
 912 981 912 981 997 940 c 0,7,8
 1172 854 1172 854 1172 614 c 0,9,10
 1172 391 1172 391 1038 208 c 0,11,12
 951 90 951 90 827 24 c 0,13,14
 693 -47 693 -47 530 -47 c 0,15,16
 316 -47 316 -47 203 73 c 0,17,18
 121 160 121 160 121 289 c 0,19,20
 121 326 121 326 131 379 c 1,21,-1
 413 379 l 1,22,23
 409 350 409 350 409 333 c 0,24,25
 409 309 409 309 419 286 c 0,26,27
 454 203 454 203 590 203 c 0,28,29
 731 203 731 203 812 327 c 0,30,31
 879 431 879 431 879 565 c 0,32,33
 879 625 879 625 854 674 c 0,34,35
 813 752 813 752 695 752 c 0,36,37
 558 752 558 752 487 643 c 1,38,-1
 229 643 l 1,39,-1
 529 1452 l 1,40,-1
 1313 1452 l 1,0,-1
EndSplineSet
EndChar

StartChar: six
Encoding: 54 54 23
Width: 1139
GlyphClass: 2
Flags: W
LayerCount: 2
Fore
SplineSet
1279 1122 m 1,0,-1
 1012 1122 l 1,1,2
 1000 1183 1000 1183 976 1208 c 0,3,4
 931 1253 931 1253 847 1253 c 0,5,6
 761 1253 761 1253 701 1204 c 128,-1,7
 641 1155 641 1155 598 1049 c 0,8,9
 569 978 569 978 532 841 c 1,10,11
 681 956 681 956 838 956 c 0,12,13
 1005 956 1005 956 1095 862 c 0,14,15
 1182 771 1182 771 1182 614 c 0,16,17
 1182 504 1182 504 1142 388.5 c 128,-1,18
 1102 273 1102 273 1031 180 c 0,19,20
 949 71 949 71 831 12 c 0,21,22
 714 -47 714 -47 582 -47 c 0,23,24
 470 -47 470 -47 374 -2 c 0,25,26
 285 40 285 40 232 125 c 0,27,28
 174 219 174 219 174 350 c 0,29,30
 174 537 174 537 235.5 779.5 c 128,-1,31
 297 1022 297 1022 378 1155 c 0,32,33
 578 1483 578 1483 908 1483 c 0,34,35
 984 1483 984 1483 1056 1462 c 0,36,37
 1280 1398 1280 1398 1280 1169 c 0,38,39
 1280 1154 1280 1154 1279 1122 c 1,0,-1
721 727 m 0,40,41
 669 727 669 727 623 705 c 0,42,43
 543 667 543 667 491.5 577.5 c 128,-1,44
 440 488 440 488 440 386 c 0,45,46
 440 290 440 290 501 243 c 0,47,48
 552 203 552 203 617 203 c 0,49,50
 667 203 667 203 707 222 c 0,51,52
 788 260 788 260 838.5 351 c 128,-1,53
 889 442 889 442 889 551 c 0,54,55
 889 605 889 605 866 647 c 0,56,57
 824 727 824 727 721 727 c 0,40,41
EndSplineSet
EndChar

StartChar: seven
Encoding: 55 55 24
Width: 1139
GlyphClass: 2
Flags: W
LayerCount: 2
Fore
SplineSet
1390 1452 m 1,0,-1
 1343 1228 l 1,1,2
 1319 1202 1319 1202 1127 1006 c 0,3,4
 1020 896 1020 896 902 728 c 128,-1,5
 784 560 784 560 713 416 c 0,6,7
 634 254 634 254 558 0 c 1,8,-1
 268 0 l 1,9,10
 354 247 354 247 429 402.5 c 128,-1,11
 504 558 504 558 610 711 c 0,12,13
 688 824 688 824 811.5 965.5 c 128,-1,14
 935 1107 935 1107 1032 1196 c 1,15,-1
 310 1196 l 1,16,-1
 364 1452 l 1,17,-1
 1390 1452 l 1,0,-1
EndSplineSet
EndChar

StartChar: eight
Encoding: 56 56 25
Width: 1139
GlyphClass: 2
Flags: W
LayerCount: 2
Fore
SplineSet
1006 791 m 1,0,1
 1062 757 1062 757 1095 727 c 0,2,3
 1178 649 1178 649 1178 518 c 0,4,5
 1178 411 1178 411 1129 301 c 0,6,7
 1042 109 1042 109 860 20 c 0,8,9
 724 -47 724 -47 565 -47 c 0,10,11
 443 -47 443 -47 343.5 -7 c 128,-1,12
 244 33 244 33 191 102 c 0,13,14
 123 193 123 193 123 318 c 0,15,16
 123 370 123 370 136 424 c 0,17,18
 166 551 166 551 240.5 637 c 128,-1,19
 315 723 315 723 453 791 c 1,20,21
 381 845 381 845 350.5 896 c 128,-1,22
 320 947 320 947 320 1014 c 0,23,24
 320 1199 320 1199 470 1335 c 0,25,26
 634 1483 634 1483 865 1483 c 0,27,28
 1057 1483 1057 1483 1174 1381 c 0,29,30
 1270 1297 1270 1297 1270 1168 c 0,31,32
 1270 1011 1270 1011 1148 893 c 0,33,34
 1101 847 1101 847 1006 791 c 1,0,1
815 1254 m 0,35,36
 764 1254 764 1254 722 1238 c 0,37,38
 654 1213 654 1213 612 1153.5 c 128,-1,39
 570 1094 570 1094 570 1023 c 0,40,41
 570 1007 570 1007 573 992 c 0,42,43
 582 936 582 936 628 903 c 128,-1,44
 674 870 674 870 743 870 c 0,45,46
 796 870 796 870 841 886 c 0,47,48
 914 912 914 912 959 973 c 128,-1,49
 1004 1034 1004 1034 1004 1106 c 0,50,51
 1004 1157 1004 1157 974 1192 c 0,52,53
 922 1254 922 1254 815 1254 c 0,35,36
700 675 m 0,54,55
 646 675 646 675 598 655 c 0,56,57
 502 616 502 616 455 527 c 0,58,59
 416 452 416 452 416 368 c 0,60,61
 416 342 416 342 424 317 c 0,62,63
 441 265 441 265 491.5 234 c 128,-1,64
 542 203 542 203 609 203 c 0,65,66
 667 203 667 203 714 222 c 0,67,68
 792 254 792 254 838.5 331 c 128,-1,69
 885 408 885 408 885 506 c 0,70,71
 885 532 885 532 878 557 c 0,72,73
 844 675 844 675 700 675 c 0,54,55
EndSplineSet
EndChar

StartChar: nine
Encoding: 57 57 26
Width: 1139
GlyphClass: 2
Flags: W
LayerCount: 2
Fore
SplineSet
147 338 m 1,0,-1
 423 338 l 1,1,2
 421 322 421 322 421 313 c 0,3,4
 421 299 421 299 426 284 c 0,5,6
 455 203 455 203 583 203 c 0,7,8
 634 203 634 203 675 220 c 0,9,10
 754 252 754 252 803 336.5 c 128,-1,11
 852 421 852 421 894 597 c 1,12,13
 807 522 807 522 742.5 494.5 c 128,-1,14
 678 467 678 467 592 467 c 0,15,16
 497 467 497 467 416 507 c 0,17,18
 245 591 245 591 245 825 c 0,19,20
 245 1086 245 1086 401 1272 c 0,21,22
 489 1376 489 1376 608 1431 c 0,23,24
 720 1483 720 1483 846 1483 c 0,25,26
 955 1483 955 1483 1041 1442 c 0,27,28
 1138 1397 1138 1397 1194.5 1295 c 128,-1,29
 1251 1193 1251 1193 1251 1064 c 0,30,31
 1251 808 1251 808 1147 515 c 0,32,33
 1055 255 1055 255 918 118 c 0,34,35
 753 -47 753 -47 508 -47 c 0,36,37
 422 -47 422 -47 346 -21 c 0,38,39
 229 19 229 19 174 126 c 0,40,41
 139 195 139 195 139 270 c 0,42,43
 139 298 139 298 147 338 c 1,0,-1
796 1254 m 0,44,45
 748 1254 748 1254 709 1237 c 0,46,47
 620 1198 620 1198 571 1089 c 0,48,49
 526 988 526 988 526 883 c 0,50,51
 526 821 526 821 553 775 c 0,52,53
 594 705 594 705 690 705 c 0,54,55
 737 705 737 705 782 722 c 0,56,57
 884 762 884 762 937 866 c 0,58,59
 985 963 985 963 985 1064 c 0,60,61
 985 1134 985 1134 952 1182 c 0,62,63
 902 1254 902 1254 796 1254 c 0,44,45
EndSplineSet
EndChar

StartChar: colon
Encoding: 58 58 27
Width: 682
GlyphClass: 2
Flags: W
LayerCount: 2
Fore
SplineSet
602 299 m 1,0,-1
 538 0 l 1,1,-1
 231 0 l 1,2,-1
 295 299 l 1,3,-1
 602 299 l 1,0,-1
766 1065 m 1,4,-1
 702 766 l 1,5,-1
 395 766 l 1,6,-1
 458 1065 l 1,7,-1
 766 1065 l 1,4,-1
EndSplineSet
EndChar

StartChar: semicolon
Encoding: 59 59 28
Width: 682
GlyphClass: 2
Flags: W
LayerCount: 2
Fore
SplineSet
295 299 m 1,0,-1
 602 299 l 1,1,-1
 543 18 l 2,2,3
 514 -119 514 -119 468 -184 c 0,4,5
 368 -329 368 -329 156 -356 c 1,6,-1
 180 -241 l 1,7,8
 369 -208 369 -208 407 0 c 1,9,-1
 232 0 l 1,10,-1
 295 299 l 1,0,-1
766 1065 m 1,11,-1
 703 766 l 1,12,-1
 396 766 l 1,13,-1
 459 1065 l 1,14,-1
 766 1065 l 1,11,-1
EndSplineSet
EndChar

StartChar: less
Encoding: 60 60 29
Width: 1196
GlyphClass: 2
Flags: W
LayerCount: 2
Fore
SplineSet
1291 971 m 1,0,-1
 1234 706 l 1,1,-1
 539 476 l 1,2,-1
 1137 247 l 1,3,-1
 1080 -20 l 1,4,-1
 158 353 l 1,5,-1
 210 599 l 1,6,-1
 1291 971 l 1,0,-1
EndSplineSet
EndChar

StartChar: equal
Encoding: 61 61 30
Width: 1196
GlyphClass: 2
Flags: W
LayerCount: 2
Fore
SplineSet
1274 844 m 1,0,-1
 1222 598 l 1,1,-1
 229 598 l 1,2,-1
 281 844 l 1,3,-1
 1274 844 l 1,0,-1
1169 352 m 1,4,-1
 1118 106 l 1,5,-1
 125 106 l 1,6,-1
 177 352 l 1,7,-1
 1169 352 l 1,4,-1
EndSplineSet
EndChar

StartChar: greater
Encoding: 62 62 31
Width: 1196
GlyphClass: 2
Flags: W
LayerCount: 2
Fore
SplineSet
78 -20 m 1,0,-1
 134 244 l 1,1,-1
 829 475 l 1,2,-1
 232 703 l 1,3,-1
 289 971 l 1,4,-1
 1211 597 l 1,5,-1
 1158 351 l 1,6,-1
 78 -20 l 1,0,-1
EndSplineSet
EndChar

StartChar: question
Encoding: 63 63 32
Width: 1251
GlyphClass: 2
Flags: W
LayerCount: 2
Fore
SplineSet
847 412 m 1,0,-1
 597 412 l 1,1,2
 607 484 607 484 623.5 528.5 c 128,-1,3
 640 573 640 573 676 624 c 0,4,5
 744 719 744 719 884 817 c 0,6,7
 970 877 970 877 998 902.5 c 128,-1,8
 1026 928 1026 928 1049 969 c 0,9,10
 1083 1028 1083 1028 1083 1091 c 0,11,12
 1083 1171 1083 1171 1031 1220.5 c 128,-1,13
 979 1270 979 1270 896 1270 c 0,14,15
 853 1270 853 1270 814 1256 c 0,16,17
 664 1200 664 1200 623 985 c 1,18,-1
 344 985 l 1,19,20
 397 1224 397 1224 508 1345 c 0,21,22
 671 1524 671 1524 935 1524 c 0,23,24
 1057 1524 1057 1524 1157 1486 c 0,25,26
 1241 1455 1241 1455 1297 1386 c 0,27,28
 1376 1287 1376 1287 1376 1159 c 0,29,30
 1376 1077 1376 1077 1348 991.5 c 128,-1,31
 1320 906 1320 906 1273 845 c 0,32,33
 1210 765 1210 765 1035 656 c 0,34,35
 954 605 954 605 925.5 580 c 128,-1,36
 897 555 897 555 879 519 c 0,37,38
 864 489 864 489 847 412 c 1,0,-1
856 299 m 1,39,-1
 792 0 l 1,40,-1
 485 0 l 1,41,-1
 548 299 l 1,42,-1
 856 299 l 1,39,-1
EndSplineSet
EndChar

StartChar: at
Encoding: 64 64 33
Width: 1997
GlyphClass: 2
Flags: W
LayerCount: 2
Fore
SplineSet
1537 1040 m 1,0,-1
 1722 1040 l 1,1,-1
 1442 467 l 2,2,3
 1403 390 1403 390 1403 355 c 0,4,5
 1403 330 1403 330 1415 313 c 0,6,7
 1436 284 1436 284 1483 284 c 0,8,9
 1548 284 1548 284 1631 339.5 c 128,-1,10
 1714 395 1714 395 1783 484 c 0,11,12
 1924 668 1924 668 1924 870 c 0,13,14
 1924 1031 1924 1031 1795 1169 c 0,15,16
 1707 1265 1707 1265 1605 1306 c 0,17,18
 1480 1356 1480 1356 1315 1356 c 0,19,20
 1037 1356 1037 1356 814 1215 c 0,21,22
 552 1049 552 1049 423 730 c 0,23,24
 355 560 355 560 355 402 c 0,25,26
 355 326 355 326 375 259 c 0,27,28
 433 69 433 69 627 -32 c 0,29,30
 777 -111 777 -111 975 -111 c 0,31,32
 1150 -111 1150 -111 1410 -27 c 1,33,-1
 1434 -189 l 1,34,35
 1209 -281 1209 -281 927 -281 c 0,36,37
 775 -281 775 -281 639 -248 c 0,38,39
 470 -207 470 -207 343 -87 c 0,40,41
 228 23 228 23 180 177 c 0,42,43
 150 272 150 272 150 371 c 0,44,45
 150 598 150 598 261 824 c 0,46,47
 428 1164 428 1164 748 1354 c 0,48,49
 1038 1526 1038 1526 1372 1526 c 0,50,51
 1572 1526 1572 1526 1734 1456 c 0,52,53
 1902 1383 1902 1383 2008 1227.5 c 128,-1,54
 2114 1072 2114 1072 2114 899 c 0,55,56
 2114 617 2114 617 1934 394 c 0,57,58
 1805 235 1805 235 1655 165 c 0,59,60
 1547 114 1547 114 1444 114 c 0,61,62
 1402 114 1402 114 1360 126 c 0,63,64
 1256 157 1256 157 1224 257 c 1,65,66
 1069 108 1069 108 897 108 c 0,67,68
 740 108 740 108 662 226 c 0,69,70
 617 295 617 295 617 386 c 0,71,72
 617 478 617 478 666 587 c 128,-1,73
 715 696 715 696 801 797 c 0,74,75
 904 917 904 917 1032 989 c 0,76,77
 1159 1060 1159 1060 1284 1060 c 0,78,79
 1351 1060 1351 1060 1400 1030 c 0,80,81
 1448 1000 1448 1000 1481 919 c 1,82,-1
 1537 1040 l 1,0,-1
1242 913 m 0,83,84
 1237 913 1237 913 1232 913 c 0,85,86
 1192 913 1192 913 1141 891 c 0,87,88
 997 829 997 829 898 669 c 0,89,90
 822 545 822 545 822 440 c 0,91,92
 822 397 822 397 835 362 c 0,93,94
 849 326 849 326 884 302 c 128,-1,95
 919 278 919 278 959 278 c 0,96,97
 1029 278 1029 278 1104 326.5 c 128,-1,98
 1179 375 1179 375 1247 464 c 0,99,100
 1306 541 1306 541 1340.5 624 c 128,-1,101
 1375 707 1375 707 1375 770 c 0,102,103
 1375 832 1375 832 1339 870.5 c 128,-1,104
 1303 909 1303 909 1242 913 c 0,83,84
EndSplineSet
EndChar

StartChar: A
Encoding: 65 65 34
Width: 1479
GlyphClass: 2
Flags: W
LayerCount: 2
Fore
SplineSet
1089 301 m 1,0,-1
 533 301 l 1,1,-1
 366 0 l 1,2,-1
 53 0 l 1,3,-1
 886 1493 l 1,4,-1
 1241 1493 l 1,5,-1
 1439 0 l 1,6,-1
 1127 0 l 1,7,-1
 1089 301 l 1,0,-1
1061 557 m 1,8,-1
 990 1137 l 1,9,-1
 673 557 l 1,10,-1
 1061 557 l 1,8,-1
EndSplineSet
Substitution2: "Single Substitution lookup 1 subtable" ordfeminine
EndChar

StartChar: B
Encoding: 66 66 35
Width: 1479
GlyphClass: 2
Flags: W
LayerCount: 2
Fore
SplineSet
168 0 m 1,0,-1
 485 1493 l 1,1,-1
 1150 1493 l 2,2,3
 1372 1493 1372 1493 1478 1384 c 0,4,5
 1561 1298 1561 1298 1561 1169 c 0,6,7
 1561 1123 1561 1123 1549 1078 c 0,8,9
 1504 915 1504 915 1321 794 c 1,10,11
 1382 746 1382 746 1410 706 c 0,12,13
 1466 625 1466 625 1466 523 c 0,14,15
 1466 481 1466 481 1456 435 c 0,16,17
 1434 339 1434 339 1376.5 252.5 c 128,-1,18
 1319 166 1319 166 1238 109 c 0,19,20
 1087 0 1087 0 839 0 c 2,21,-1
 168 0 l 1,0,-1
666 899 m 1,22,-1
 1001 899 l 2,23,24
 1082 899 1082 899 1123 913 c 128,-1,25
 1164 927 1164 927 1199 965 c 0,26,27
 1256 1027 1256 1027 1256 1110 c 0,28,29
 1256 1128 1256 1128 1252 1143 c 0,30,31
 1240 1194 1240 1194 1198.5 1215.5 c 128,-1,32
 1157 1237 1157 1237 1073 1237 c 2,33,-1
 738 1237 l 1,34,-1
 666 899 l 1,22,-1
530 256 m 1,35,-1
 895 256 l 2,36,37
 982 256 982 256 1031.5 277 c 128,-1,38
 1081 298 1081 298 1116 351 c 0,39,40
 1163 419 1163 419 1163 501 c 0,41,42
 1163 527 1163 527 1156 550 c 0,43,44
 1129 643 1129 643 978 643 c 2,45,-1
 612 643 l 1,46,-1
 530 256 l 1,35,-1
EndSplineSet
EndChar

StartChar: C
Encoding: 67 67 36
Width: 1479
GlyphClass: 2
Flags: W
LayerCount: 2
Fore
SplineSet
1615 987 m 1,0,-1
 1328 987 l 1,1,2
 1326 1093 1326 1093 1292 1148 c 0,3,4
 1225 1256 1225 1256 1057 1256 c 0,5,6
 921 1256 921 1256 814 1187 c 0,7,8
 693 1110 693 1110 608.5 922 c 128,-1,9
 524 734 524 734 524 542 c 0,10,11
 524 215 524 215 824 215 c 0,12,13
 884 215 884 215 940 230 c 0,14,15
 1155 286 1155 286 1226 510 c 1,16,-1
 1520 510 l 1,17,18
 1463 289 1463 289 1311 146 c 0,19,20
 1106 -47 1106 -47 782 -47 c 0,21,22
 620 -47 620 -47 493 9 c 0,23,24
 353 72 353 72 281 213 c 0,25,26
 219 334 219 334 219 481 c 0,27,28
 219 696 219 696 298 920 c 0,29,30
 401 1214 401 1214 652 1385 c 0,31,32
 846 1518 846 1518 1092 1518 c 0,33,34
 1209 1518 1209 1518 1315 1485 c 0,35,36
 1479 1436 1479 1436 1561 1306 c 0,37,38
 1624 1206 1624 1206 1624 1090 c 0,39,40
 1624 1058 1624 1058 1615 987 c 1,0,-1
EndSplineSet
EndChar

StartChar: D
Encoding: 68 68 37
Width: 1479
GlyphClass: 2
Flags: W
LayerCount: 2
Fore
SplineSet
158 0 m 1,0,-1
 475 1493 l 1,1,-1
 1060 1493 l 2,2,3
 1323 1493 1323 1493 1448 1385 c 0,4,5
 1590 1263 1590 1263 1590 981 c 0,6,7
 1590 778 1590 778 1518 584 c 0,8,9
 1439 373 1439 373 1315 228 c 0,10,11
 1185 76 1185 76 1013 32 c 0,12,13
 892 0 892 0 742 0 c 2,14,-1
 158 0 l 1,0,-1
520 256 m 1,15,-1
 796 256 l 2,16,17
 954 256 954 256 1043 324 c 0,18,19
 1162 415 1162 415 1228 621 c 0,20,21
 1285 799 1285 799 1285 961 c 0,22,23
 1285 1052 1285 1052 1247 1126 c 0,24,25
 1191 1237 1191 1237 1004 1237 c 2,26,-1
 728 1237 l 1,27,-1
 520 256 l 1,15,-1
EndSplineSet
EndChar

StartChar: E
Encoding: 69 69 38
Width: 1366
GlyphClass: 2
Flags: W
LayerCount: 2
Fore
SplineSet
606 643 m 1,0,-1
 524 256 l 1,1,-1
 1333 256 l 1,2,-1
 1278 0 l 1,3,-1
 162 0 l 1,4,-1
 479 1493 l 1,5,-1
 1561 1493 l 1,6,-1
 1506 1237 l 1,7,-1
 732 1237 l 1,8,-1
 660 899 l 1,9,-1
 1375 899 l 1,10,-1
 1320 643 l 1,11,-1
 606 643 l 1,0,-1
EndSplineSet
EndChar

StartChar: F
Encoding: 70 70 39
Width: 1251
GlyphClass: 2
Flags: W
LayerCount: 2
Fore
SplineSet
596 643 m 1,0,-1
 459 0 l 1,1,-1
 152 0 l 1,2,-1
 469 1493 l 1,3,-1
 1518 1493 l 1,4,-1
 1464 1237 l 1,5,-1
 722 1237 l 1,6,-1
 650 899 l 1,7,-1
 1304 899 l 1,8,-1
 1250 643 l 1,9,-1
 596 643 l 1,0,-1
EndSplineSet
EndChar

StartChar: G
Encoding: 71 71 40
Width: 1593
GlyphClass: 2
Flags: W
LayerCount: 2
Fore
SplineSet
1627 803 m 1,0,-1
 1456 -4 l 1,1,-1
 1273 -4 l 1,2,-1
 1286 181 l 1,3,4
 1172 59 1172 59 1061.5 6 c 128,-1,5
 951 -47 951 -47 808 -47 c 0,6,7
 698 -47 698 -47 596 -16 c 0,8,9
 335 64 335 64 253 315 c 0,10,11
 219 417 219 417 219 537 c 0,12,13
 219 734 219 734 302 933 c 0,14,15
 431 1245 431 1245 689 1401 c 0,16,17
 883 1518 883 1518 1121 1518 c 0,18,19
 1381 1518 1381 1518 1533 1391 c 0,20,21
 1600 1335 1600 1335 1638.5 1253 c 128,-1,22
 1677 1171 1677 1171 1677 1083 c 0,23,24
 1677 1060 1677 1060 1673 1016 c 1,25,-1
 1391 1016 l 1,26,27
 1380 1110 1380 1110 1325 1166 c 0,28,29
 1236 1256 1236 1256 1063 1256 c 0,30,31
 800 1256 800 1256 650 1026 c 0,32,33
 595 942 595 942 559.5 817 c 128,-1,34
 524 692 524 692 524 582 c 256,35,36
 524 472 524 472 581 376 c 0,37,38
 675 215 675 215 872 215 c 0,39,40
 940 215 940 215 1005 236 c 0,41,42
 1120 273 1120 273 1200 353 c 128,-1,43
 1280 433 1280 433 1315 547 c 1,44,-1
 976 547 l 1,45,-1
 1030 803 l 1,46,-1
 1627 803 l 1,0,-1
EndSplineSet
EndChar

StartChar: H
Encoding: 72 72 41
Width: 1479
GlyphClass: 2
Flags: W
LayerCount: 2
Fore
SplineSet
1182 678 m 1,0,-1
 590 678 l 1,1,-1
 446 0 l 1,2,-1
 139 0 l 1,3,-1
 456 1493 l 1,4,-1
 764 1493 l 1,5,-1
 645 934 l 1,6,-1
 1235 934 l 1,7,-1
 1354 1493 l 1,8,-1
 1663 1493 l 1,9,-1
 1345 0 l 1,10,-1
 1038 0 l 1,11,-1
 1182 678 l 1,0,-1
EndSplineSet
EndChar

StartChar: I
Encoding: 73 73 42
Width: 569
GlyphClass: 2
Flags: W
LayerCount: 2
Fore
SplineSet
754 1493 m 1,0,-1
 436 0 l 1,1,-1
 129 0 l 1,2,-1
 446 1493 l 1,3,-1
 754 1493 l 1,0,-1
EndSplineSet
EndChar

StartChar: J
Encoding: 74 74 43
Width: 1139
GlyphClass: 2
Flags: W
LayerCount: 2
Fore
SplineSet
1006 1493 m 1,0,-1
 1313 1493 l 1,1,-1
 1078 390 l 2,2,3
 1027 148 1027 148 872 47 c 0,4,5
 806 4 806 4 707.5 -21.5 c 128,-1,6
 609 -47 609 -47 506 -47 c 0,7,8
 313 -47 313 -47 212 48 c 0,9,10
 121 133 121 133 121 272 c 0,11,12
 121 337 121 337 136 406 c 2,13,-1
 167 553 l 1,14,-1
 474 553 l 1,15,-1
 441 395 l 2,16,17
 432 355 432 355 432 326 c 0,18,19
 432 310 432 310 437 293 c 0,20,21
 463 215 463 215 567 215 c 0,22,23
 734 215 734 215 771 390 c 2,24,-1
 1006 1493 l 1,0,-1
EndSplineSet
EndChar

StartChar: K
Encoding: 75 75 44
Width: 1479
GlyphClass: 2
Flags: W
LayerCount: 2
Fore
SplineSet
561 479 m 1,0,-1
 459 0 l 1,1,-1
 152 0 l 1,2,-1
 469 1493 l 1,3,-1
 777 1493 l 1,4,-1
 637 837 l 1,5,-1
 1363 1493 l 1,6,-1
 1727 1493 l 1,7,-1
 988 840 l 1,8,-1
 1469 0 l 1,9,-1
 1101 0 l 1,10,-1
 749 644 l 1,11,-1
 561 479 l 1,0,-1
EndSplineSet
EndChar

StartChar: L
Encoding: 76 76 45
Width: 1251
GlyphClass: 2
Flags: W
LayerCount: 2
Fore
SplineSet
789 1493 m 1,0,-1
 526 256 l 1,1,-1
 1241 256 l 1,2,-1
 1187 0 l 1,3,-1
 164 0 l 1,4,-1
 481 1493 l 1,5,-1
 789 1493 l 1,0,-1
EndSplineSet
EndChar

StartChar: M
Encoding: 77 77 46
Width: 1706
GlyphClass: 2
Flags: W
LayerCount: 2
Fore
SplineSet
1018 0 m 1,0,-1
 710 0 l 1,1,-1
 695 1268 l 1,2,-1
 426 0 l 1,3,-1
 135 0 l 1,4,-1
 452 1493 l 1,5,-1
 898 1493 l 1,6,-1
 938 346 l 1,7,-1
 1457 1493 l 1,8,-1
 1907 1493 l 1,9,-1
 1589 0 l 1,10,-1
 1298 0 l 1,11,-1
 1568 1268 l 1,12,-1
 1018 0 l 1,0,-1
EndSplineSet
EndChar

StartChar: N
Encoding: 78 78 47
Width: 1479
GlyphClass: 2
Flags: W
LayerCount: 2
Fore
SplineSet
1671 1493 m 1,0,-1
 1353 0 l 1,1,-1
 1049 0 l 1,2,-1
 658 1071 l 1,3,-1
 430 0 l 1,4,-1
 139 0 l 1,5,-1
 456 1493 l 1,6,-1
 763 1493 l 1,7,-1
 1156 439 l 1,8,-1
 1380 1493 l 1,9,-1
 1671 1493 l 1,0,-1
EndSplineSet
EndChar

StartChar: O
Encoding: 79 79 48
Width: 1593
GlyphClass: 2
Flags: W
LayerCount: 2
Fore
SplineSet
1102 1518 m 0,0,1
 1249 1518 1249 1518 1371 1471 c 0,2,3
 1566 1397 1566 1397 1646 1207 c 0,4,5
 1696 1087 1696 1087 1696 931 c 0,6,7
 1696 733 1696 733 1617 538 c 0,8,9
 1500 251 1500 251 1260 84 c 0,10,11
 1070 -47 1070 -47 809 -47 c 0,12,13
 597 -47 597 -47 450 49 c 0,14,15
 337 123 337 123 277 248 c 128,-1,16
 217 373 217 373 217 535 c 0,17,18
 217 634 217 634 238 735 c 0,19,20
 289 972 289 972 432 1167 c 0,21,22
 690 1518 690 1518 1102 1518 c 0,0,1
1064 1256 m 0,23,24
 976 1256 976 1256 903 1228 c 0,25,26
 726 1160 726 1160 622 966 c 0,27,28
 522 780 522 780 522 578 c 0,29,30
 522 494 522 494 548 419 c 0,31,32
 588 303 588 303 692 252 c 0,33,34
 766 215 766 215 857 215 c 0,35,36
 946 215 946 215 1019 243 c 0,37,38
 1191 309 1191 309 1294 505 c 0,39,40
 1391 691 1391 691 1391 895 c 0,41,42
 1391 1076 1391 1076 1292 1172 c 0,43,44
 1207 1256 1207 1256 1064 1256 c 0,23,24
EndSplineSet
Substitution2: "Single Substitution lookup 1 subtable" ordmasculine
EndChar

StartChar: P
Encoding: 80 80 49
Width: 1366
GlyphClass: 2
Flags: W
LayerCount: 2
Fore
SplineSet
576 532 m 1,0,-1
 463 0 l 1,1,-1
 156 0 l 1,2,-1
 473 1493 l 1,3,-1
 1105 1493 l 2,4,5
 1207 1493 1207 1493 1275 1474.5 c 128,-1,6
 1343 1456 1343 1456 1399 1413 c 0,7,8
 1530 1314 1530 1314 1530 1147 c 0,9,10
 1530 1029 1530 1029 1481 907.5 c 128,-1,11
 1432 786 1432 786 1349 698 c 0,12,13
 1267 611 1267 611 1174 571.5 c 128,-1,14
 1081 532 1081 532 959 532 c 2,15,-1
 576 532 l 1,0,-1
631 788 m 1,16,-1
 944 788 l 2,17,18
 1101 788 1101 788 1173 893 c 0,19,20
 1195 926 1195 926 1210 978 c 128,-1,21
 1225 1030 1225 1030 1225 1075 c 0,22,23
 1225 1099 1225 1099 1217 1125 c 0,24,25
 1182 1237 1182 1237 1040 1237 c 2,26,-1
 726 1237 l 1,27,-1
 631 788 l 1,16,-1
EndSplineSet
EndChar

StartChar: Q
Encoding: 81 81 50
Width: 1593
GlyphClass: 2
Flags: W
LayerCount: 2
Fore
SplineSet
1404 211 m 1,0,-1
 1536 55 l 1,1,-1
 1344 -110 l 1,2,-1
 1204 56 l 1,3,4
 1025 -47 1025 -47 812 -47 c 0,5,6
 498 -47 498 -47 338 159 c 0,7,8
 223 308 223 308 223 538 c 0,9,10
 223 733 223 733 304 933 c 0,11,12
 422 1225 422 1225 659 1387 c 0,13,14
 850 1518 850 1518 1102 1518 c 0,15,16
 1246 1518 1246 1518 1372 1471 c 0,17,18
 1544 1408 1544 1408 1632 1238 c 0,19,20
 1702 1104 1702 1104 1702 927 c 0,21,22
 1702 832 1702 832 1681 735 c 0,23,24
 1650 588 1650 588 1574.5 445 c 128,-1,25
 1499 302 1499 302 1404 211 c 1,0,-1
1237 409 m 1,26,27
 1308 499 1308 499 1352.5 633.5 c 128,-1,28
 1397 768 1397 768 1397 894 c 0,29,30
 1397 960 1397 960 1382 1020 c 0,31,32
 1353 1138 1353 1138 1261 1201 c 0,33,34
 1180 1256 1180 1256 1061 1256 c 0,35,36
 976 1256 976 1256 902 1228 c 0,37,38
 731 1163 731 1163 626 966 c 0,39,40
 528 781 528 781 528 577 c 0,41,42
 528 511 528 511 543 452 c 0,43,44
 574 323 574 323 679 260 c 0,45,46
 755 215 755 215 857 215 c 0,47,48
 958 215 958 215 1038 253 c 1,49,-1
 911 404 l 1,50,-1
 1103 569 l 1,51,-1
 1237 409 l 1,26,27
EndSplineSet
EndChar

StartChar: R
Encoding: 82 82 51
Width: 1479
GlyphClass: 2
Flags: W
LayerCount: 2
Fore
SplineSet
597 592 m 1,0,-1
 471 0 l 1,1,-1
 164 0 l 1,2,-1
 481 1493 l 1,3,-1
 1254 1493 l 2,4,5
 1426 1493 1426 1493 1520 1399 c 0,6,7
 1608 1311 1608 1311 1608 1185 c 0,8,9
 1608 1100 1608 1100 1572 1011.5 c 128,-1,10
 1536 923 1536 923 1477 861 c 0,11,12
 1411 792 1411 792 1267 720 c 1,13,14
 1426 670 1426 670 1426 553 c 0,15,16
 1426 489 1426 489 1368 178 c 0,17,18
 1362 146 1362 146 1362 126 c 0,19,20
 1362 111 1362 111 1366 97 c 0,21,22
 1374 75 1374 75 1399 56 c 1,23,-1
 1387 0 l 1,24,-1
 1060 0 l 1,25,26
 1045 49 1045 49 1045 84 c 0,27,28
 1045 159 1045 159 1098 355 c 0,29,30
 1123 448 1123 448 1123 479 c 0,31,32
 1123 517 1123 517 1100 545 c 0,33,34
 1060 592 1060 592 949 592 c 2,35,-1
 597 592 l 1,0,-1
651 848 m 1,36,-1
 1021 848 l 2,37,38
 1099 848 1099 848 1150.5 867.5 c 128,-1,39
 1202 887 1202 887 1242 931 c 0,40,41
 1303 1000 1303 1000 1303 1094 c 0,42,43
 1303 1112 1303 1112 1299 1129 c 0,44,45
 1284 1185 1284 1185 1231 1211 c 128,-1,46
 1178 1237 1178 1237 1077 1237 c 2,47,-1
 734 1237 l 1,48,-1
 651 848 l 1,36,-1
EndSplineSet
EndChar

StartChar: S
Encoding: 83 83 52
Width: 1366
GlyphClass: 2
Flags: W
LayerCount: 2
Fore
SplineSet
1469 1038 m 1,0,-1
 1182 1038 l 1,1,2
 1186 1068 1186 1068 1186 1085 c 0,3,4
 1186 1116 1186 1116 1173 1145 c 0,5,6
 1124 1256 1124 1256 916 1256 c 0,7,8
 787 1256 787 1256 709 1208 c 0,9,10
 666 1181 666 1181 640.5 1136.5 c 128,-1,11
 615 1092 615 1092 615 1041 c 0,12,13
 615 969 615 969 696 938 c 0,14,15
 759 913 759 913 862 893 c 2,16,-1
 1087 848 l 2,17,18
 1407 784 1407 784 1407 542 c 0,19,20
 1407 441 1407 441 1369 337.5 c 128,-1,21
 1331 234 1331 234 1267 160 c 0,22,23
 1085 -48 1085 -48 707 -48 c 0,24,25
 572 -48 572 -48 455 -17 c 0,26,27
 318 20 318 20 237 120.5 c 128,-1,28
 156 221 156 221 156 356 c 0,29,30
 156 394 156 394 165 446 c 1,31,-1
 464 446 l 1,32,33
 460 417 460 417 460 400 c 0,34,35
 460 367 460 367 474 335 c 0,36,37
 527 214 527 214 751 214 c 0,38,39
 814 214 814 214 875 226 c 0,40,41
 992 248 992 248 1049 310 c 0,42,43
 1102 367 1102 367 1102 442 c 0,44,45
 1102 476 1102 476 1089 503 c 0,46,47
 1071 544 1071 544 1018.5 569.5 c 128,-1,48
 966 595 966 595 856 617 c 2,49,-1
 657 656 l 2,50,51
 489 690 489 690 408 751 c 0,52,53
 310 825 310 825 310 966 c 0,54,55
 310 1079 310 1079 365 1192 c 0,56,57
 441 1352 441 1352 595.5 1435 c 128,-1,58
 750 1518 750 1518 970 1518 c 0,59,60
 1207 1518 1207 1518 1345 1427 c 0,61,62
 1485 1336 1485 1336 1485 1165 c 0,63,64
 1485 1112 1485 1112 1469 1038 c 1,0,-1
EndSplineSet
EndChar

StartChar: T
Encoding: 84 84 53
Width: 1251
GlyphClass: 2
Flags: W
LayerCount: 2
Fore
SplineSet
1052 1237 m 1,0,-1
 789 0 l 1,1,-1
 482 0 l 1,2,-1
 745 1237 l 1,3,-1
 291 1237 l 1,4,-1
 345 1493 l 1,5,-1
 1542 1493 l 1,6,-1
 1488 1237 l 1,7,-1
 1052 1237 l 1,0,-1
EndSplineSet
EndChar

StartChar: U
Encoding: 85 85 54
Width: 1479
GlyphClass: 2
Flags: W
LayerCount: 2
Fore
SplineSet
1350 1493 m 1,0,-1
 1657 1493 l 1,1,-1
 1442 481 l 2,2,3
 1390 238 1390 238 1222 105 c 0,4,5
 1029 -47 1029 -47 749 -47 c 0,6,7
 616 -47 616 -47 496 -4 c 0,8,9
 350 48 350 48 287 165 c 0,10,11
 244 245 244 245 244 342 c 0,12,13
 244 368 244 368 247 401 c 0,14,15
 253 457 253 457 267 522 c 2,16,-1
 473 1493 l 1,17,-1
 781 1493 l 1,18,-1
 565 481 l 2,19,20
 555 432 555 432 555 389 c 0,21,22
 555 319 555 319 599 278 c 0,23,24
 667 215 667 215 806 215 c 0,25,26
 947 215 947 215 1026.5 279 c 128,-1,27
 1106 343 1106 343 1135 481 c 2,28,-1
 1350 1493 l 1,0,-1
EndSplineSet
EndChar

StartChar: V
Encoding: 86 86 55
Width: 1366
GlyphClass: 2
Flags: W
LayerCount: 2
Fore
SplineSet
819 0 m 1,0,-1
 560 0 l 1,1,-1
 367 1493 l 1,2,-1
 675 1493 l 1,3,-1
 768 368 l 1,4,-1
 1333 1493 l 1,5,-1
 1643 1493 l 1,6,-1
 819 0 l 1,0,-1
EndSplineSet
EndChar

StartChar: W
Encoding: 87 87 56
Width: 1933
GlyphClass: 2
Flags: W
LayerCount: 2
Fore
SplineSet
1496 0 m 1,0,-1
 1219 0 l 1,1,-1
 1210 1137 l 1,2,-1
 725 0 l 1,3,-1
 448 0 l 1,4,-1
 344 1493 l 1,5,-1
 669 1493 l 1,6,-1
 664 374 l 1,7,-1
 1123 1493 l 1,8,-1
 1447 1493 l 1,9,-1
 1440 370 l 1,10,-1
 1901 1493 l 1,11,-1
 2226 1493 l 1,12,-1
 1496 0 l 1,0,-1
EndSplineSet
EndChar

StartChar: X
Encoding: 88 88 57
Width: 1366
GlyphClass: 2
Flags: W
LayerCount: 2
Fore
SplineSet
1022 761 m 1,0,-1
 1341 0 l 1,1,-1
 976 0 l 1,2,-1
 791 509 l 1,3,-1
 403 0 l 1,4,-1
 45 0 l 1,5,-1
 679 752 l 1,6,-1
 382 1493 l 1,7,-1
 747 1493 l 1,8,-1
 910 1010 l 1,9,-1
 1284 1493 l 1,10,-1
 1642 1493 l 1,11,-1
 1022 761 l 1,0,-1
EndSplineSet
EndChar

StartChar: Y
Encoding: 89 89 58
Width: 1366
GlyphClass: 2
Flags: W
LayerCount: 2
Fore
SplineSet
977 553 m 1,0,-1
 859 0 l 1,1,-1
 552 0 l 1,2,-1
 670 553 l 1,3,-1
 373 1493 l 1,4,-1
 716 1493 l 1,5,-1
 884 848 l 1,6,-1
 1306 1493 l 1,7,-1
 1649 1493 l 1,8,-1
 977 553 l 1,0,-1
EndSplineSet
EndChar

StartChar: Z
Encoding: 90 90 59
Width: 1251
GlyphClass: 2
Flags: W
LayerCount: 2
Fore
SplineSet
1501 1493 m 1,0,-1
 1446 1237 l 1,1,-1
 475 256 l 1,2,-1
 1238 256 l 1,3,-1
 1183 0 l 1,4,-1
 61 0 l 1,5,-1
 115 256 l 1,6,-1
 1087 1237 l 1,7,-1
 324 1237 l 1,8,-1
 378 1493 l 1,9,-1
 1501 1493 l 1,0,-1
EndSplineSet
EndChar

StartChar: bracketleft
Encoding: 91 91 60
Width: 682
GlyphClass: 2
Flags: W
LayerCount: 2
Fore
SplineSet
948 1493 m 1,0,-1
 904 1288 l 1,1,-1
 672 1288 l 1,2,-1
 357 -205 l 1,3,-1
 588 -205 l 1,4,-1
 544 -410 l 1,5,-1
 47 -410 l 1,6,-1
 451 1493 l 1,7,-1
 948 1493 l 1,0,-1
EndSplineSet
EndChar

StartChar: backslash
Encoding: 92 92 61
Width: 569
GlyphClass: 2
Flags: W
LayerCount: 2
Fore
SplineSet
283 1452 m 1,0,-1
 435 1452 l 1,1,-1
 584 -47 l 1,2,-1
 431 -47 l 1,3,-1
 283 1452 l 1,0,-1
EndSplineSet
EndChar

StartChar: bracketright
Encoding: 93 93 62
Width: 682
GlyphClass: 2
Flags: W
LayerCount: 2
Fore
SplineSet
-51 -410 m 1,0,-1
 -7 -205 l 1,1,-1
 225 -205 l 1,2,-1
 540 1288 l 1,3,-1
 309 1288 l 1,4,-1
 353 1493 l 1,5,-1
 850 1493 l 1,6,-1
 446 -410 l 1,7,-1
 -51 -410 l 1,0,-1
EndSplineSet
EndChar

StartChar: asciicircum
Encoding: 94 94 63
Width: 1196
GlyphClass: 2
Flags: W
LayerCount: 2
Fore
SplineSet
1188 553 m 1,0,-1
 957 553 l 1,1,-1
 837 1167 l 1,2,-1
 474 553 l 1,3,-1
 244 553 l 1,4,-1
 767 1423 l 1,5,-1
 1023 1423 l 1,6,-1
 1188 553 l 1,0,-1
EndSplineSet
EndChar

StartChar: underscore
Encoding: 95 95 64
Width: 1139
GlyphClass: 2
Flags: W
LayerCount: 2
Fore
SplineSet
1127 -156 m 1,0,-1
 1096 -297 l 1,1,-1
 -133 -297 l 1,2,-1
 -103 -156 l 1,3,-1
 1127 -156 l 1,0,-1
EndSplineSet
EndChar

StartChar: grave
Encoding: 96 96 65
Width: 682
GlyphClass: 2
Flags: W
LayerCount: 2
Fore
SplineSet
358 1550 m 1,0,-1
 602 1550 l 1,1,-1
 694 1243 l 1,2,-1
 564 1243 l 1,3,-1
 358 1550 l 1,0,-1
EndSplineSet
EndChar

StartChar: a
Encoding: 97 97 66
Width: 1139
GlyphClass: 2
Flags: W
LayerCount: 2
Fore
SplineSet
1079 35 m 1,0,-1
 1071 0 l 1,1,-1
 758 0 l 1,2,3
 743 29 743 29 743 54 c 0,4,5
 743 73 743 73 749 110 c 1,6,7
 575 -47 575 -47 408 -47 c 0,8,9
 275 -47 275 -47 199 16 c 0,10,11
 102 96 102 96 102 221 c 0,12,13
 102 313 102 313 149 400.5 c 128,-1,14
 196 488 196 488 277 546 c 0,15,16
 372 614 372 614 517 637 c 2,17,-1
 634 655 l 2,18,19
 744 671 744 671 767.5 676 c 128,-1,20
 791 681 791 681 823 698 c 0,21,22
 854 713 854 713 873 743 c 128,-1,23
 892 773 892 773 892 806 c 0,24,25
 892 827 892 827 883 845 c 0,26,27
 859 894 859 894 743 894 c 0,28,29
 711 894 711 894 679 889 c 0,30,31
 610 878 610 878 573 845.5 c 128,-1,32
 536 813 536 813 513 741 c 1,33,-1
 245 741 l 1,34,35
 288 941 288 941 418 1032.5 c 128,-1,36
 548 1124 548 1124 790 1124 c 0,37,38
 878 1124 878 1124 956 1109 c 0,39,40
 1096 1083 1096 1083 1152 985 c 0,41,42
 1183 929 1183 929 1183 877 c 0,43,44
 1183 837 1183 837 1171 783 c 2,45,-1
 1041 170 l 2,46,47
 1036 145 1036 145 1036 127 c 0,48,49
 1036 84 1036 84 1079 35 c 1,0,-1
835 521 m 1,50,51
 809 508 809 508 794.5 504 c 128,-1,52
 780 500 780 500 706 488 c 2,53,-1
 604 471 l 2,54,55
 489 451 489 451 438 394 c 0,56,57
 395 345 395 345 395 284 c 0,58,59
 395 182 395 182 544 182 c 0,60,61
 577 182 577 182 604 188 c 0,62,63
 684 205 684 205 740 271.5 c 128,-1,64
 796 338 796 338 818 443 c 2,65,-1
 835 521 l 1,50,51
EndSplineSet
Substitution2: "Single Substitution lookup 1 subtable" ordfeminine
EndChar

StartChar: b
Encoding: 98 98 67
Width: 1251
GlyphClass: 2
Flags: W
LayerCount: 2
Fore
SplineSet
438 1493 m 1,0,-1
 725 1493 l 1,1,-1
 612 962 l 1,2,3
 749 1124 749 1124 952 1124 c 0,4,5
 1120 1124 1120 1124 1218 1005 c 0,6,7
 1311 891 1311 891 1311 700 c 0,8,9
 1311 431 1311 431 1144 205 c 0,10,11
 1058 88 1058 88 946 22 c 0,12,13
 827 -47 827 -47 703 -47 c 0,14,15
 664 -47 664 -47 625 -40 c 0,16,17
 486 -14 486 -14 432 112 c 1,18,-1
 408 0 l 1,19,-1
 121 0 l 1,20,-1
 438 1493 l 1,0,-1
837 895 m 0,21,22
 779 895 779 895 730 868 c 0,23,24
 621 807 621 807 563 672 c 0,25,26
 508 544 508 544 508 413 c 0,27,28
 508 308 508 308 557 245 c 128,-1,29
 606 182 606 182 688 182 c 0,30,31
 747 182 747 182 797 209 c 0,32,33
 900 265 900 265 963 403 c 0,34,35
 1018 525 1018 525 1018 653 c 0,36,37
 1018 766 1018 766 969.5 830.5 c 128,-1,38
 921 895 921 895 837 895 c 0,21,22
EndSplineSet
EndChar

StartChar: c
Encoding: 99 99 68
Width: 1139
GlyphClass: 2
Flags: W
LayerCount: 2
Fore
SplineSet
1215 692 m 1,0,-1
 941 692 l 1,1,2
 939 789 939 789 917 826 c 0,3,4
 878 894 878 894 773 894 c 0,5,6
 716 894 716 894 668 873 c 0,7,8
 563 828 563 828 502 662 c 0,9,10
 451 526 451 526 451 393 c 0,11,12
 451 305 451 305 482 250 c 0,13,14
 499 220 499 220 541.5 201 c 128,-1,15
 584 182 584 182 634 182 c 0,16,17
 717 182 717 182 772 228 c 128,-1,18
 827 274 827 274 875 383 c 1,19,-1
 1149 383 l 1,20,21
 1096 216 1096 216 989 109 c 0,22,23
 832 -47 832 -47 597 -47 c 0,24,25
 371 -47 371 -47 259 77 c 0,26,27
 158 190 158 190 158 353 c 0,28,29
 158 513 158 513 228 692 c 0,30,31
 332 958 332 958 514 1055 c 0,32,33
 643 1124 643 1124 815 1124 c 0,34,35
 919 1124 919 1124 1000 1095 c 0,36,37
 1109 1055 1109 1055 1175 948 c 0,38,39
 1223 870 1223 870 1223 780 c 0,40,41
 1223 754 1223 754 1215 692 c 1,0,-1
EndSplineSet
EndChar

StartChar: d
Encoding: 100 100 69
Width: 1251
GlyphClass: 2
Flags: W
LayerCount: 2
Fore
SplineSet
830 0 m 1,0,-1
 854 112 l 1,1,2
 716 -47 716 -47 515 -47 c 0,3,4
 350 -47 350 -47 254 72 c 0,5,6
 211 124 211 124 186.5 206 c 128,-1,7
 162 288 162 288 162 379 c 0,8,9
 162 524 162 524 216 669 c 0,10,11
 300 897 300 897 446 1009 c 0,12,13
 595 1124 595 1124 763 1124 c 0,14,15
 802 1124 802 1124 841 1117 c 0,16,17
 915 1103 915 1103 960 1067 c 128,-1,18
 1005 1031 1005 1031 1034 962 c 1,19,-1
 1147 1493 l 1,20,-1
 1434 1493 l 1,21,-1
 1116 0 l 1,22,-1
 830 0 l 1,0,-1
779 895 m 0,23,24
 722 895 722 895 674 868 c 0,25,26
 571 810 571 810 510 672 c 0,27,28
 455 549 455 549 455 421 c 0,29,30
 455 345 455 345 483 281 c 0,31,32
 525 182 525 182 632 182 c 0,33,34
 691 182 691 182 740 209 c 0,35,36
 844 266 844 266 905 403 c 0,37,38
 959 527 959 527 959 661 c 0,39,40
 959 769 959 769 910.5 832 c 128,-1,41
 862 895 862 895 779 895 c 0,23,24
EndSplineSet
EndChar

StartChar: e
Encoding: 101 101 70
Width: 1139
GlyphClass: 2
Flags: W
LayerCount: 2
Fore
SplineSet
1174 463 m 1,0,-1
 429 463 l 1,1,2
 424 396 424 396 424 370 c 0,3,4
 424 352 424 352 426 336 c 0,5,6
 435 268 435 268 488 225 c 128,-1,7
 541 182 541 182 618 182 c 0,8,9
 692 182 692 182 754.5 217 c 128,-1,10
 817 252 817 252 847 311 c 1,11,-1
 1130 311 l 1,12,13
 1064 178 1064 178 954 87 c 0,14,15
 792 -47 792 -47 563 -47 c 0,16,17
 477 -47 477 -47 399 -21 c 0,18,19
 259 25 259 25 187 155 c 0,20,21
 131 254 131 254 131 378 c 0,22,23
 131 585 131 585 239 794 c 0,24,25
 293 897 293 897 355.5 960.5 c 128,-1,26
 418 1024 418 1024 508 1065 c 0,27,28
 635 1124 635 1124 776 1124 c 0,29,30
 921 1124 921 1124 1026 1063 c 0,31,32
 1111 1014 1111 1014 1161 915 c 0,33,34
 1210 819 1210 819 1210 718 c 0,35,36
 1210 600 1210 600 1174 463 c 1,0,-1
917 653 m 1,37,-1
 917 714 l 2,38,39
 917 786 917 786 880 833 c 0,40,41
 832 894 832 894 740 894 c 0,42,43
 608 894 608 894 528 790 c 0,44,45
 493 744 493 744 468 653 c 1,46,-1
 917 653 l 1,37,-1
EndSplineSet
EndChar

StartChar: f
Encoding: 102 102 71
Width: 682
GlyphClass: 2
Flags: W
LayerCount: 2
Fore
SplineSet
870 1083 m 1,0,-1
 830 893 l 1,1,-1
 661 893 l 1,2,-1
 471 0 l 1,3,-1
 184 0 l 1,4,-1
 374 893 l 1,5,-1
 217 893 l 1,6,-1
 258 1083 l 1,7,-1
 414 1083 l 1,8,-1
 443 1216 l 2,9,10
 473 1359 473 1359 557.5 1426 c 128,-1,11
 642 1493 642 1493 792 1493 c 0,12,13
 839 1493 839 1493 950 1487 c 1,14,-1
 904 1272 l 1,15,16
 844 1280 844 1280 819 1280 c 0,17,18
 798 1280 798 1280 781 1273 c 0,19,20
 738 1257 738 1257 724 1191 c 2,21,-1
 701 1083 l 1,22,-1
 870 1083 l 1,0,-1
EndSplineSet
EndChar

StartChar: g
Encoding: 103 103 72
Width: 1251
GlyphClass: 2
Flags: W
LayerCount: 2
Fore
SplineSet
1070 1106 m 1,0,-1
 1343 1106 l 1,1,-1
 1100 -36 l 2,2,3
 1056 -244 1056 -244 871 -355 c 0,4,5
 719 -446 719 -446 480 -446 c 0,6,7
 405 -446 405 -446 336 -437 c 0,8,9
 191 -417 191 -417 116 -340 c 0,10,11
 53 -275 53 -275 53 -196 c 0,12,13
 53 -172 53 -172 59 -133 c 1,14,-1
 355 -133 l 1,15,16
 353 -148 353 -148 353 -158 c 0,17,18
 353 -172 353 -172 358 -185 c 0,19,20
 372 -219 372 -219 419 -240.5 c 128,-1,21
 466 -262 466 -262 529 -262 c 0,22,23
 584 -262 584 -262 635 -245 c 0,24,25
 794 -193 794 -193 827 -37 c 2,26,-1
 859 113 l 1,27,28
 761 22 761 22 688 -12.5 c 128,-1,29
 615 -47 615 -47 519 -47 c 0,30,31
 451 -47 451 -47 400 -29 c 0,32,33
 293 9 293 9 227.5 111 c 128,-1,34
 162 213 162 213 162 341 c 0,35,36
 162 497 162 497 219 659 c 0,37,38
 315 929 315 929 502 1043 c 0,39,40
 635 1124 635 1124 774 1124 c 0,41,42
 813 1124 813 1124 851 1113 c 0,43,44
 970 1081 970 1081 1034 936 c 1,45,-1
 1070 1106 l 1,0,-1
776 895 m 0,46,47
 725 895 725 895 683 873 c 0,48,49
 579 818 579 818 515 677 c 0,50,51
 455 545 455 545 455 411 c 0,52,53
 455 289 455 289 512 229 c 0,54,55
 557 182 557 182 626 182 c 0,56,57
 677 182 677 182 724 202 c 0,58,59
 836 251 836 251 904 386 c 0,60,61
 964 507 964 507 964 645 c 0,62,63
 964 727 964 727 936 790 c 0,64,65
 889 895 889 895 776 895 c 0,46,47
EndSplineSet
EndChar

StartChar: h
Encoding: 104 104 73
Width: 1251
GlyphClass: 2
Flags: W
LayerCount: 2
Fore
SplineSet
454 1493 m 1,0,-1
 741 1493 l 1,1,-1
 623 937 l 1,2,3
 694 1022 694 1022 761 1061 c 0,4,5
 867 1124 867 1124 992 1124 c 0,6,7
 1132 1124 1132 1124 1216 1040 c 0,8,9
 1288 968 1288 968 1288 855 c 0,10,11
 1288 799 1288 799 1276 742 c 2,12,-1
 1118 0 l 1,13,-1
 831 0 l 1,14,-1
 968 641 l 2,15,16
 981 704 981 704 981 739 c 0,17,18
 981 771 981 771 973 800 c 0,19,20
 947 895 947 895 833 895 c 0,21,22
 794 895 794 895 758 884 c 0,23,24
 675 857 675 857 620 775 c 0,25,26
 574 707 574 707 556 623 c 2,27,-1
 424 0 l 1,28,-1
 137 0 l 1,29,-1
 454 1493 l 1,0,-1
EndSplineSet
EndChar

StartChar: i
Encoding: 105 105 74
Width: 569
GlyphClass: 2
Flags: W
LayerCount: 2
Fore
SplineSet
659 1106 m 1,0,-1
 424 0 l 1,1,-1
 137 0 l 1,2,-1
 372 1106 l 1,3,-1
 659 1106 l 1,0,-1
741 1493 m 1,4,-1
 687 1237 l 1,5,-1
 400 1237 l 1,6,-1
 454 1493 l 1,7,-1
 741 1493 l 1,4,-1
EndSplineSet
EndChar

StartChar: j
Encoding: 106 106 75
Width: 569
GlyphClass: 2
Flags: W
LayerCount: 2
Fore
SplineSet
748 1493 m 1,0,-1
 693 1237 l 1,1,-1
 406 1237 l 1,2,-1
 461 1493 l 1,3,-1
 748 1493 l 1,0,-1
666 1106 m 1,4,-1
 390 -192 l 2,5,6
 361 -326 361 -326 270 -386 c 128,-1,7
 179 -446 179 -446 4 -446 c 0,8,9
 -41 -446 -41 -446 -75 -439 c 0,10,11
 -78 -438 -78 -438 -88 -435 c 1,12,-1
 -39 -208 l 1,13,14
 -28 -217 -28 -217 12 -217 c 0,15,16
 26 -217 26 -217 41 -214 c 0,17,18
 75 -207 75 -207 91.5 -188.5 c 128,-1,19
 108 -170 108 -170 117 -127 c 2,20,-1
 379 1106 l 1,21,-1
 666 1106 l 1,4,-1
EndSplineSet
EndChar

StartChar: k
Encoding: 107 107 76
Width: 1139
GlyphClass: 2
Flags: W
LayerCount: 2
Fore
SplineSet
725 1493 m 1,0,-1
 551 676 l 1,1,-1
 1007 1106 l 1,2,-1
 1333 1106 l 1,3,-1
 859 685 l 1,4,-1
 1122 0 l 1,5,-1
 786 0 l 1,6,-1
 625 490 l 1,7,-1
 485 363 l 1,8,-1
 408 0 l 1,9,-1
 121 0 l 1,10,-1
 438 1493 l 1,11,-1
 725 1493 l 1,0,-1
EndSplineSet
EndChar

StartChar: l
Encoding: 108 108 77
Width: 569
GlyphClass: 2
Flags: W
LayerCount: 2
Fore
SplineSet
741 1493 m 1,0,-1
 424 0 l 1,1,-1
 137 0 l 1,2,-1
 454 1493 l 1,3,-1
 741 1493 l 1,0,-1
EndSplineSet
EndChar

StartChar: m
Encoding: 109 109 78
Width: 1821
GlyphClass: 2
Flags: W
LayerCount: 2
Fore
SplineSet
358 1106 m 1,0,-1
 643 1106 l 1,1,-1
 608 940 l 1,2,3
 676 1015 676 1015 729 1052 c 0,4,5
 832 1124 832 1124 959 1124 c 0,6,7
 995 1124 995 1124 1029 1118 c 0,8,9
 1096 1105 1096 1105 1146 1061.5 c 128,-1,10
 1196 1018 1196 1018 1213 957 c 1,11,12
 1375 1124 1375 1124 1576 1124 c 0,13,14
 1709 1124 1709 1124 1777 1067 c 0,15,16
 1866 993 1866 993 1866 865 c 0,17,18
 1866 826 1866 826 1859 786 c 0,19,20
 1856 773 1856 773 1849 742 c 2,21,-1
 1692 0 l 1,22,-1
 1405 0 l 1,23,-1
 1553 695 l 2,24,25
 1563 743 1563 743 1563 779 c 0,26,27
 1563 802 1563 802 1556 825 c 0,28,29
 1534 895 1534 895 1444 895 c 0,30,31
 1393 895 1393 895 1353 879 c 0,32,33
 1227 831 1227 831 1192 664 c 2,34,-1
 1051 0 l 1,35,-1
 764 0 l 1,36,-1
 915 709 l 2,37,38
 923 748 923 748 923 776 c 0,39,40
 923 793 923 793 919 809 c 0,41,42
 897 895 897 895 794 895 c 0,43,44
 705 895 705 895 639.5 833 c 128,-1,45
 574 771 574 771 551 664 c 2,46,-1
 410 0 l 1,47,-1
 123 0 l 1,48,-1
 358 1106 l 1,0,-1
EndSplineSet
EndChar

StartChar: n
Encoding: 110 110 79
Width: 1251
GlyphClass: 2
Flags: W
LayerCount: 2
Fore
SplineSet
364 1106 m 1,0,-1
 651 1106 l 1,1,-1
 615 937 l 1,2,3
 686 1022 686 1022 753 1061 c 0,4,5
 859 1124 859 1124 988 1124 c 0,6,7
 1050 1124 1050 1124 1104 1108 c 0,8,9
 1189 1082 1189 1082 1238.5 1014 c 128,-1,10
 1288 946 1288 946 1288 855 c 0,11,12
 1288 799 1288 799 1276 742 c 2,13,-1
 1118 0 l 1,14,-1
 831 0 l 1,15,-1
 968 641 l 2,16,17
 981 703 981 703 981 742 c 0,18,19
 981 778 981 778 970 809 c 0,20,21
 941 895 941 895 830 895 c 0,22,23
 712 895 712 895 636 807 c 0,24,25
 571 732 571 732 548 623 c 2,26,-1
 416 0 l 1,27,-1
 129 0 l 1,28,-1
 364 1106 l 1,0,-1
EndSplineSet
EndChar

StartChar: o
Encoding: 111 111 80
Width: 1251
GlyphClass: 2
Flags: W
LayerCount: 2
Fore
SplineSet
846 1124 m 0,0,1
 970 1124 970 1124 1072 1081 c 0,2,3
 1179 1036 1179 1036 1237 945 c 0,4,5
 1298 849 1298 849 1298 714 c 0,6,7
 1298 581 1298 581 1253.5 441 c 128,-1,8
 1209 301 1209 301 1137 205 c 0,9,10
 948 -47 948 -47 613 -47 c 0,11,12
 517 -47 517 -47 429.5 -17 c 128,-1,13
 342 13 342 13 285 65 c 0,14,15
 168 172 168 172 168 362 c 0,16,17
 168 495 168 495 212 635 c 128,-1,18
 256 775 256 775 329 872 c 0,19,20
 517 1124 517 1124 846 1124 c 0,0,1
801 895 m 0,21,22
 739 895 739 895 683 866 c 0,23,24
 572 808 572 808 511 663 c 0,25,26
 461 543 461 543 461 420 c 0,27,28
 461 344 461 344 488 287 c 0,29,30
 510 240 510 240 558.5 211 c 128,-1,31
 607 182 607 182 663 182 c 0,32,33
 726 182 726 182 783 211 c 0,34,35
 893 268 893 268 955 414 c 0,36,37
 1005 533 1005 533 1005 655 c 0,38,39
 1005 733 1005 733 978 790 c 0,40,41
 955 837 955 837 906.5 866 c 128,-1,42
 858 895 858 895 801 895 c 0,21,22
EndSplineSet
Substitution2: "Single Substitution lookup 1 subtable" ordmasculine
EndChar

StartChar: p
Encoding: 112 112 81
Width: 1251
GlyphClass: 2
Flags: W
LayerCount: 2
Fore
SplineSet
640 1106 m 1,0,-1
 605 943 l 1,1,2
 745 1124 745 1124 949 1124 c 0,3,4
 1106 1124 1106 1124 1204 1017 c 0,5,6
 1305 906 1305 906 1305 701 c 0,7,8
 1305 618 1305 618 1289 535 c 0,9,10
 1242 289 1242 289 1086 123 c 0,11,12
 926 -47 926 -47 706 -47 c 0,13,14
 598 -47 598 -47 531.5 -3.5 c 128,-1,15
 465 40 465 40 432 131 c 1,16,-1
 310 -445 l 1,17,-1
 23 -445 l 1,18,-1
 353 1106 l 1,19,-1
 640 1106 l 1,0,-1
831 895 m 0,20,21
 773 895 773 895 725 868 c 0,22,23
 619 809 619 809 559 672 c 0,24,25
 504 548 504 548 504 413 c 0,26,27
 504 308 504 308 553 245 c 128,-1,28
 602 182 602 182 683 182 c 0,29,30
 743 182 743 182 792 209 c 0,31,32
 897 266 897 266 957 403 c 0,33,34
 1012 526 1012 526 1012 661 c 0,35,36
 1012 769 1012 769 963 832 c 128,-1,37
 914 895 914 895 831 895 c 0,20,21
EndSplineSet
EndChar

StartChar: q
Encoding: 113 113 82
Width: 1251
GlyphClass: 2
Flags: W
LayerCount: 2
Fore
SplineSet
1062 1106 m 1,0,-1
 1349 1106 l 1,1,-1
 1019 -445 l 1,2,-1
 733 -445 l 1,3,-1
 855 131 l 1,4,5
 716 -47 716 -47 509 -47 c 0,6,7
 346 -47 346 -47 242 69 c 0,8,9
 147 176 147 176 147 370 c 0,10,11
 147 522 147 522 203 673 c 0,12,13
 288 900 288 900 437 1013 c 0,14,15
 585 1124 585 1124 755 1124 c 0,16,17
 799 1124 799 1124 837 1116 c 0,18,19
 979 1084 979 1084 1028 943 c 1,20,-1
 1062 1106 l 1,0,-1
771 895 m 0,21,22
 713 895 713 895 664 868 c 0,23,24
 557 809 557 809 495 672 c 0,25,26
 440 548 440 548 440 415 c 0,27,28
 440 344 440 344 468 281 c 0,29,30
 513 182 513 182 621 182 c 0,31,32
 682 182 682 182 731 209 c 0,33,34
 841 268 841 268 899 403 c 0,35,36
 954 532 954 532 954 664 c 0,37,38
 954 770 954 770 904.5 832.5 c 128,-1,39
 855 895 855 895 771 895 c 0,21,22
EndSplineSet
EndChar

StartChar: r
Encoding: 114 114 83
Width: 797
GlyphClass: 2
Flags: W
LayerCount: 2
Fore
SplineSet
364 1106 m 1,0,-1
 651 1106 l 1,1,-1
 605 889 l 1,2,3
 668 988 668 988 747 1046 c 0,4,5
 853 1124 853 1124 963 1124 c 0,6,7
 975 1124 975 1124 983 1123 c 0,8,9
 988 1123 988 1123 997 1122 c 1,10,-1
 936 832 l 1,11,12
 889 839 889 839 849 839 c 0,13,14
 786 839 786 839 737 826 c 0,15,16
 665 806 665 806 613 743 c 128,-1,17
 561 680 561 680 541 588 c 2,18,-1
 416 0 l 1,19,-1
 129 0 l 1,20,-1
 364 1106 l 1,0,-1
EndSplineSet
EndChar

StartChar: s
Encoding: 115 115 84
Width: 1139
GlyphClass: 2
Flags: W
LayerCount: 2
Fore
SplineSet
1196 750 m 1,0,-1
 919 750 l 1,1,2
 925 773 925 773 925 788 c 0,3,4
 925 839 925 839 877.5 867 c 128,-1,5
 830 895 830 895 744 895 c 0,6,7
 707 895 707 895 670 887 c 0,8,9
 565 864 565 864 565 787 c 0,10,11
 565 775 565 775 569 765 c 0,12,13
 578 744 578 744 605 729 c 128,-1,14
 632 714 632 714 699 695 c 2,15,-1
 896 637 l 2,16,17
 1145 563 1145 563 1145 384 c 0,18,19
 1145 206 1145 206 1018 91 c 0,20,21
 863 -47 863 -47 576 -47 c 0,22,23
 389 -47 389 -47 272 20 c 0,24,25
 205 59 205 59 164 125.5 c 128,-1,26
 123 192 123 192 123 261 c 0,27,28
 123 277 123 277 126 295 c 0,29,30
 127 304 127 304 131 322 c 1,31,-1
 411 322 l 1,32,33
 420 182 420 182 629 182 c 0,34,35
 672 182 672 182 713 190 c 0,36,37
 772 201 772 201 807 229.5 c 128,-1,38
 842 258 842 258 842 295 c 0,39,40
 842 331 842 331 812.5 351.5 c 128,-1,41
 783 372 783 372 686 403 c 2,42,-1
 525 454 l 2,43,44
 389 497 389 497 324.5 558.5 c 128,-1,45
 260 620 260 620 260 706 c 0,46,47
 260 783 260 783 299 864 c 0,48,49
 424 1124 424 1124 792 1124 c 0,50,51
 878 1124 878 1124 959 1106 c 0,52,53
 1086 1077 1086 1077 1147 997 c 0,54,55
 1206 921 1206 921 1206 828 c 0,56,57
 1206 804 1206 804 1201 777 c 0,58,59
 1200 768 1200 768 1196 750 c 1,0,-1
EndSplineSet
EndChar

StartChar: t
Encoding: 116 116 85
Width: 682
GlyphClass: 2
Flags: W
LayerCount: 2
Fore
SplineSet
848 1083 m 1,0,-1
 808 893 l 1,1,-1
 648 893 l 1,2,-1
 520 290 l 2,3,4
 509 241 509 241 509 221 c 0,5,6
 509 215 509 215 512 207 c 0,7,8
 524 170 524 170 586 170 c 0,9,10
 611 170 611 170 633 173 c 2,11,-1
 654 176 l 1,12,-1
 612 -24 l 1,13,14
 533 -47 533 -47 439 -47 c 0,15,16
 383 -47 383 -47 335 -35 c 0,17,18
 275 -19 275 -19 241 24.5 c 128,-1,19
 207 68 207 68 207 129 c 0,20,21
 207 169 207 169 217 214 c 2,22,-1
 361 893 l 1,23,-1
 219 893 l 1,24,-1
 259 1083 l 1,25,-1
 401 1083 l 1,26,-1
 465 1380 l 1,27,-1
 751 1380 l 1,28,-1
 688 1083 l 1,29,-1
 848 1083 l 1,0,-1
EndSplineSet
EndChar

StartChar: u
Encoding: 117 117 86
Width: 1251
GlyphClass: 2
Flags: W
LayerCount: 2
Fore
SplineSet
1108 0 m 1,0,-1
 821 0 l 1,1,-1
 851 140 l 1,2,3
 780 55 780 55 714 16 c 0,4,5
 606 -47 606 -47 479 -47 c 0,6,7
 419 -47 419 -47 364 -31 c 0,8,9
 279 -5 279 -5 229.5 63 c 128,-1,10
 180 131 180 131 180 222 c 0,11,12
 180 278 180 278 192 336 c 2,13,-1
 356 1106 l 1,14,-1
 643 1106 l 1,15,-1
 500 437 l 2,16,17
 487 374 487 374 487 336 c 0,18,19
 487 182 487 182 642 182 c 0,20,21
 754 182 754 182 830 270 c 0,22,23
 895 345 895 345 918 455 c 2,24,-1
 1057 1106 l 1,25,-1
 1343 1106 l 1,26,-1
 1108 0 l 1,0,-1
EndSplineSet
EndChar

StartChar: v
Encoding: 118 118 87
Width: 1139
GlyphClass: 2
Flags: W
LayerCount: 2
Fore
SplineSet
717 0 m 1,0,-1
 415 0 l 1,1,-1
 264 1106 l 1,2,-1
 568 1106 l 1,3,-1
 629 296 l 1,4,-1
 1031 1106 l 1,5,-1
 1333 1106 l 1,6,-1
 717 0 l 1,0,-1
EndSplineSet
EndChar

StartChar: w
Encoding: 119 119 88
Width: 1593
GlyphClass: 2
Flags: W
LayerCount: 2
Fore
SplineSet
1264 0 m 1,0,-1
 968 0 l 1,1,-1
 958 777 l 1,2,-1
 618 0 l 1,3,-1
 323 0 l 1,4,-1
 246 1106 l 1,5,-1
 543 1106 l 1,6,-1
 554 332 l 1,7,-1
 879 1106 l 1,8,-1
 1174 1106 l 1,9,-1
 1175 332 l 1,10,-1
 1508 1106 l 1,11,-1
 1805 1106 l 1,12,-1
 1264 0 l 1,0,-1
EndSplineSet
EndChar

StartChar: x
Encoding: 120 120 89
Width: 1139
GlyphClass: 2
Flags: W
LayerCount: 2
Fore
SplineSet
842 561 m 1,0,-1
 1094 0 l 1,1,-1
 750 0 l 1,2,-1
 629 344 l 1,3,-1
 377 0 l 1,4,-1
 33 0 l 1,5,-1
 510 561 l 1,6,-1
 283 1106 l 1,7,-1
 627 1106 l 1,8,-1
 732 771 l 1,9,-1
 983 1106 l 1,10,-1
 1327 1106 l 1,11,-1
 842 561 l 1,0,-1
EndSplineSet
EndChar

StartChar: y
Encoding: 121 121 90
Width: 1139
GlyphClass: 2
Flags: W
LayerCount: 2
Fore
SplineSet
1043 1106 m 1,0,-1
 1338 1106 l 1,1,-1
 604 -201 l 2,2,3
 549 -300 549 -300 506 -343.5 c 128,-1,4
 463 -387 463 -387 397 -413 c 0,5,6
 304 -448 304 -448 166 -448 c 0,7,8
 121 -448 121 -448 91 -442 c 0,9,10
 88 -442 88 -442 76 -439 c 1,11,-1
 124 -216 l 1,12,13
 153 -221 153 -221 180 -221 c 0,14,15
 269 -221 269 -221 322 -188 c 0,16,17
 411 -134 411 -134 411 -31 c 0,18,19
 411 -15 411 -15 409 0 c 2,20,-1
 254 1106 l 1,21,-1
 569 1106 l 1,22,-1
 643 301 l 1,23,-1
 1043 1106 l 1,0,-1
EndSplineSet
EndChar

StartChar: z
Encoding: 122 122 91
Width: 1024
GlyphClass: 2
Flags: W
LayerCount: 2
Fore
SplineSet
1178 1106 m 1,0,-1
 1128 875 l 1,1,-1
 448 231 l 1,2,-1
 1009 231 l 1,3,-1
 960 0 l 1,4,-1
 43 0 l 1,5,-1
 92 231 l 1,6,-1
 776 875 l 1,7,-1
 267 875 l 1,8,-1
 316 1106 l 1,9,-1
 1178 1106 l 1,0,-1
EndSplineSet
EndChar

StartChar: braceleft
Encoding: 123 123 92
Width: 797
GlyphClass: 2
Flags: W
LayerCount: 2
Fore
SplineSet
967 1493 m 1,0,-1
 924 1290 l 1,1,-1
 848 1290 l 2,2,3
 792 1290 792 1290 769 1267.5 c 128,-1,4
 746 1245 746 1245 731 1174 c 2,5,-1
 646 774 l 2,6,7
 616 634 616 634 525 584 c 0,8,9
 487 563 487 563 400 550 c 1,10,11
 462 540 462 540 491 527 c 0,12,13
 560 497 560 497 560 410 c 0,14,15
 560 370 560 370 551 325 c 2,16,-1
 466 -73 l 2,17,18
 454 -129 454 -129 454 -155 c 0,19,20
 454 -165 454 -165 460 -177 c 0,21,22
 474 -207 474 -207 534 -207 c 2,23,-1
 605 -207 l 1,24,-1
 562 -410 l 1,25,-1
 406 -410 l 2,26,27
 317 -410 317 -410 262 -353 c 128,-1,28
 207 -296 207 -296 207 -204 c 0,29,30
 207 -162 207 -162 215 -123 c 2,31,-1
 307 308 l 2,32,33
 315 346 315 346 315 377 c 0,34,35
 315 414 315 414 286 434.5 c 128,-1,36
 257 455 257 455 206 455 c 0,37,38
 180 455 180 455 172 456 c 1,39,-1
 212 644 l 1,40,41
 219 644 219 644 246 645 c 0,42,43
 379 647 379 647 406 774 c 2,44,-1
 498 1206 l 2,45,46
 534 1377 534 1377 648 1447 c 0,47,48
 721 1493 721 1493 811 1493 c 2,49,-1
 967 1493 l 1,0,-1
EndSplineSet
EndChar

StartChar: bar
Encoding: 124 124 93
Width: 573
GlyphClass: 2
Flags: W
LayerCount: 2
Fore
SplineSet
686 1493 m 1,0,-1
 281 -410 l 1,1,-1
 117 -410 l 1,2,-1
 523 1493 l 1,3,-1
 686 1493 l 1,0,-1
EndSplineSet
EndChar

StartChar: braceright
Encoding: 125 125 94
Width: 797
GlyphClass: 2
Flags: W
LayerCount: 2
Fore
SplineSet
59 -410 m 1,0,-1
 102 -207 l 1,1,-1
 180 -207 l 2,2,3
 236 -207 236 -207 259 -184.5 c 128,-1,4
 282 -162 282 -162 297 -91 c 2,5,-1
 381 309 l 2,6,7
 411 449 411 449 502 499 c 0,8,9
 541 520 541 520 628 533 c 1,10,11
 566 543 566 543 536 556 c 0,12,13
 467 587 467 587 467 673 c 0,14,15
 467 710 467 710 477 758 c 2,16,-1
 562 1156 l 2,17,18
 574 1213 574 1213 574 1238 c 0,19,20
 574 1248 574 1248 568 1260 c 0,21,22
 554 1290 554 1290 494 1290 c 2,23,-1
 420 1290 l 1,24,-1
 463 1493 l 1,25,-1
 621 1493 l 2,26,27
 711 1493 711 1493 766 1436 c 128,-1,28
 821 1379 821 1379 821 1287 c 0,29,30
 821 1246 821 1246 812 1206 c 2,31,-1
 721 775 l 2,32,33
 712 734 712 734 712 706 c 0,34,35
 712 693 712 693 717 680 c 0,36,37
 737 628 737 628 822 628 c 0,38,39
 850 628 850 628 858 627 c 1,40,-1
 818 439 l 1,41,42
 811 439 811 439 782 438 c 0,43,44
 649 436 649 436 622 309 c 2,45,-1
 530 -123 l 2,46,47
 493 -294 493 -294 380 -364 c 0,48,49
 307 -410 307 -410 217 -410 c 2,50,-1
 59 -410 l 1,0,-1
EndSplineSet
EndChar

StartChar: asciitilde
Encoding: 126 126 95
Width: 1196
GlyphClass: 2
Flags: W
LayerCount: 2
Fore
SplineSet
1190 843 m 1,0,1
 1155 695 1155 695 1073 621 c 0,2,3
 987 544 987 544 867 544 c 0,4,5
 770 544 770 544 709 597 c 2,6,-1
 610 684 l 2,7,8
 555 732 555 732 495 732 c 0,9,10
 437 732 437 732 408 704 c 128,-1,11
 379 676 379 676 358 599 c 1,12,-1
 199 599 l 1,13,14
 280 896 280 896 524 896 c 0,15,16
 557 896 557 896 588 890 c 0,17,18
 641 879 641 879 680 845 c 2,19,-1
 780 758 l 2,20,21
 837 708 837 708 895 708 c 0,22,23
 924 708 924 708 948 717 c 0,24,25
 981 730 981 730 997.5 754.5 c 128,-1,26
 1014 779 1014 779 1032 843 c 1,27,-1
 1190 843 l 1,0,1
EndSplineSet
EndChar

StartChar: exclamdown
Encoding: 161 161 97
Width: 682
GlyphClass: 2
Flags: W
LayerCount: 2
Fore
SplineSet
53 -381 m 1,0,-1
 144 49 l 1,1,-1
 364 682 l 1,2,-1
 502 682 l 1,3,-1
 452 49 l 1,4,-1
 360 -381 l 1,5,-1
 53 -381 l 1,0,-1
307 807 m 1,6,-1
 370 1106 l 1,7,-1
 678 1106 l 1,8,-1
 614 807 l 1,9,-1
 307 807 l 1,6,-1
EndSplineSet
EndChar

StartChar: cent
Encoding: 162 162 98
Width: 1139
GlyphClass: 2
Flags: W
LayerCount: 2
Fore
SplineSet
841 892 m 1,0,-1
 690 182 l 1,1,2
 753 198 753 198 794.5 243 c 128,-1,3
 836 288 836 288 877 383 c 1,4,-1
 1151 383 l 1,5,6
 1085 175 1085 175 937 62 c 0,7,8
 807 -37 807 -37 642 -46 c 1,9,-1
 597 -254 l 1,10,-1
 462 -254 l 1,11,-1
 508 -40 l 1,12,13
 439 -31 439 -31 390 -11 c 0,14,15
 296 27 296 27 236 112 c 0,16,17
 162 217 162 217 162 353 c 0,18,19
 162 540 162 540 254 744 c 0,20,21
 365 991 365 991 557 1073 c 0,22,23
 650 1113 650 1113 755 1121 c 1,24,-1
 792 1298 l 1,25,-1
 927 1298 l 1,26,-1
 889 1120 l 1,27,28
 956 1113 956 1113 1002 1094 c 0,29,30
 1114 1051 1114 1051 1177 948 c 0,31,32
 1225 869 1225 869 1225 780 c 0,33,34
 1225 756 1225 756 1217 692 c 1,35,-1
 943 692 l 1,36,37
 941 789 941 789 919.5 830.5 c 128,-1,38
 898 872 898 872 841 892 c 1,0,-1
706 892 m 1,39,40
 625 868 625 868 579 805 c 0,41,42
 523 729 523 729 489 615.5 c 128,-1,43
 455 502 455 502 455 392 c 0,44,45
 455 300 455 300 487 246 c 0,46,47
 505 214 505 214 557 191 c 1,48,-1
 706 892 l 1,39,40
EndSplineSet
EndChar

StartChar: sterling
Encoding: 163 163 99
Width: 1139
GlyphClass: 2
Flags: W
LayerCount: 2
Fore
SplineSet
931 760 m 1,0,-1
 907 647 l 1,1,-1
 658 647 l 1,2,3
 661 614 661 614 661 595 c 0,4,5
 661 560 661 560 653 525 c 0,6,7
 633 434 633 434 565.5 356.5 c 128,-1,8
 498 279 498 279 351 176 c 1,9,10
 454 222 454 222 490 233 c 128,-1,11
 526 244 526 244 574 244 c 0,12,13
 607 244 607 244 635 239 c 0,14,15
 648 237 648 237 707 225 c 0,16,17
 788 209 788 209 842 209 c 0,18,19
 891 209 891 209 943 221 c 0,20,21
 1000 235 1000 235 1074 269 c 1,22,-1
 1111 45 l 1,23,24
 932 -47 932 -47 794 -47 c 0,25,26
 740 -47 740 -47 692 -37 c 0,27,28
 653 -29 653 -29 599 -16 c 0,29,30
 476 15 476 15 404 15 c 0,31,32
 350 15 350 15 299 3 c 0,33,34
 247 -9 247 -9 168 -44 c 1,35,-1
 100 163 l 1,36,37
 236 244 236 244 300 310 c 0,38,39
 395 409 395 409 395 534 c 0,40,41
 395 572 395 572 384 647 c 1,42,-1
 203 647 l 1,43,-1
 227 760 l 1,44,-1
 350 760 l 1,45,46
 316 858 316 858 306.5 897 c 128,-1,47
 297 936 297 936 297 979 c 0,48,49
 297 1066 297 1066 340.5 1156 c 128,-1,50
 384 1246 384 1246 459 1315 c 0,51,52
 620 1464 620 1464 869 1464 c 0,53,54
 983 1464 983 1464 1083 1429 c 0,55,56
 1288 1359 1288 1359 1288 1103 c 0,57,58
 1288 1064 1288 1064 1284 1022 c 0,59,60
 1283 1011 1283 1011 1280 991 c 1,61,-1
 1011 991 l 1,62,63
 1013 1027 1013 1027 1013 1044 c 0,64,65
 1013 1074 1013 1074 1009 1098 c 0,66,67
 999 1163 999 1163 950.5 1199 c 128,-1,68
 902 1235 902 1235 823 1235 c 0,69,70
 785 1235 785 1235 755 1226 c 0,71,72
 687 1207 687 1207 638.5 1145 c 128,-1,73
 590 1083 590 1083 590 1016 c 0,74,75
 590 982 590 982 614 893 c 0,76,77
 638 809 638 809 646 760 c 1,78,-1
 931 760 l 1,0,-1
EndSplineSet
EndChar

StartChar: yen
Encoding: 165 165 100
Width: 1139
GlyphClass: 2
Flags: W
LayerCount: 2
Fore
SplineSet
1174 721 m 1,0,-1
 1149 598 l 1,1,-1
 854 598 l 1,2,-1
 831 492 l 1,3,-1
 1126 492 l 1,4,-1
 1100 369 l 1,5,-1
 806 369 l 1,6,-1
 727 0 l 1,7,-1
 440 0 l 1,8,-1
 519 369 l 1,9,-1
 219 369 l 1,10,-1
 245 492 l 1,11,-1
 545 492 l 1,12,-1
 568 598 l 1,13,-1
 268 598 l 1,14,-1
 294 721 l 1,15,-1
 579 721 l 1,16,-1
 317 1442 l 1,17,-1
 603 1442 l 1,18,-1
 776 922 l 1,19,-1
 1160 1442 l 1,20,-1
 1438 1442 l 1,21,-1
 890 721 l 1,22,-1
 1174 721 l 1,0,-1
EndSplineSet
EndChar

StartChar: section
Encoding: 167 167 101
Width: 1139
GlyphClass: 2
Flags: W
LayerCount: 2
Fore
SplineSet
1207 1114 m 1,0,-1
 947 1114 l 1,1,2
 948 1137 948 1137 948 1151 c 0,3,4
 948 1272 948 1272 822 1272 c 0,5,6
 755 1272 755 1272 711.5 1236 c 128,-1,7
 668 1200 668 1200 668 1145 c 0,8,9
 668 1112 668 1112 701.5 1076.5 c 128,-1,10
 735 1041 735 1041 813 992 c 2,11,-1
 1043 849 l 2,12,13
 1184 761 1184 761 1184 619 c 0,14,15
 1184 479 1184 479 1122 395 c 128,-1,16
 1060 311 1060 311 918 259 c 1,17,18
 1016 178 1016 178 1016 56 c 0,19,20
 1016 -95 1016 -95 905 -228 c 0,21,22
 751 -411 751 -411 476 -411 c 0,23,24
 295 -411 295 -411 197 -319 c 0,25,26
 115 -241 115 -241 115 -121 c 0,27,28
 115 -71 115 -71 134 0 c 1,29,-1
 401 0 l 1,30,31
 396 -43 396 -43 396 -69 c 0,32,33
 396 -182 396 -182 530 -182 c 0,34,35
 607 -182 607 -182 660 -138.5 c 128,-1,36
 713 -95 713 -95 713 -30 c 0,37,38
 713 11 713 11 695 31.5 c 128,-1,39
 677 52 677 52 600 99 c 1,40,-1
 294 305 l 2,41,42
 183 380 183 380 183 507 c 0,43,44
 183 642 183 642 263 735 c 0,45,46
 314 794 314 794 443 877 c 1,47,48
 365 956 365 956 365 1072 c 0,49,50
 365 1145 365 1145 400 1219 c 128,-1,51
 435 1293 435 1293 497 1350 c 0,52,53
 638 1481 638 1481 871 1481 c 0,54,55
 955 1481 955 1481 1032 1459 c 0,56,57
 1142 1426 1142 1426 1188 1345 c 0,58,59
 1221 1287 1221 1287 1221 1217 c 0,60,61
 1221 1180 1221 1180 1207 1114 c 1,0,-1
785 347 m 1,62,63
 857 382 857 382 887.5 418 c 128,-1,64
 918 454 918 454 918 506 c 0,65,66
 918 522 918 522 914 536 c 0,67,68
 901 580 901 580 823 626 c 2,69,-1
 563 781 l 1,70,71
 449 721 449 721 449 617 c 0,72,73
 449 591 449 591 459 571 c 0,74,75
 475 538 475 538 528 506 c 2,76,-1
 785 347 l 1,62,63
EndSplineSet
EndChar

StartChar: dieresis
Encoding: 168 168 102
Width: 682
GlyphClass: 2
Flags: W
LayerCount: 2
Fore
SplineSet
580 1517 m 1,0,-1
 527 1271 l 1,1,-1
 301 1271 l 1,2,-1
 354 1517 l 1,3,-1
 580 1517 l 1,0,-1
960 1517 m 1,4,-1
 908 1271 l 1,5,-1
 682 1271 l 1,6,-1
 735 1517 l 1,7,-1
 960 1517 l 1,4,-1
EndSplineSet
EndChar

StartChar: copyright
Encoding: 169 169 103
Width: 1509
GlyphClass: 2
Flags: W
LayerCount: 2
Fore
SplineSet
1320 883 m 1,0,-1
 1136 883 l 1,1,2
 1136 948 1136 948 1116 980 c 0,3,4
 1077 1042 1077 1042 980 1042 c 0,5,6
 838 1042 838 1042 751 913 c 0,7,8
 666 787 666 787 666 624 c 0,9,10
 666 565 666 565 687 518 c 0,11,12
 724 432 724 432 841 432 c 0,13,14
 930 432 930 432 990 477.5 c 128,-1,15
 1050 523 1050 523 1077 609 c 1,16,-1
 1265 609 l 1,17,18
 1229 472 1229 472 1133 384 c 0,19,20
 1001 262 1001 262 800 262 c 0,21,22
 706 262 706 262 634 296 c 0,23,24
 553 335 553 335 513 420 c 0,25,26
 476 499 476 499 476 588 c 0,27,28
 476 704 476 704 514.5 820 c 128,-1,29
 553 936 553 936 619 1020 c 0,30,31
 769 1212 769 1212 1011 1212 c 0,32,33
 1081 1212 1081 1212 1144 1192 c 0,34,35
 1228 1166 1228 1166 1277 1100.5 c 128,-1,36
 1326 1035 1326 1035 1326 951 c 0,37,38
 1326 927 1326 927 1320 883 c 1,0,-1
1086 1522 m 0,39,40
 1239 1522 1239 1522 1367 1462 c 0,41,42
 1584 1362 1584 1362 1670 1146 c 0,43,44
 1715 1032 1715 1032 1715 902 c 0,45,46
 1715 727 1715 727 1636 553 c 0,47,48
 1508 275 1508 275 1240 106 c 0,49,50
 1002 -45 1002 -45 739 -45 c 0,51,52
 527 -45 527 -45 362 70 c 0,53,54
 197 186 197 186 138 384 c 0,55,56
 111 475 111 475 111 576 c 0,57,58
 111 751 111 751 190 924 c 0,59,60
 318 1202 318 1202 586 1371 c 0,61,62
 824 1522 824 1522 1086 1522 c 0,39,40
1053 1375 m 0,63,64
 921 1375 921 1375 799 1327 c 0,65,66
 538 1223 538 1223 389 982 c 0,67,68
 275 798 275 798 275 605 c 0,69,70
 275 548 275 548 285 495 c 0,71,72
 323 304 323 304 472 196 c 0,73,74
 603 102 603 102 772 102 c 0,75,76
 981 102 981 102 1172 225 c 0,77,78
 1385 362 1385 362 1487 588 c 0,79,80
 1551 730 1551 730 1551 874 c 0,81,82
 1551 1057 1551 1057 1450 1189 c 0,83,84
 1380 1280 1380 1280 1276 1327 c 0,85,86
 1170 1375 1170 1375 1053 1375 c 0,63,64
EndSplineSet
EndChar

StartChar: ordfeminine
Encoding: 170 170 104
Width: 758
GlyphClass: 2
Flags: W
LayerCount: 2
Fore
SplineSet
812 700 m 1,0,-1
 778 536 l 1,1,-1
 197 536 l 1,2,-1
 231 700 l 1,3,-1
 812 700 l 1,0,-1
861 838 m 1,4,-1
 857 817 l 1,5,-1
 669 817 l 1,6,7
 660 834 660 834 660 849 c 0,8,9
 660 860 660 860 662 874 c 0,10,11
 662 878 662 878 663 883 c 1,12,13
 559 788 559 788 445 788 c 0,14,15
 400 788 400 788 365 801 c 0,16,17
 325 817 325 817 300 857.5 c 128,-1,18
 275 898 275 898 275 947 c 0,19,20
 275 1045 275 1045 342.5 1114 c 128,-1,21
 410 1183 410 1183 524 1201 c 2,22,-1
 594 1212 l 2,23,24
 682 1225 682 1225 709 1238 c 0,25,26
 750 1258 750 1258 750 1302 c 0,27,28
 750 1315 750 1315 745 1325 c 0,29,30
 730 1354 730 1354 660 1354 c 0,31,32
 601 1354 601 1354 569.5 1333.5 c 128,-1,33
 538 1313 538 1313 522 1264 c 1,34,-1
 361 1264 l 1,35,36
 412 1493 412 1493 691 1493 c 0,37,38
 815 1493 815 1493 874 1446 c 0,39,40
 924 1407 924 1407 924 1345 c 0,41,42
 924 1323 924 1323 917 1289 c 2,43,-1
 839 920 l 2,44,45
 836 907 836 907 836 894 c 0,46,47
 836 868 836 868 861 838 c 1,4,-1
715 1132 m 1,48,49
 695 1121 695 1121 637 1111 c 2,50,-1
 576 1101 l 2,51,52
 453 1080 453 1080 453 988 c 0,53,54
 453 927 453 927 538 927 c 0,55,56
 558 927 558 927 574 931 c 0,57,58
 677 953 677 953 705 1084 c 2,59,-1
 715 1132 l 1,48,49
EndSplineSet
EndChar

StartChar: guillemotleft
Encoding: 171 171 105
Width: 1139
GlyphClass: 2
Flags: W
LayerCount: 2
Fore
SplineSet
276 447 m 1,0,-1
 326 680 l 1,1,-1
 733 985 l 1,2,-1
 682 745 l 1,3,-1
 436 563 l 1,4,-1
 604 381 l 1,5,-1
 555 147 l 1,6,-1
 276 447 l 1,0,-1
712 447 m 1,7,-1
 762 680 l 1,8,-1
 1169 985 l 1,9,-1
 1118 745 l 1,10,-1
 872 563 l 1,11,-1
 1040 381 l 1,12,-1
 991 147 l 1,13,-1
 712 447 l 1,7,-1
EndSplineSet
EndChar

StartChar: logicalnot
Encoding: 172 172 106
Width: 1196
GlyphClass: 2
Flags: W
LayerCount: 2
Fore
SplineSet
263 770 m 1,0,-1
 1294 770 l 1,1,-1
 1169 176 l 1,2,-1
 926 176 l 1,3,-1
 1000 524 l 1,4,-1
 211 524 l 1,5,-1
 263 770 l 1,0,-1
EndSplineSet
EndChar

StartChar: registered
Encoding: 174 174 107
Width: 1509
GlyphClass: 2
Flags: W
LayerCount: 2
Fore
SplineSet
729 641 m 1,0,-1
 654 287 l 1,1,-1
 457 287 l 1,2,-1
 650 1192 l 1,3,-1
 1136 1192 l 2,4,5
 1339 1192 1339 1192 1339 1010 c 0,6,7
 1339 812 1339 812 1142 724 c 1,8,9
 1221 687 1221 687 1221 622 c 0,10,11
 1221 580 1221 580 1191 400 c 0,12,13
 1188 383 1188 383 1188 374 c 0,14,15
 1188 364 1188 364 1191 355 c 0,16,17
 1196 342 1196 342 1212 330 c 1,18,-1
 1203 287 l 1,19,-1
 993 287 l 1,20,21
 983 320 983 320 983 345 c 0,22,23
 983 395 983 395 1012 505 c 0,24,25
 1024 552 1024 552 1024 569 c 0,26,27
 1024 578 1024 578 1022 586 c 0,28,29
 1010 641 1010 641 916 641 c 2,30,-1
 729 641 l 1,0,-1
764 808 m 1,31,-1
 974 808 l 2,32,33
 1068 808 1068 808 1101 851 c 0,34,35
 1133 892 1133 892 1133 962 c 0,36,37
 1133 977 1133 977 1128 990 c 0,38,39
 1111 1029 1111 1029 1021 1029 c 2,40,-1
 811 1029 l 1,41,-1
 764 808 l 1,31,-1
1087 1522 m 0,42,43
 1240 1522 1240 1522 1368 1462 c 0,44,45
 1584 1362 1584 1362 1670 1146 c 0,46,47
 1715 1032 1715 1032 1715 902 c 0,48,49
 1715 727 1715 727 1636 553 c 0,50,51
 1508 274 1508 274 1241 105 c 0,52,53
 1003 -45 1003 -45 740 -45 c 0,54,55
 591 -45 591 -45 460 15 c 0,56,57
 245 113 245 113 159 331 c 0,58,59
 113 446 113 446 113 576 c 0,60,61
 113 751 113 751 192 924 c 0,62,63
 320 1201 320 1201 588 1371 c 0,64,65
 825 1522 825 1522 1087 1522 c 0,42,43
1053 1375 m 0,66,67
 922 1375 922 1375 800 1327 c 0,68,69
 539 1223 539 1223 391 982 c 0,70,71
 277 798 277 798 277 605 c 0,72,73
 277 548 277 548 287 495 c 0,74,75
 325 304 325 304 474 196 c 0,76,77
 604 102 604 102 773 102 c 0,78,79
 982 102 982 102 1172 225 c 0,80,81
 1385 362 1385 362 1487 588 c 0,82,83
 1551 730 1551 730 1551 874 c 0,84,85
 1551 1057 1551 1057 1450 1189 c 0,86,87
 1380 1280 1380 1280 1277 1327 c 0,88,89
 1170 1375 1170 1375 1053 1375 c 0,66,67
EndSplineSet
EndChar

StartChar: macron
Encoding: 175 175 108
Width: 682
GlyphClass: 2
Flags: W
LayerCount: 2
Fore
SplineSet
956 1479 m 1,0,-1
 922 1315 l 1,1,-1
 307 1315 l 1,2,-1
 342 1479 l 1,3,-1
 956 1479 l 1,0,-1
EndSplineSet
EndChar

StartChar: degree
Encoding: 176 176 109
Width: 819
GlyphClass: 2
Flags: W
LayerCount: 2
Fore
SplineSet
645 1405 m 0,0,1
 708 1405 708 1405 764 1381 c 0,2,3
 858 1342 858 1342 910 1257 c 0,4,5
 956 1182 956 1182 956 1095 c 0,6,7
 956 1033 956 1033 932 976 c 0,8,9
 896 888 896 888 817.5 836 c 128,-1,10
 739 784 739 784 642 784 c 0,11,12
 517 784 517 784 426 875 c 256,13,14
 335 966 335 966 335 1095 c 0,15,16
 335 1226 335 1226 426 1314 c 0,17,18
 519 1405 519 1405 645 1405 c 0,0,1
646 1276 m 0,19,20
 609 1276 609 1276 576 1262 c 0,21,22
 525 1241 525 1241 494.5 1195 c 128,-1,23
 464 1149 464 1149 464 1094 c 0,24,25
 464 1058 464 1058 478 1025 c 0,26,27
 499 975 499 975 544.5 944 c 128,-1,28
 590 913 590 913 643 913 c 0,29,30
 682 913 682 913 716 927 c 0,31,32
 767 949 767 949 797 994.5 c 128,-1,33
 827 1040 827 1040 827 1095 c 0,34,35
 827 1170 827 1170 774 1223 c 128,-1,36
 721 1276 721 1276 646 1276 c 0,19,20
EndSplineSet
EndChar

StartChar: plusminus
Encoding: 177 177 110
Width: 1196
GlyphClass: 2
Flags: W
LayerCount: 2
Fore
SplineSet
1290 926 m 1,0,-1
 1238 680 l 1,1,-1
 863 680 l 1,2,-1
 793 348 l 1,3,-1
 549 348 l 1,4,-1
 619 680 l 1,5,-1
 247 680 l 1,6,-1
 299 926 l 1,7,-1
 671 926 l 1,8,-1
 751 1296 l 1,9,-1
 994 1296 l 1,10,-1
 915 926 l 1,11,-1
 1290 926 l 1,0,-1
1145 244 m 1,12,-1
 1093 0 l 1,13,-1
 102 0 l 1,14,-1
 154 244 l 1,15,-1
 1145 244 l 1,12,-1
EndSplineSet
EndChar

StartChar: acute
Encoding: 180 180 111
Width: 682
GlyphClass: 2
Flags: W
LayerCount: 2
Fore
SplineSet
973 1550 m 1,0,-1
 649 1242 l 1,1,-1
 506 1242 l 1,2,-1
 714 1550 l 1,3,-1
 973 1550 l 1,0,-1
EndSplineSet
EndChar

StartChar: mu
Encoding: 181 181 112
Width: 1251
GlyphClass: 2
Flags: W
LayerCount: 2
Fore
SplineSet
299 -451 m 1,0,-1
 23 -451 l 1,1,-1
 354 1106 l 1,2,-1
 641 1106 l 1,3,-1
 495 423 l 2,4,5
 483 365 483 365 483 330 c 0,6,7
 483 299 483 299 498 270 c 0,8,9
 533 203 533 203 638 203 c 0,10,11
 730 203 730 203 798 247 c 0,12,13
 885 304 885 304 908 414 c 2,14,-1
 1055 1106 l 1,15,-1
 1342 1106 l 1,16,-1
 1172 308 l 2,17,18
 1158 241 1158 241 1158 206 c 0,19,20
 1158 194 1158 194 1162 183 c 0,21,22
 1170 158 1170 158 1202 158 c 0,23,24
 1218 158 1218 158 1244 166 c 1,25,-1
 1206 -11 l 1,26,27
 1135 -47 1135 -47 1056 -47 c 0,28,29
 984 -47 984 -47 947 -22.5 c 128,-1,30
 910 2 910 2 886 65 c 1,31,32
 826 15 826 15 780 -8 c 0,33,34
 700 -47 700 -47 596 -47 c 0,35,36
 551 -47 551 -47 512 -38 c 0,37,38
 450 -24 450 -24 401 31 c 1,39,-1
 299 -451 l 1,0,-1
EndSplineSet
EndChar

StartChar: paragraph
Encoding: 182 182 113
Width: 1139
GlyphClass: 2
Flags: W
LayerCount: 2
Fore
SplineSet
1401 1493 m 1,0,-1
 1370 1343 l 1,1,-1
 1281 1343 l 1,2,-1
 912 -391 l 1,3,-1
 712 -391 l 1,4,-1
 1080 1343 l 1,5,-1
 953 1343 l 1,6,-1
 584 -391 l 1,7,-1
 383 -391 l 1,8,-1
 583 546 l 1,9,10
 480 551 480 551 406 595 c 0,11,12
 248 689 248 689 248 890 c 0,13,14
 248 1044 248 1044 324 1182 c 0,15,16
 399 1320 399 1320 517 1406 c 0,17,18
 637 1493 637 1493 782 1493 c 2,19,-1
 1401 1493 l 1,0,-1
EndSplineSet
EndChar

StartChar: periodcentered
Encoding: 183 183 114
Width: 569
GlyphClass: 2
Flags: W
LayerCount: 2
Fore
SplineSet
279 694 m 1,0,-1
 532 694 l 1,1,-1
 479 442 l 1,2,-1
 225 442 l 1,3,-1
 279 694 l 1,0,-1
EndSplineSet
EndChar

StartChar: cedilla
Encoding: 184 184 115
Width: 682
GlyphClass: 2
Flags: W
LayerCount: 2
Fore
SplineSet
316 0 m 1,0,-1
 418 0 l 1,1,-1
 334 -128 l 1,2,3
 379 -115 379 -115 423 -115 c 0,4,5
 460 -115 460 -115 487 -125 c 0,6,7
 516 -136 516 -136 534.5 -166 c 128,-1,8
 553 -196 553 -196 553 -232 c 0,9,10
 553 -331 553 -331 469 -390.5 c 128,-1,11
 385 -450 385 -450 245 -450 c 0,12,13
 195 -450 195 -450 150 -443 c 0,14,15
 79 -432 79 -432 -27 -392 c 1,16,-1
 34 -285 l 1,17,18
 161 -348 161 -348 236 -348 c 0,19,20
 249 -348 249 -348 263 -347 c 0,21,22
 311 -341 311 -341 343 -315.5 c 128,-1,23
 375 -290 375 -290 375 -258 c 0,24,25
 375 -236 375 -236 359 -218 c 0,26,27
 335 -190 335 -190 285 -190 c 0,28,29
 252 -190 252 -190 224 -199 c 0,30,31
 204 -205 204 -205 175 -217 c 1,32,-1
 316 0 l 1,0,-1
EndSplineSet
EndChar

StartChar: ordmasculine
Encoding: 186 186 116
Width: 748
GlyphClass: 2
Flags: W
LayerCount: 2
Fore
SplineSet
839 700 m 1,0,-1
 805 536 l 1,1,-1
 188 536 l 1,2,-1
 222 700 l 1,3,-1
 839 700 l 1,0,-1
694 1493 m 0,4,5
 770 1493 770 1493 831 1467 c 0,6,7
 964 1411 964 1411 964 1248 c 0,8,9
 964 1168 964 1168 937 1084 c 128,-1,10
 910 1000 910 1000 866 942 c 0,11,12
 751 791 751 791 549 791 c 0,13,14
 426 791 426 791 355 858 c 0,15,16
 286 923 286 923 286 1036 c 0,17,18
 286 1088 286 1088 298 1142 c 0,19,20
 331 1298 331 1298 423 1386 c 0,21,22
 533 1493 533 1493 694 1493 c 0,4,5
665 1354 m 0,23,24
 628 1354 628 1354 595 1336 c 0,25,26
 537 1305 537 1305 500.5 1229.5 c 128,-1,27
 464 1154 464 1154 464 1066 c 0,28,29
 464 1020 464 1020 480 984 c 0,30,31
 493 956 493 956 522 938 c 128,-1,32
 551 920 551 920 584 920 c 0,33,34
 682 920 682 920 740 1029 c 0,35,36
 786 1113 786 1113 786 1209 c 0,37,38
 786 1257 786 1257 770 1291 c 0,39,40
 740 1354 740 1354 665 1354 c 0,23,24
EndSplineSet
EndChar

StartChar: guillemotright
Encoding: 187 187 117
Width: 1139
GlyphClass: 2
Flags: W
LayerCount: 2
Fore
SplineSet
668 685 m 1,0,-1
 618 452 l 1,1,-1
 211 147 l 1,2,-1
 262 387 l 1,3,-1
 508 569 l 1,4,-1
 339 751 l 1,5,-1
 389 985 l 1,6,-1
 668 685 l 1,0,-1
1092 685 m 1,7,-1
 1042 452 l 1,8,-1
 635 147 l 1,9,-1
 686 387 l 1,10,-1
 932 569 l 1,11,-1
 763 751 l 1,12,-1
 813 985 l 1,13,-1
 1092 685 l 1,7,-1
EndSplineSet
EndChar

StartChar: questiondown
Encoding: 191 191 118
Width: 1251
GlyphClass: 2
Flags: W
LayerCount: 2
Fore
SplineSet
635 694 m 1,0,-1
 885 694 l 1,1,2
 875 621 875 621 858.5 576.5 c 128,-1,3
 842 532 842 532 807 483 c 0,4,5
 737 386 737 386 598 289 c 0,6,7
 512 230 512 230 483.5 204 c 128,-1,8
 455 178 455 178 433 138 c 0,9,10
 399 79 399 79 399 14 c 0,11,12
 399 -1 399 -1 401 -16 c 0,13,14
 411 -82 411 -82 462 -122.5 c 128,-1,15
 513 -163 513 -163 587 -163 c 0,16,17
 690 -163 690 -163 762 -88 c 128,-1,18
 834 -13 834 -13 859 121 c 1,19,-1
 1138 121 l 1,20,21
 1085 -118 1085 -118 975 -239 c 0,22,23
 811 -417 811 -417 547 -417 c 0,24,25
 301 -417 301 -417 185 -279 c 0,26,27
 106 -184 106 -184 106 -53 c 0,28,29
 106 93 106 93 182 221 c 0,30,31
 244 324 244 324 447 450 c 0,32,33
 528 501 528 501 556.5 526 c 128,-1,34
 585 551 585 551 603 587 c 0,35,36
 618 619 618 619 635 694 c 1,0,-1
627 807 m 1,37,-1
 690 1106 l 1,38,-1
 997 1106 l 1,39,-1
 934 807 l 1,40,-1
 627 807 l 1,37,-1
EndSplineSet
EndChar

StartChar: Agrave
Encoding: 192 192 119
Width: 1479
GlyphClass: 2
Flags: W
LayerCount: 2
Fore
SplineSet
1089 301 m 1,0,-1
 533 301 l 1,1,-1
 366 0 l 1,2,-1
 53 0 l 1,3,-1
 886 1493 l 1,4,-1
 1241 1493 l 1,5,-1
 1439 0 l 1,6,-1
 1127 0 l 1,7,-1
 1089 301 l 1,0,-1
1061 557 m 1,8,-1
 990 1137 l 1,9,-1
 673 557 l 1,10,-1
 1061 557 l 1,8,-1
834 1917 m 1,11,-1
 1078 1917 l 1,12,-1
 1169 1610 l 1,13,-1
 1040 1610 l 1,14,-1
 834 1917 l 1,11,-1
EndSplineSet
EndChar

StartChar: Aacute
Encoding: 193 193 120
Width: 1479
GlyphClass: 2
Flags: W
LayerCount: 2
Fore
SplineSet
1089 301 m 1,0,-1
 533 301 l 1,1,-1
 366 0 l 1,2,-1
 53 0 l 1,3,-1
 886 1493 l 1,4,-1
 1241 1493 l 1,5,-1
 1439 0 l 1,6,-1
 1127 0 l 1,7,-1
 1089 301 l 1,0,-1
1061 557 m 1,8,-1
 990 1137 l 1,9,-1
 673 557 l 1,10,-1
 1061 557 l 1,8,-1
1462 1917 m 1,11,-1
 1138 1610 l 1,12,-1
 995 1610 l 1,13,-1
 1203 1917 l 1,14,-1
 1462 1917 l 1,11,-1
EndSplineSet
EndChar

StartChar: Acircumflex
Encoding: 194 194 121
Width: 1479
GlyphClass: 2
Flags: W
LayerCount: 2
Fore
SplineSet
1089 301 m 1,0,-1
 533 301 l 1,1,-1
 366 0 l 1,2,-1
 53 0 l 1,3,-1
 886 1493 l 1,4,-1
 1241 1493 l 1,5,-1
 1439 0 l 1,6,-1
 1127 0 l 1,7,-1
 1089 301 l 1,0,-1
1061 557 m 1,8,-1
 990 1137 l 1,9,-1
 673 557 l 1,10,-1
 1061 557 l 1,8,-1
1047 1917 m 1,11,-1
 1267 1917 l 1,12,-1
 1413 1616 l 1,13,-1
 1254 1616 l 1,14,-1
 1129 1815 l 1,15,-1
 918 1616 l 1,16,-1
 762 1616 l 1,17,-1
 1047 1917 l 1,11,-1
EndSplineSet
EndChar

StartChar: Atilde
Encoding: 195 195 122
Width: 1479
GlyphClass: 2
Flags: W
LayerCount: 2
Fore
SplineSet
1089 301 m 1,0,-1
 533 301 l 1,1,-1
 366 0 l 1,2,-1
 53 0 l 1,3,-1
 886 1493 l 1,4,-1
 1241 1493 l 1,5,-1
 1439 0 l 1,6,-1
 1127 0 l 1,7,-1
 1089 301 l 1,0,-1
1061 557 m 1,8,-1
 990 1137 l 1,9,-1
 673 557 l 1,10,-1
 1061 557 l 1,8,-1
1402 1890 m 1,11,-1
 1513 1890 l 1,12,13
 1482 1779 1482 1779 1429 1725 c 0,14,15
 1347 1640 1347 1640 1240 1640 c 0,16,17
 1205 1640 1205 1640 1168 1651 c 0,18,19
 1150 1657 1150 1657 1137 1664 c 2,20,-1
 1034 1715 l 2,21,22
 976 1743 976 1743 943 1743 c 0,23,24
 928 1743 928 1743 911 1734 c 0,25,26
 875 1716 875 1716 839 1645 c 1,27,-1
 729 1645 l 1,28,29
 765 1761 765 1761 829 1823 c 128,-1,30
 893 1885 893 1885 977 1885 c 0,31,32
 1040 1885 1040 1885 1122 1850 c 2,33,-1
 1224 1806 l 2,34,35
 1266 1786 1266 1786 1291 1786 c 0,36,37
 1360 1786 1360 1786 1402 1890 c 1,11,-1
EndSplineSet
EndChar

StartChar: Adieresis
Encoding: 196 196 123
Width: 1479
GlyphClass: 2
Flags: W
LayerCount: 2
Fore
SplineSet
1089 301 m 1,0,-1
 533 301 l 1,1,-1
 366 0 l 1,2,-1
 53 0 l 1,3,-1
 886 1493 l 1,4,-1
 1241 1493 l 1,5,-1
 1439 0 l 1,6,-1
 1127 0 l 1,7,-1
 1089 301 l 1,0,-1
1061 557 m 1,8,-1
 990 1137 l 1,9,-1
 673 557 l 1,10,-1
 1061 557 l 1,8,-1
1069 1884 m 1,11,-1
 1016 1638 l 1,12,-1
 790 1638 l 1,13,-1
 843 1884 l 1,14,-1
 1069 1884 l 1,11,-1
1450 1884 m 1,15,-1
 1397 1638 l 1,16,-1
 1171 1638 l 1,17,-1
 1224 1884 l 1,18,-1
 1450 1884 l 1,15,-1
EndSplineSet
EndChar

StartChar: Aring
Encoding: 197 197 124
Width: 1479
GlyphClass: 2
Flags: W
LayerCount: 2
Fore
SplineSet
1089 301 m 1,0,-1
 533 301 l 1,1,-1
 366 0 l 1,2,-1
 53 0 l 1,3,-1
 886 1493 l 1,4,-1
 1241 1493 l 1,5,-1
 1439 0 l 1,6,-1
 1127 0 l 1,7,-1
 1089 301 l 1,0,-1
1061 557 m 1,8,-1
 990 1137 l 1,9,-1
 673 557 l 1,10,-1
 1061 557 l 1,8,-1
1156 1951 m 0,11,12
 1191 1951 1191 1951 1222 1937 c 0,13,14
 1303 1899 1303 1899 1303 1805 c 0,15,16
 1303 1724 1303 1724 1241 1658 c 0,17,18
 1170 1582 1170 1582 1074 1582 c 0,19,20
 1010 1582 1010 1582 968.5 1623.5 c 128,-1,21
 927 1665 927 1665 927 1728 c 0,22,23
 927 1748 927 1748 931 1767 c 0,24,25
 947 1843 947 1843 1012.5 1897 c 128,-1,26
 1078 1951 1078 1951 1156 1951 c 0,11,12
1135 1849 m 0,27,28
 1117 1849 1117 1849 1100 1843 c 0,29,30
 1068 1831 1068 1831 1047.5 1805 c 128,-1,31
 1027 1779 1027 1779 1027 1750 c 256,32,33
 1027 1721 1027 1721 1046.5 1702.5 c 128,-1,34
 1066 1684 1066 1684 1097 1684 c 0,35,36
 1115 1684 1115 1684 1132 1690 c 0,37,38
 1162 1702 1162 1702 1182.5 1729 c 128,-1,39
 1203 1756 1203 1756 1203 1785 c 0,40,41
 1203 1813 1203 1813 1184 1831 c 128,-1,42
 1165 1849 1165 1849 1135 1849 c 0,27,28
EndSplineSet
EndChar

StartChar: AE
Encoding: 198 198 125
Width: 2048
GlyphClass: 3
Flags: W
LayerCount: 2
Fore
SplineSet
951 311 m 1,0,-1
 502 311 l 1,1,-1
 327 0 l 1,2,-1
 2 0 l 1,3,-1
 862 1493 l 1,4,-1
 2261 1493 l 1,5,-1
 2207 1237 l 1,6,-1
 1455 1237 l 1,7,-1
 1383 899 l 1,8,-1
 2077 899 l 1,9,-1
 2023 643 l 1,10,-1
 1329 643 l 1,11,-1
 1247 256 l 1,12,-1
 2037 256 l 1,13,-1
 1982 0 l 1,14,-1
 885 0 l 1,15,-1
 951 311 l 1,0,-1
1006 567 m 1,16,-1
 1148 1237 l 1,17,-1
 1013 1237 l 1,18,-1
 635 567 l 1,19,-1
 1006 567 l 1,16,-1
EndSplineSet
EndChar

StartChar: Ccedilla
Encoding: 199 199 126
Width: 1479
GlyphClass: 2
Flags: W
LayerCount: 2
Fore
SplineSet
796 -46 m 1,0,-1
 743 -128 l 1,1,2
 786 -114 786 -114 832 -114 c 0,3,4
 890 -114 890 -114 921 -139 c 0,5,6
 962 -173 962 -173 962 -232 c 0,7,8
 962 -331 962 -331 878 -390.5 c 128,-1,9
 794 -450 794 -450 654 -450 c 0,10,11
 604 -450 604 -450 559 -443 c 0,12,13
 488 -433 488 -433 381 -392 c 1,14,-1
 443 -285 l 1,15,16
 570 -348 570 -348 646 -348 c 0,17,18
 704 -348 704 -348 744 -322 c 128,-1,19
 784 -296 784 -296 784 -258 c 0,20,21
 784 -227 784 -227 759 -208.5 c 128,-1,22
 734 -190 734 -190 693 -190 c 0,23,24
 661 -190 661 -190 632 -199 c 0,25,26
 612 -205 612 -205 583 -217 c 1,27,-1
 696 -45 l 1,28,29
 583 -35 583 -35 493 9 c 0,30,31
 350 81 350 81 281 212 c 0,32,33
 219 331 219 331 219 481 c 0,34,35
 219 696 219 696 298 920 c 0,36,37
 401 1214 401 1214 652 1385 c 0,38,39
 846 1518 846 1518 1092 1518 c 0,40,41
 1209 1518 1209 1518 1315 1485 c 0,42,43
 1480 1436 1480 1436 1561 1306 c 0,44,45
 1624 1205 1624 1205 1624 1088 c 0,46,47
 1624 1056 1624 1056 1615 987 c 1,48,-1
 1328 987 l 1,49,50
 1326 1093 1326 1093 1293 1148 c 0,51,52
 1225 1256 1225 1256 1057 1256 c 0,53,54
 921 1256 921 1256 814 1187 c 0,55,56
 693 1110 693 1110 608.5 922 c 128,-1,57
 524 734 524 734 524 543 c 0,58,59
 524 441 524 441 555 363 c 0,60,61
 583 294 583 294 655 254.5 c 128,-1,62
 727 215 727 215 824 215 c 0,63,64
 972 215 972 215 1076.5 292 c 128,-1,65
 1181 369 1181 369 1226 510 c 1,66,-1
 1520 510 l 1,67,68
 1447 227 1447 227 1228 79 c 0,69,70
 1045 -44 1045 -44 796 -46 c 1,0,-1
EndSplineSet
EndChar

StartChar: Egrave
Encoding: 200 200 127
Width: 1366
GlyphClass: 2
Flags: W
LayerCount: 2
Fore
SplineSet
606 643 m 1,0,-1
 524 256 l 1,1,-1
 1333 256 l 1,2,-1
 1278 0 l 1,3,-1
 162 0 l 1,4,-1
 479 1493 l 1,5,-1
 1561 1493 l 1,6,-1
 1506 1237 l 1,7,-1
 732 1237 l 1,8,-1
 660 899 l 1,9,-1
 1375 899 l 1,10,-1
 1320 643 l 1,11,-1
 606 643 l 1,0,-1
819 1917 m 1,12,-1
 1063 1917 l 1,13,-1
 1155 1610 l 1,14,-1
 1025 1610 l 1,15,-1
 819 1917 l 1,12,-1
EndSplineSet
EndChar

StartChar: Eacute
Encoding: 201 201 128
Width: 1366
GlyphClass: 2
Flags: W
LayerCount: 2
Fore
SplineSet
606 643 m 1,0,-1
 524 256 l 1,1,-1
 1333 256 l 1,2,-1
 1278 0 l 1,3,-1
 162 0 l 1,4,-1
 479 1493 l 1,5,-1
 1561 1493 l 1,6,-1
 1506 1237 l 1,7,-1
 732 1237 l 1,8,-1
 660 899 l 1,9,-1
 1375 899 l 1,10,-1
 1320 643 l 1,11,-1
 606 643 l 1,0,-1
1383 1917 m 1,12,-1
 1059 1610 l 1,13,-1
 916 1610 l 1,14,-1
 1124 1917 l 1,15,-1
 1383 1917 l 1,12,-1
EndSplineSet
EndChar

StartChar: Ecircumflex
Encoding: 202 202 129
Width: 1366
GlyphClass: 2
Flags: W
LayerCount: 2
Fore
SplineSet
606 643 m 1,0,-1
 524 256 l 1,1,-1
 1333 256 l 1,2,-1
 1278 0 l 1,3,-1
 162 0 l 1,4,-1
 479 1493 l 1,5,-1
 1561 1493 l 1,6,-1
 1506 1237 l 1,7,-1
 732 1237 l 1,8,-1
 660 899 l 1,9,-1
 1375 899 l 1,10,-1
 1320 643 l 1,11,-1
 606 643 l 1,0,-1
1012 1917 m 1,12,-1
 1232 1917 l 1,13,-1
 1378 1616 l 1,14,-1
 1219 1616 l 1,15,-1
 1094 1815 l 1,16,-1
 883 1616 l 1,17,-1
 727 1616 l 1,18,-1
 1012 1917 l 1,12,-1
EndSplineSet
EndChar

StartChar: Edieresis
Encoding: 203 203 130
Width: 1366
GlyphClass: 2
Flags: W
LayerCount: 2
Fore
SplineSet
606 643 m 1,0,-1
 524 256 l 1,1,-1
 1333 256 l 1,2,-1
 1278 0 l 1,3,-1
 162 0 l 1,4,-1
 479 1493 l 1,5,-1
 1561 1493 l 1,6,-1
 1506 1237 l 1,7,-1
 732 1237 l 1,8,-1
 660 899 l 1,9,-1
 1375 899 l 1,10,-1
 1320 643 l 1,11,-1
 606 643 l 1,0,-1
1029 1884 m 1,12,-1
 976 1638 l 1,13,-1
 750 1638 l 1,14,-1
 803 1884 l 1,15,-1
 1029 1884 l 1,12,-1
1410 1884 m 1,16,-1
 1357 1638 l 1,17,-1
 1131 1638 l 1,18,-1
 1184 1884 l 1,19,-1
 1410 1884 l 1,16,-1
EndSplineSet
EndChar

StartChar: Igrave
Encoding: 204 204 131
Width: 569
GlyphClass: 2
Flags: W
LayerCount: 2
Fore
SplineSet
754 1493 m 1,0,-1
 436 0 l 1,1,-1
 129 0 l 1,2,-1
 446 1493 l 1,3,-1
 754 1493 l 1,0,-1
372 1917 m 1,4,-1
 616 1917 l 1,5,-1
 707 1610 l 1,6,-1
 578 1610 l 1,7,-1
 372 1917 l 1,4,-1
EndSplineSet
EndChar

StartChar: Iacute
Encoding: 205 205 132
Width: 569
GlyphClass: 2
Flags: W
LayerCount: 2
Fore
SplineSet
754 1493 m 1,0,-1
 436 0 l 1,1,-1
 129 0 l 1,2,-1
 446 1493 l 1,3,-1
 754 1493 l 1,0,-1
1001 1917 m 1,4,-1
 678 1610 l 1,5,-1
 535 1610 l 1,6,-1
 742 1917 l 1,7,-1
 1001 1917 l 1,4,-1
EndSplineSet
EndChar

StartChar: Icircumflex
Encoding: 206 206 133
Width: 569
GlyphClass: 2
Flags: W
LayerCount: 2
Fore
SplineSet
754 1493 m 1,0,-1
 436 0 l 1,1,-1
 129 0 l 1,2,-1
 446 1493 l 1,3,-1
 754 1493 l 1,0,-1
590 1917 m 1,4,-1
 810 1917 l 1,5,-1
 956 1616 l 1,6,-1
 797 1616 l 1,7,-1
 672 1815 l 1,8,-1
 461 1616 l 1,9,-1
 305 1616 l 1,10,-1
 590 1917 l 1,4,-1
EndSplineSet
EndChar

StartChar: Idieresis
Encoding: 207 207 134
Width: 569
GlyphClass: 2
Flags: W
LayerCount: 2
Fore
SplineSet
754 1493 m 1,0,-1
 436 0 l 1,1,-1
 129 0 l 1,2,-1
 446 1493 l 1,3,-1
 754 1493 l 1,0,-1
608 1884 m 1,4,-1
 556 1638 l 1,5,-1
 330 1638 l 1,6,-1
 382 1884 l 1,7,-1
 608 1884 l 1,4,-1
989 1884 m 1,8,-1
 936 1638 l 1,9,-1
 711 1638 l 1,10,-1
 763 1884 l 1,11,-1
 989 1884 l 1,8,-1
EndSplineSet
EndChar

StartChar: Ntilde
Encoding: 209 209 135
Width: 1479
GlyphClass: 2
Flags: W
LayerCount: 2
Fore
SplineSet
1671 1493 m 1,0,-1
 1353 0 l 1,1,-1
 1049 0 l 1,2,-1
 658 1071 l 1,3,-1
 430 0 l 1,4,-1
 139 0 l 1,5,-1
 456 1493 l 1,6,-1
 763 1493 l 1,7,-1
 1156 439 l 1,8,-1
 1380 1493 l 1,9,-1
 1671 1493 l 1,0,-1
1398 1890 m 1,10,-1
 1509 1890 l 1,11,12
 1477 1779 1477 1779 1425 1725 c 0,13,14
 1343 1640 1343 1640 1236 1640 c 0,15,16
 1201 1640 1201 1640 1163 1651 c 0,17,18
 1146 1657 1146 1657 1132 1664 c 2,19,-1
 1029 1715 l 2,20,21
 972 1743 972 1743 939 1743 c 0,22,23
 923 1743 923 1743 907 1734 c 0,24,25
 871 1716 871 1716 835 1645 c 1,26,-1
 724 1645 l 1,27,28
 761 1761 761 1761 825 1823 c 128,-1,29
 889 1885 889 1885 973 1885 c 0,30,31
 1036 1885 1036 1885 1117 1850 c 2,32,-1
 1219 1806 l 2,33,34
 1262 1786 1262 1786 1287 1786 c 0,35,36
 1356 1786 1356 1786 1398 1890 c 1,10,-1
EndSplineSet
EndChar

StartChar: Ograve
Encoding: 210 210 136
Width: 1593
GlyphClass: 2
Flags: W
LayerCount: 2
Fore
SplineSet
921 1917 m 1,0,-1
 1165 1917 l 1,1,-1
 1257 1610 l 1,2,-1
 1127 1610 l 1,3,-1
 921 1917 l 1,0,-1
1102 1518 m 0,4,5
 1250 1518 1250 1518 1372 1471 c 0,6,7
 1567 1397 1567 1397 1646 1207 c 0,8,9
 1696 1086 1696 1086 1696 931 c 0,10,11
 1696 733 1696 733 1617 538 c 0,12,13
 1500 251 1500 251 1260 84 c 0,14,15
 1070 -47 1070 -47 809 -47 c 0,16,17
 597 -47 597 -47 451 49 c 0,18,19
 337 123 337 123 277 248 c 128,-1,20
 217 373 217 373 217 535 c 0,21,22
 217 634 217 634 238 735 c 0,23,24
 289 972 289 972 432 1167 c 0,25,26
 691 1518 691 1518 1102 1518 c 0,4,5
1064 1256 m 0,27,28
 977 1256 977 1256 903 1228 c 0,29,30
 726 1160 726 1160 622 966 c 0,31,32
 522 780 522 780 522 578 c 0,33,34
 522 494 522 494 548 419 c 0,35,36
 588 304 588 304 692 252 c 0,37,38
 766 215 766 215 858 215 c 0,39,40
 946 215 946 215 1019 243 c 0,41,42
 1191 309 1191 309 1294 505 c 0,43,44
 1391 691 1391 691 1391 895 c 0,45,46
 1391 1076 1391 1076 1292 1172 c 0,47,48
 1207 1256 1207 1256 1064 1256 c 0,27,28
EndSplineSet
EndChar

StartChar: Oacute
Encoding: 211 211 137
Width: 1593
GlyphClass: 2
Flags: W
LayerCount: 2
Fore
SplineSet
1498 1917 m 1,0,-1
 1175 1610 l 1,1,-1
 1031 1610 l 1,2,-1
 1239 1917 l 1,3,-1
 1498 1917 l 1,0,-1
1102 1518 m 0,4,5
 1250 1518 1250 1518 1372 1471 c 0,6,7
 1567 1397 1567 1397 1646 1207 c 0,8,9
 1696 1086 1696 1086 1696 931 c 0,10,11
 1696 733 1696 733 1617 538 c 0,12,13
 1500 251 1500 251 1260 84 c 0,14,15
 1070 -47 1070 -47 809 -47 c 0,16,17
 597 -47 597 -47 451 49 c 0,18,19
 337 123 337 123 277 248 c 128,-1,20
 217 373 217 373 217 535 c 0,21,22
 217 634 217 634 238 735 c 0,23,24
 289 972 289 972 432 1167 c 0,25,26
 691 1518 691 1518 1102 1518 c 0,4,5
1064 1256 m 0,27,28
 977 1256 977 1256 903 1228 c 0,29,30
 726 1160 726 1160 622 966 c 0,31,32
 522 780 522 780 522 578 c 0,33,34
 522 494 522 494 548 419 c 0,35,36
 588 304 588 304 692 252 c 0,37,38
 766 215 766 215 858 215 c 0,39,40
 946 215 946 215 1019 243 c 0,41,42
 1191 309 1191 309 1294 505 c 0,43,44
 1391 691 1391 691 1391 895 c 0,45,46
 1391 1076 1391 1076 1292 1172 c 0,47,48
 1207 1256 1207 1256 1064 1256 c 0,27,28
EndSplineSet
EndChar

StartChar: Ocircumflex
Encoding: 212 212 138
Width: 1593
GlyphClass: 2
Flags: W
LayerCount: 2
Fore
SplineSet
1108 1917 m 1,0,-1
 1328 1917 l 1,1,-1
 1475 1616 l 1,2,-1
 1315 1616 l 1,3,-1
 1191 1815 l 1,4,-1
 980 1616 l 1,5,-1
 823 1616 l 1,6,-1
 1108 1917 l 1,0,-1
1102 1518 m 0,7,8
 1250 1518 1250 1518 1372 1471 c 0,9,10
 1567 1397 1567 1397 1646 1207 c 0,11,12
 1696 1086 1696 1086 1696 931 c 0,13,14
 1696 733 1696 733 1617 538 c 0,15,16
 1500 251 1500 251 1260 84 c 0,17,18
 1070 -47 1070 -47 809 -47 c 0,19,20
 597 -47 597 -47 451 49 c 0,21,22
 337 123 337 123 277 248 c 128,-1,23
 217 373 217 373 217 535 c 0,24,25
 217 634 217 634 238 735 c 0,26,27
 289 972 289 972 432 1167 c 0,28,29
 691 1518 691 1518 1102 1518 c 0,7,8
1064 1256 m 0,30,31
 977 1256 977 1256 903 1228 c 0,32,33
 726 1160 726 1160 622 966 c 0,34,35
 522 780 522 780 522 578 c 0,36,37
 522 494 522 494 548 419 c 0,38,39
 588 304 588 304 692 252 c 0,40,41
 766 215 766 215 858 215 c 0,42,43
 946 215 946 215 1019 243 c 0,44,45
 1191 309 1191 309 1294 505 c 0,46,47
 1391 691 1391 691 1391 895 c 0,48,49
 1391 1076 1391 1076 1292 1172 c 0,50,51
 1207 1256 1207 1256 1064 1256 c 0,30,31
EndSplineSet
EndChar

StartChar: Otilde
Encoding: 213 213 139
Width: 1593
GlyphClass: 2
Flags: W
LayerCount: 2
Fore
SplineSet
1102 1518 m 0,0,1
 1250 1518 1250 1518 1372 1471 c 0,2,3
 1567 1397 1567 1397 1646 1207 c 0,4,5
 1696 1086 1696 1086 1696 931 c 0,6,7
 1696 733 1696 733 1617 538 c 0,8,9
 1500 251 1500 251 1260 84 c 0,10,11
 1070 -47 1070 -47 809 -47 c 0,12,13
 597 -47 597 -47 451 49 c 0,14,15
 337 123 337 123 277 248 c 128,-1,16
 217 373 217 373 217 535 c 0,17,18
 217 634 217 634 238 735 c 0,19,20
 289 972 289 972 432 1167 c 0,21,22
 691 1518 691 1518 1102 1518 c 0,0,1
1064 1256 m 0,23,24
 977 1256 977 1256 903 1228 c 0,25,26
 726 1160 726 1160 622 966 c 0,27,28
 522 780 522 780 522 578 c 0,29,30
 522 494 522 494 548 419 c 0,31,32
 588 304 588 304 692 252 c 0,33,34
 766 215 766 215 858 215 c 0,35,36
 946 215 946 215 1019 243 c 0,37,38
 1191 309 1191 309 1294 505 c 0,39,40
 1391 691 1391 691 1391 895 c 0,41,42
 1391 1076 1391 1076 1292 1172 c 0,43,44
 1207 1256 1207 1256 1064 1256 c 0,23,24
1463 1890 m 1,45,-1
 1574 1890 l 1,46,47
 1542 1778 1542 1778 1490 1725 c 0,48,49
 1408 1640 1408 1640 1301 1640 c 0,50,51
 1266 1640 1266 1640 1229 1651 c 0,52,53
 1211 1657 1211 1657 1197 1664 c 2,54,-1
 1094 1715 l 2,55,56
 1037 1743 1037 1743 1004 1743 c 0,57,58
 988 1743 988 1743 972 1734 c 0,59,60
 935 1715 935 1715 900 1645 c 1,61,-1
 790 1645 l 1,62,63
 826 1761 826 1761 890 1823 c 128,-1,64
 954 1885 954 1885 1038 1885 c 0,65,66
 1101 1885 1101 1885 1182 1850 c 2,67,-1
 1285 1806 l 2,68,69
 1327 1786 1327 1786 1352 1786 c 0,70,71
 1421 1786 1421 1786 1463 1890 c 1,45,-1
EndSplineSet
EndChar

StartChar: Odieresis
Encoding: 214 214 140
Width: 1593
GlyphClass: 2
Flags: W
LayerCount: 2
Fore
SplineSet
1126 1884 m 1,0,-1
 1074 1638 l 1,1,-1
 848 1638 l 1,2,-1
 900 1884 l 1,3,-1
 1126 1884 l 1,0,-1
1507 1884 m 1,4,-1
 1455 1638 l 1,5,-1
 1229 1638 l 1,6,-1
 1281 1884 l 1,7,-1
 1507 1884 l 1,4,-1
1102 1518 m 0,8,9
 1250 1518 1250 1518 1372 1471 c 0,10,11
 1567 1397 1567 1397 1646 1207 c 0,12,13
 1696 1086 1696 1086 1696 931 c 0,14,15
 1696 733 1696 733 1617 538 c 0,16,17
 1500 251 1500 251 1260 84 c 0,18,19
 1070 -47 1070 -47 809 -47 c 0,20,21
 597 -47 597 -47 451 49 c 0,22,23
 337 123 337 123 277 248 c 128,-1,24
 217 373 217 373 217 535 c 0,25,26
 217 634 217 634 238 735 c 0,27,28
 289 972 289 972 432 1167 c 0,29,30
 691 1518 691 1518 1102 1518 c 0,8,9
1064 1256 m 0,31,32
 977 1256 977 1256 903 1228 c 0,33,34
 726 1160 726 1160 622 966 c 0,35,36
 522 780 522 780 522 578 c 0,37,38
 522 494 522 494 548 419 c 0,39,40
 588 304 588 304 692 252 c 0,41,42
 766 215 766 215 858 215 c 0,43,44
 946 215 946 215 1019 243 c 0,45,46
 1191 309 1191 309 1294 505 c 0,47,48
 1391 691 1391 691 1391 895 c 0,49,50
 1391 1076 1391 1076 1292 1172 c 0,51,52
 1207 1256 1207 1256 1064 1256 c 0,31,32
EndSplineSet
EndChar

StartChar: Oslash
Encoding: 216 216 141
Width: 1593
GlyphClass: 2
Flags: W
LayerCount: 2
Fore
SplineSet
371 114 m 1,0,-1
 154 -81 l 1,1,-1
 70 14 l 1,2,-1
 298 218 l 1,3,4
 224 353 224 353 224 538 c 0,5,6
 224 634 224 634 245 735 c 0,7,8
 295 973 295 973 439 1167 c 0,9,10
 701 1518 701 1518 1121 1518 c 0,11,12
 1409 1518 1409 1518 1564 1350 c 1,13,-1
 1770 1534 l 1,14,-1
 1856 1441 l 1,15,-1
 1635 1243 l 1,16,17
 1704 1102 1704 1102 1704 927 c 0,18,19
 1704 733 1704 733 1622 538 c 0,20,21
 1498 242 1498 242 1259 84 c 0,22,23
 1061 -47 1061 -47 808 -47 c 0,24,25
 518 -47 518 -47 371 114 c 1,0,-1
603 321 m 1,26,27
 693 215 693 215 862 215 c 0,28,29
 1098 215 1098 215 1252 429 c 0,30,31
 1321 524 1321 524 1360 649 c 128,-1,32
 1399 774 1399 774 1399 900 c 0,33,34
 1399 965 1399 965 1389 1024 c 1,35,-1
 603 321 l 1,26,27
542 436 m 1,36,-1
 1331 1142 l 1,37,38
 1239 1256 1239 1256 1067 1256 c 0,39,40
 982 1256 982 1256 907 1228 c 0,41,42
 733 1163 733 1163 628 966 c 0,43,44
 529 780 529 780 529 574 c 0,45,46
 529 540 529 540 532 505 c 0,47,48
 535 471 535 471 542 436 c 1,36,-1
EndSplineSet
EndChar

StartChar: Ugrave
Encoding: 217 217 142
Width: 1479
GlyphClass: 2
Flags: W
LayerCount: 2
Fore
SplineSet
881 1917 m 1,0,-1
 1125 1917 l 1,1,-1
 1217 1610 l 1,2,-1
 1087 1610 l 1,3,-1
 881 1917 l 1,0,-1
1350 1493 m 1,4,-1
 1657 1493 l 1,5,-1
 1442 481 l 2,6,7
 1390 238 1390 238 1222 105 c 0,8,9
 1029 -47 1029 -47 749 -47 c 0,10,11
 616 -47 616 -47 496 -4 c 0,12,13
 350 48 350 48 287 165 c 0,14,15
 244 245 244 245 244 343 c 0,16,17
 244 369 244 369 247 401 c 0,18,19
 253 455 253 455 267 522 c 2,20,-1
 473 1493 l 1,21,-1
 781 1493 l 1,22,-1
 565 481 l 2,23,24
 555 432 555 432 555 389 c 0,25,26
 555 319 555 319 599 278 c 0,27,28
 667 215 667 215 806 215 c 0,29,30
 947 215 947 215 1026 279 c 128,-1,31
 1105 343 1105 343 1135 481 c 2,32,-1
 1350 1493 l 1,4,-1
EndSplineSet
EndChar

StartChar: Uacute
Encoding: 218 218 143
Width: 1479
GlyphClass: 2
Flags: W
LayerCount: 2
Fore
SplineSet
1418 1917 m 1,0,-1
 1094 1610 l 1,1,-1
 950 1610 l 1,2,-1
 1159 1917 l 1,3,-1
 1418 1917 l 1,0,-1
1350 1493 m 1,4,-1
 1657 1493 l 1,5,-1
 1442 481 l 2,6,7
 1390 238 1390 238 1222 105 c 0,8,9
 1029 -47 1029 -47 749 -47 c 0,10,11
 616 -47 616 -47 496 -4 c 0,12,13
 350 48 350 48 287 165 c 0,14,15
 244 245 244 245 244 343 c 0,16,17
 244 369 244 369 247 401 c 0,18,19
 253 455 253 455 267 522 c 2,20,-1
 473 1493 l 1,21,-1
 781 1493 l 1,22,-1
 565 481 l 2,23,24
 555 432 555 432 555 389 c 0,25,26
 555 319 555 319 599 278 c 0,27,28
 667 215 667 215 806 215 c 0,29,30
 947 215 947 215 1026 279 c 128,-1,31
 1105 343 1105 343 1135 481 c 2,32,-1
 1350 1493 l 1,4,-1
EndSplineSet
EndChar

StartChar: Ucircumflex
Encoding: 219 219 144
Width: 1479
GlyphClass: 2
Flags: W
LayerCount: 2
Fore
SplineSet
1057 1917 m 1,0,-1
 1278 1917 l 1,1,-1
 1424 1616 l 1,2,-1
 1264 1616 l 1,3,-1
 1140 1815 l 1,4,-1
 929 1616 l 1,5,-1
 772 1616 l 1,6,-1
 1057 1917 l 1,0,-1
1350 1493 m 1,7,-1
 1657 1493 l 1,8,-1
 1442 481 l 2,9,10
 1390 238 1390 238 1222 105 c 0,11,12
 1029 -47 1029 -47 749 -47 c 0,13,14
 616 -47 616 -47 496 -4 c 0,15,16
 350 48 350 48 287 165 c 0,17,18
 244 245 244 245 244 343 c 0,19,20
 244 369 244 369 247 401 c 0,21,22
 253 455 253 455 267 522 c 2,23,-1
 473 1493 l 1,24,-1
 781 1493 l 1,25,-1
 565 481 l 2,26,27
 555 432 555 432 555 389 c 0,28,29
 555 319 555 319 599 278 c 0,30,31
 667 215 667 215 806 215 c 0,32,33
 947 215 947 215 1026 279 c 128,-1,34
 1105 343 1105 343 1135 481 c 2,35,-1
 1350 1493 l 1,7,-1
EndSplineSet
EndChar

StartChar: Udieresis
Encoding: 220 220 145
Width: 1479
GlyphClass: 2
Flags: W
LayerCount: 2
Fore
SplineSet
1063 1884 m 1,0,-1
 1010 1638 l 1,1,-1
 785 1638 l 1,2,-1
 837 1884 l 1,3,-1
 1063 1884 l 1,0,-1
1444 1884 m 1,4,-1
 1391 1638 l 1,5,-1
 1166 1638 l 1,6,-1
 1218 1884 l 1,7,-1
 1444 1884 l 1,4,-1
1350 1493 m 1,8,-1
 1657 1493 l 1,9,-1
 1442 481 l 2,10,11
 1390 238 1390 238 1222 105 c 0,12,13
 1029 -47 1029 -47 749 -47 c 0,14,15
 616 -47 616 -47 496 -4 c 0,16,17
 350 48 350 48 287 165 c 0,18,19
 244 245 244 245 244 343 c 0,20,21
 244 369 244 369 247 401 c 0,22,23
 253 455 253 455 267 522 c 2,24,-1
 473 1493 l 1,25,-1
 781 1493 l 1,26,-1
 565 481 l 2,27,28
 555 432 555 432 555 389 c 0,29,30
 555 319 555 319 599 278 c 0,31,32
 667 215 667 215 806 215 c 0,33,34
 947 215 947 215 1026 279 c 128,-1,35
 1105 343 1105 343 1135 481 c 2,36,-1
 1350 1493 l 1,8,-1
EndSplineSet
EndChar

StartChar: Yacute
Encoding: 221 221 146
Width: 1366
GlyphClass: 2
Flags: W
LayerCount: 2
Fore
SplineSet
977 553 m 1,0,-1
 859 0 l 1,1,-1
 552 0 l 1,2,-1
 670 553 l 1,3,-1
 373 1493 l 1,4,-1
 716 1493 l 1,5,-1
 884 848 l 1,6,-1
 1306 1493 l 1,7,-1
 1649 1493 l 1,8,-1
 977 553 l 1,0,-1
1369 1917 m 1,9,-1
 1045 1610 l 1,10,-1
 902 1610 l 1,11,-1
 1110 1917 l 1,12,-1
 1369 1917 l 1,9,-1
EndSplineSet
EndChar

StartChar: germandbls
Encoding: 223 223 147
Width: 1251
GlyphClass: 3
Flags: W
LayerCount: 2
Fore
SplineSet
735 714 m 1,0,-1
 777 909 l 1,1,-1
 791 909 l 2,2,3
 929 909 929 909 998 997 c 0,4,5
 1046 1059 1046 1059 1046 1131 c 0,6,7
 1046 1193 1046 1193 998 1228.5 c 128,-1,8
 950 1264 950 1264 864 1264 c 0,9,10
 827 1264 827 1264 795 1256 c 0,11,12
 685 1229 685 1229 658 1101 c 2,13,-1
 424 0 l 1,14,-1
 137 0 l 1,15,-1
 380 1143 l 2,16,17
 422 1340 422 1340 618 1429 c 0,18,19
 758 1493 758 1493 925 1493 c 0,20,21
 1017 1493 1017 1493 1103 1469 c 0,22,23
 1226 1435 1226 1435 1287 1351 c 0,24,25
 1339 1279 1339 1279 1339 1191 c 0,26,27
 1339 1071 1339 1071 1271.5 976.5 c 128,-1,28
 1204 882 1204 882 1089 843 c 1,29,30
 1157 827 1157 827 1206 784 c 0,31,32
 1245 750 1245 750 1267.5 691.5 c 128,-1,33
 1290 633 1290 633 1290 567 c 0,34,35
 1290 529 1290 529 1282 481 c 0,36,37
 1248 291 1248 291 1131 153 c 0,38,39
 961 -47 961 -47 714 -47 c 0,40,41
 667 -47 667 -47 607 -38 c 0,42,43
 597 -37 597 -37 576 -34 c 1,44,-1
 625 196 l 1,45,46
 720 196 720 196 763.5 206 c 128,-1,47
 807 216 807 216 855 248 c 0,48,49
 921 291 921 291 959 363 c 128,-1,50
 997 435 997 435 997 515 c 0,51,52
 997 594 997 594 959 645 c 0,53,54
 907 715 907 715 765 715 c 0,55,56
 756 715 756 715 735 714 c 1,0,-1
EndSplineSet
EndChar

StartChar: agrave
Encoding: 224 224 148
Width: 1139
GlyphClass: 2
Flags: W
LayerCount: 2
Fore
SplineSet
621 1550 m 1,0,-1
 865 1550 l 1,1,-1
 957 1243 l 1,2,-1
 827 1243 l 1,3,-1
 621 1550 l 1,0,-1
1079 35 m 1,4,-1
 1071 0 l 1,5,-1
 758 0 l 1,6,7
 743 29 743 29 743 54 c 0,8,9
 743 73 743 73 749 110 c 1,10,11
 575 -47 575 -47 408 -47 c 0,12,13
 275 -47 275 -47 199 16 c 0,14,15
 102 96 102 96 102 221 c 0,16,17
 102 313 102 313 149 400.5 c 128,-1,18
 196 488 196 488 277 546 c 0,19,20
 372 614 372 614 517 637 c 2,21,-1
 634 655 l 2,22,23
 744 671 744 671 767.5 676 c 128,-1,24
 791 681 791 681 823 698 c 0,25,26
 854 713 854 713 873 743 c 128,-1,27
 892 773 892 773 892 806 c 0,28,29
 892 827 892 827 883 845 c 0,30,31
 859 894 859 894 743 894 c 0,32,33
 711 894 711 894 679 889 c 0,34,35
 610 878 610 878 573 845.5 c 128,-1,36
 536 813 536 813 513 741 c 1,37,-1
 245 741 l 1,38,39
 288 941 288 941 418 1032.5 c 128,-1,40
 548 1124 548 1124 790 1124 c 0,41,42
 878 1124 878 1124 956 1109 c 0,43,44
 1096 1083 1096 1083 1152 985 c 0,45,46
 1183 929 1183 929 1183 877 c 0,47,48
 1183 837 1183 837 1171 783 c 2,49,-1
 1041 170 l 2,50,51
 1036 145 1036 145 1036 127 c 0,52,53
 1036 84 1036 84 1079 35 c 1,4,-1
835 521 m 1,54,55
 809 508 809 508 794.5 504 c 128,-1,56
 780 500 780 500 706 488 c 2,57,-1
 604 471 l 2,58,59
 489 451 489 451 438 394 c 0,60,61
 395 345 395 345 395 284 c 0,62,63
 395 182 395 182 544 182 c 0,64,65
 577 182 577 182 604 188 c 0,66,67
 684 205 684 205 740 271.5 c 128,-1,68
 796 338 796 338 818 443 c 2,69,-1
 835 521 l 1,54,55
EndSplineSet
EndChar

StartChar: aacute
Encoding: 225 225 149
Width: 1139
GlyphClass: 2
Flags: W
LayerCount: 2
Fore
SplineSet
1202 1550 m 1,0,-1
 878 1242 l 1,1,-1
 735 1242 l 1,2,-1
 943 1550 l 1,3,-1
 1202 1550 l 1,0,-1
1079 35 m 1,4,-1
 1071 0 l 1,5,-1
 758 0 l 1,6,7
 743 29 743 29 743 54 c 0,8,9
 743 73 743 73 749 110 c 1,10,11
 575 -47 575 -47 408 -47 c 0,12,13
 275 -47 275 -47 199 16 c 0,14,15
 102 96 102 96 102 221 c 0,16,17
 102 313 102 313 149 400.5 c 128,-1,18
 196 488 196 488 277 546 c 0,19,20
 372 614 372 614 517 637 c 2,21,-1
 634 655 l 2,22,23
 744 671 744 671 767.5 676 c 128,-1,24
 791 681 791 681 823 698 c 0,25,26
 854 713 854 713 873 743 c 128,-1,27
 892 773 892 773 892 806 c 0,28,29
 892 827 892 827 883 845 c 0,30,31
 859 894 859 894 743 894 c 0,32,33
 711 894 711 894 679 889 c 0,34,35
 610 878 610 878 573 845.5 c 128,-1,36
 536 813 536 813 513 741 c 1,37,-1
 245 741 l 1,38,39
 288 941 288 941 418 1032.5 c 128,-1,40
 548 1124 548 1124 790 1124 c 0,41,42
 878 1124 878 1124 956 1109 c 0,43,44
 1096 1083 1096 1083 1152 985 c 0,45,46
 1183 929 1183 929 1183 877 c 0,47,48
 1183 837 1183 837 1171 783 c 2,49,-1
 1041 170 l 2,50,51
 1036 145 1036 145 1036 127 c 0,52,53
 1036 84 1036 84 1079 35 c 1,4,-1
835 521 m 1,54,55
 809 508 809 508 794.5 504 c 128,-1,56
 780 500 780 500 706 488 c 2,57,-1
 604 471 l 2,58,59
 489 451 489 451 438 394 c 0,60,61
 395 345 395 345 395 284 c 0,62,63
 395 182 395 182 544 182 c 0,64,65
 577 182 577 182 604 188 c 0,66,67
 684 205 684 205 740 271.5 c 128,-1,68
 796 338 796 338 818 443 c 2,69,-1
 835 521 l 1,54,55
EndSplineSet
EndChar

StartChar: acircumflex
Encoding: 226 226 150
Width: 1139
GlyphClass: 2
Flags: W
LayerCount: 2
Fore
SplineSet
791 1550 m 1,0,-1
 1011 1550 l 1,1,-1
 1157 1249 l 1,2,-1
 997 1249 l 1,3,-1
 873 1448 l 1,4,-1
 662 1249 l 1,5,-1
 505 1249 l 1,6,-1
 791 1550 l 1,0,-1
1079 35 m 1,7,-1
 1071 0 l 1,8,-1
 758 0 l 1,9,10
 743 29 743 29 743 54 c 0,11,12
 743 73 743 73 749 110 c 1,13,14
 575 -47 575 -47 408 -47 c 0,15,16
 275 -47 275 -47 199 16 c 0,17,18
 102 96 102 96 102 221 c 0,19,20
 102 313 102 313 149 400.5 c 128,-1,21
 196 488 196 488 277 546 c 0,22,23
 372 614 372 614 517 637 c 2,24,-1
 634 655 l 2,25,26
 744 671 744 671 767.5 676 c 128,-1,27
 791 681 791 681 823 698 c 0,28,29
 854 713 854 713 873 743 c 128,-1,30
 892 773 892 773 892 806 c 0,31,32
 892 827 892 827 883 845 c 0,33,34
 859 894 859 894 743 894 c 0,35,36
 711 894 711 894 679 889 c 0,37,38
 610 878 610 878 573 845.5 c 128,-1,39
 536 813 536 813 513 741 c 1,40,-1
 245 741 l 1,41,42
 288 941 288 941 418 1032.5 c 128,-1,43
 548 1124 548 1124 790 1124 c 0,44,45
 878 1124 878 1124 956 1109 c 0,46,47
 1096 1083 1096 1083 1152 985 c 0,48,49
 1183 929 1183 929 1183 877 c 0,50,51
 1183 837 1183 837 1171 783 c 2,52,-1
 1041 170 l 2,53,54
 1036 145 1036 145 1036 127 c 0,55,56
 1036 84 1036 84 1079 35 c 1,7,-1
835 521 m 1,57,58
 809 508 809 508 794.5 504 c 128,-1,59
 780 500 780 500 706 488 c 2,60,-1
 604 471 l 2,61,62
 489 451 489 451 438 394 c 0,63,64
 395 345 395 345 395 284 c 0,65,66
 395 182 395 182 544 182 c 0,67,68
 577 182 577 182 604 188 c 0,69,70
 684 205 684 205 740 271.5 c 128,-1,71
 796 338 796 338 818 443 c 2,72,-1
 835 521 l 1,57,58
EndSplineSet
EndChar

StartChar: atilde
Encoding: 227 227 151
Width: 1139
GlyphClass: 2
Flags: W
LayerCount: 2
Fore
SplineSet
1079 35 m 1,0,-1
 1071 0 l 1,1,-1
 758 0 l 1,2,3
 743 29 743 29 743 54 c 0,4,5
 743 73 743 73 749 110 c 1,6,7
 575 -47 575 -47 408 -47 c 0,8,9
 275 -47 275 -47 199 16 c 0,10,11
 102 96 102 96 102 221 c 0,12,13
 102 313 102 313 149 400.5 c 128,-1,14
 196 488 196 488 277 546 c 0,15,16
 372 614 372 614 517 637 c 2,17,-1
 634 655 l 2,18,19
 744 671 744 671 767.5 676 c 128,-1,20
 791 681 791 681 823 698 c 0,21,22
 854 713 854 713 873 743 c 128,-1,23
 892 773 892 773 892 806 c 0,24,25
 892 827 892 827 883 845 c 0,26,27
 859 894 859 894 743 894 c 0,28,29
 711 894 711 894 679 889 c 0,30,31
 610 878 610 878 573 845.5 c 128,-1,32
 536 813 536 813 513 741 c 1,33,-1
 245 741 l 1,34,35
 288 941 288 941 418 1032.5 c 128,-1,36
 548 1124 548 1124 790 1124 c 0,37,38
 878 1124 878 1124 956 1109 c 0,39,40
 1096 1083 1096 1083 1152 985 c 0,41,42
 1183 929 1183 929 1183 877 c 0,43,44
 1183 837 1183 837 1171 783 c 2,45,-1
 1041 170 l 2,46,47
 1036 145 1036 145 1036 127 c 0,48,49
 1036 84 1036 84 1079 35 c 1,0,-1
835 521 m 1,50,51
 809 508 809 508 794.5 504 c 128,-1,52
 780 500 780 500 706 488 c 2,53,-1
 604 471 l 2,54,55
 489 451 489 451 438 394 c 0,56,57
 395 345 395 345 395 284 c 0,58,59
 395 182 395 182 544 182 c 0,60,61
 577 182 577 182 604 188 c 0,62,63
 684 205 684 205 740 271.5 c 128,-1,64
 796 338 796 338 818 443 c 2,65,-1
 835 521 l 1,50,51
1142 1523 m 1,66,-1
 1253 1523 l 1,67,68
 1222 1412 1222 1412 1169 1358 c 0,69,70
 1087 1273 1087 1273 980 1273 c 0,71,72
 945 1273 945 1273 908 1284 c 0,73,74
 890 1290 890 1290 876 1297 c 2,75,-1
 773 1347 l 2,76,77
 716 1376 716 1376 683 1376 c 0,78,79
 667 1376 667 1376 651 1367 c 0,80,81
 615 1349 615 1349 579 1278 c 1,82,-1
 469 1278 l 1,83,84
 505 1394 505 1394 569 1456 c 128,-1,85
 633 1518 633 1518 717 1518 c 0,86,87
 779 1518 779 1518 861 1483 c 2,88,-1
 964 1439 l 2,89,90
 1005 1419 1005 1419 1031 1419 c 0,91,92
 1100 1419 1100 1419 1142 1523 c 1,66,-1
EndSplineSet
EndChar

StartChar: adieresis
Encoding: 228 228 152
Width: 1139
GlyphClass: 2
Flags: W
LayerCount: 2
Fore
SplineSet
809 1517 m 1,0,-1
 756 1271 l 1,1,-1
 530 1271 l 1,2,-1
 583 1517 l 1,3,-1
 809 1517 l 1,0,-1
1189 1517 m 1,4,-1
 1137 1271 l 1,5,-1
 911 1271 l 1,6,-1
 964 1517 l 1,7,-1
 1189 1517 l 1,4,-1
1079 35 m 1,8,-1
 1071 0 l 1,9,-1
 758 0 l 1,10,11
 743 29 743 29 743 54 c 0,12,13
 743 73 743 73 749 110 c 1,14,15
 575 -47 575 -47 408 -47 c 0,16,17
 275 -47 275 -47 199 16 c 0,18,19
 102 96 102 96 102 221 c 0,20,21
 102 313 102 313 149 400.5 c 128,-1,22
 196 488 196 488 277 546 c 0,23,24
 372 614 372 614 517 637 c 2,25,-1
 634 655 l 2,26,27
 744 671 744 671 767.5 676 c 128,-1,28
 791 681 791 681 823 698 c 0,29,30
 854 713 854 713 873 743 c 128,-1,31
 892 773 892 773 892 806 c 0,32,33
 892 827 892 827 883 845 c 0,34,35
 859 894 859 894 743 894 c 0,36,37
 711 894 711 894 679 889 c 0,38,39
 610 878 610 878 573 845.5 c 128,-1,40
 536 813 536 813 513 741 c 1,41,-1
 245 741 l 1,42,43
 288 941 288 941 418 1032.5 c 128,-1,44
 548 1124 548 1124 790 1124 c 0,45,46
 878 1124 878 1124 956 1109 c 0,47,48
 1096 1083 1096 1083 1152 985 c 0,49,50
 1183 929 1183 929 1183 877 c 0,51,52
 1183 837 1183 837 1171 783 c 2,53,-1
 1041 170 l 2,54,55
 1036 145 1036 145 1036 127 c 0,56,57
 1036 84 1036 84 1079 35 c 1,8,-1
835 521 m 1,58,59
 809 508 809 508 794.5 504 c 128,-1,60
 780 500 780 500 706 488 c 2,61,-1
 604 471 l 2,62,63
 489 451 489 451 438 394 c 0,64,65
 395 345 395 345 395 284 c 0,66,67
 395 182 395 182 544 182 c 0,68,69
 577 182 577 182 604 188 c 0,70,71
 684 205 684 205 740 271.5 c 128,-1,72
 796 338 796 338 818 443 c 2,73,-1
 835 521 l 1,58,59
EndSplineSet
EndChar

StartChar: aring
Encoding: 229 229 153
Width: 1139
GlyphClass: 2
Flags: W
LayerCount: 2
Fore
SplineSet
1079 35 m 1,0,-1
 1071 0 l 1,1,-1
 758 0 l 1,2,3
 743 29 743 29 743 54 c 0,4,5
 743 73 743 73 749 110 c 1,6,7
 575 -47 575 -47 408 -47 c 0,8,9
 275 -47 275 -47 199 16 c 0,10,11
 102 96 102 96 102 221 c 0,12,13
 102 313 102 313 149 400.5 c 128,-1,14
 196 488 196 488 277 546 c 0,15,16
 372 614 372 614 517 637 c 2,17,-1
 634 655 l 2,18,19
 744 671 744 671 767.5 676 c 128,-1,20
 791 681 791 681 823 698 c 0,21,22
 854 713 854 713 873 743 c 128,-1,23
 892 773 892 773 892 806 c 0,24,25
 892 827 892 827 883 845 c 0,26,27
 859 894 859 894 743 894 c 0,28,29
 711 894 711 894 679 889 c 0,30,31
 610 878 610 878 573 845.5 c 128,-1,32
 536 813 536 813 513 741 c 1,33,-1
 245 741 l 1,34,35
 288 941 288 941 418 1032.5 c 128,-1,36
 548 1124 548 1124 790 1124 c 0,37,38
 878 1124 878 1124 956 1109 c 0,39,40
 1096 1083 1096 1083 1152 985 c 0,41,42
 1183 929 1183 929 1183 877 c 0,43,44
 1183 837 1183 837 1171 783 c 2,45,-1
 1041 170 l 2,46,47
 1036 145 1036 145 1036 127 c 0,48,49
 1036 84 1036 84 1079 35 c 1,0,-1
835 521 m 1,50,51
 809 508 809 508 794.5 504 c 128,-1,52
 780 500 780 500 706 488 c 2,53,-1
 604 471 l 2,54,55
 489 451 489 451 438 394 c 0,56,57
 395 345 395 345 395 284 c 0,58,59
 395 182 395 182 544 182 c 0,60,61
 577 182 577 182 604 188 c 0,62,63
 684 205 684 205 740 271.5 c 128,-1,64
 796 338 796 338 818 443 c 2,65,-1
 835 521 l 1,50,51
902 1584 m 0,66,67
 938 1584 938 1584 968 1570 c 0,68,69
 1050 1532 1050 1532 1050 1438 c 0,70,71
 1050 1357 1050 1357 988 1291 c 0,72,73
 917 1215 917 1215 820 1215 c 0,74,75
 756 1215 756 1215 714.5 1256 c 128,-1,76
 673 1297 673 1297 673 1361 c 0,77,78
 673 1381 673 1381 677 1400 c 0,79,80
 693 1476 693 1476 758.5 1530 c 128,-1,81
 824 1584 824 1584 902 1584 c 0,66,67
882 1482 m 0,82,83
 863 1482 863 1482 847 1476 c 0,84,85
 815 1464 815 1464 794 1438 c 128,-1,86
 773 1412 773 1412 773 1383 c 256,87,88
 773 1354 773 1354 793 1335.5 c 128,-1,89
 813 1317 813 1317 843 1317 c 0,90,91
 862 1317 862 1317 879 1323 c 0,92,93
 909 1335 909 1335 929.5 1362 c 128,-1,94
 950 1389 950 1389 950 1418 c 0,95,96
 950 1446 950 1446 931 1464 c 128,-1,97
 912 1482 912 1482 882 1482 c 0,82,83
EndSplineSet
EndChar

StartChar: ae
Encoding: 230 230 154
Width: 1821
GlyphClass: 3
Flags: W
LayerCount: 2
Fore
SplineSet
870 158 m 1,0,1
 785 67 785 67 715 23 c 0,2,3
 601 -47 601 -47 428 -47 c 0,4,5
 346 -47 346 -47 277 -24 c 0,6,7
 206 -1 206 -1 163 55 c 0,8,9
 110 123 110 123 110 217 c 0,10,11
 110 325 110 325 169 420 c 0,12,13
 277 597 277 597 525 636 c 2,14,-1
 641 655 l 2,15,16
 752 670 752 670 776 675.5 c 128,-1,17
 800 681 800 681 832 697 c 0,18,19
 863 713 863 713 882 743 c 128,-1,20
 901 773 901 773 901 806 c 0,21,22
 901 827 901 827 892 845 c 0,23,24
 868 894 868 894 752 894 c 0,25,26
 652 894 652 894 600 859.5 c 128,-1,27
 548 825 548 825 521 741 c 1,28,-1
 253 741 l 1,29,30
 289 918 289 918 382 1000 c 0,31,32
 522 1124 522 1124 803 1124 c 0,33,34
 889 1124 889 1124 964 1109 c 0,35,36
 1069 1089 1069 1089 1131 1025 c 1,37,38
 1278 1124 1278 1124 1470 1124 c 0,39,40
 1692 1124 1692 1124 1805 984 c 0,41,42
 1898 867 1898 867 1898 718 c 0,43,44
 1898 602 1898 602 1862 463 c 1,45,-1
 1119 463 l 1,46,47
 1105 397 1105 397 1105 357 c 0,48,49
 1105 285 1105 285 1150 239 c 0,50,51
 1206 182 1206 182 1302 182 c 0,52,53
 1377 182 1377 182 1440.5 217 c 128,-1,54
 1504 252 1504 252 1535 311 c 1,55,-1
 1818 311 l 1,56,57
 1751 177 1751 177 1633 87 c 0,58,59
 1458 -47 1458 -47 1240 -47 c 0,60,61
 1138 -47 1138 -47 1048 -12 c 0,62,63
 922 38 922 38 870 158 c 1,0,1
843 521 m 1,64,65
 817 507 817 507 802.5 503.5 c 128,-1,66
 788 500 788 500 714 488 c 2,67,-1
 611 470 l 2,68,69
 523 456 523 456 474 419 c 0,70,71
 403 366 403 366 403 284 c 0,72,73
 403 182 403 182 549 182 c 0,74,75
 655 182 655 182 725 247 c 0,76,77
 799 316 799 316 826 443 c 2,78,-1
 843 521 l 1,64,65
1604 653 m 1,79,80
 1605 693 1605 693 1605 708 c 0,81,82
 1605 732 1605 732 1603 752 c 0,83,84
 1596 816 1596 816 1549 855 c 128,-1,85
 1502 894 1502 894 1431 894 c 0,86,87
 1332 894 1332 894 1264 833 c 128,-1,88
 1196 772 1196 772 1163 653 c 1,89,-1
 1604 653 l 1,79,80
EndSplineSet
EndChar

StartChar: ccedilla
Encoding: 231 231 155
Width: 1139
GlyphClass: 2
Flags: W
LayerCount: 2
Fore
SplineSet
590 -46 m 1,0,-1
 536 -127 l 1,1,2
 580 -114 580 -114 624 -114 c 0,3,4
 683 -114 683 -114 714 -139 c 0,5,6
 755 -173 755 -173 755 -232 c 0,7,8
 755 -331 755 -331 671 -390.5 c 128,-1,9
 587 -450 587 -450 447 -450 c 0,10,11
 396 -450 396 -450 352 -443 c 0,12,13
 280 -432 280 -432 175 -392 c 1,14,-1
 236 -285 l 1,15,16
 363 -348 363 -348 438 -348 c 0,17,18
 497 -348 497 -348 537 -322 c 128,-1,19
 577 -296 577 -296 577 -258 c 0,20,21
 577 -236 577 -236 561 -218 c 0,22,23
 537 -190 537 -190 486 -190 c 0,24,25
 441 -190 441 -190 377 -217 c 1,26,-1
 493 -38 l 1,27,28
 395 -19 395 -19 345 8 c 0,29,30
 258 56 258 56 208 150 c 0,31,32
 158 247 158 247 158 354 c 0,33,34
 158 440 158 440 179 533 c 0,35,36
 251 851 251 851 441 1007 c 0,37,38
 585 1124 585 1124 815 1124 c 0,39,40
 919 1124 919 1124 1000 1095 c 0,41,42
 1109 1055 1109 1055 1175 948 c 0,43,44
 1223 870 1223 870 1223 780 c 0,45,46
 1223 754 1223 754 1215 692 c 1,47,-1
 941 692 l 1,48,49
 939 789 939 789 917 826 c 0,50,51
 878 894 878 894 773 894 c 0,52,53
 716 894 716 894 668 873 c 0,54,55
 563 828 563 828 502 662 c 0,56,57
 451 526 451 526 451 393 c 0,58,59
 451 305 451 305 482 250 c 0,60,61
 499 220 499 220 541.5 201 c 128,-1,62
 584 182 584 182 634 182 c 0,63,64
 717 182 717 182 772 228 c 128,-1,65
 827 274 827 274 875 383 c 1,66,-1
 1149 383 l 1,67,68
 1084 177 1084 177 938.5 65.5 c 128,-1,69
 793 -46 793 -46 590 -46 c 1,0,-1
EndSplineSet
EndChar

StartChar: egrave
Encoding: 232 232 156
Width: 1139
GlyphClass: 2
Flags: W
LayerCount: 2
Fore
SplineSet
608 1550 m 1,0,-1
 852 1550 l 1,1,-1
 944 1243 l 1,2,-1
 814 1243 l 1,3,-1
 608 1550 l 1,0,-1
1174 463 m 1,4,-1
 429 463 l 1,5,6
 424 396 424 396 424 371 c 0,7,8
 424 352 424 352 426 336 c 0,9,10
 435 267 435 267 488 224.5 c 128,-1,11
 541 182 541 182 618 182 c 0,12,13
 692 182 692 182 755 217.5 c 128,-1,14
 818 253 818 253 847 311 c 1,15,-1
 1130 311 l 1,16,17
 1064 178 1064 178 954 87 c 0,18,19
 792 -47 792 -47 563 -47 c 0,20,21
 477 -47 477 -47 399 -21 c 0,22,23
 259 25 259 25 187 155 c 0,24,25
 131 255 131 255 131 378 c 0,26,27
 131 585 131 585 239 794 c 0,28,29
 293 897 293 897 355.5 960.5 c 128,-1,30
 418 1024 418 1024 508 1065 c 0,31,32
 635 1124 635 1124 776 1124 c 0,33,34
 921 1124 921 1124 1026 1063 c 0,35,36
 1111 1014 1111 1014 1161 915 c 0,37,38
 1210 819 1210 819 1210 716 c 0,39,40
 1210 600 1210 600 1174 463 c 1,4,-1
917 653 m 1,41,-1
 917 714 l 2,42,43
 917 786 917 786 880 833 c 0,44,45
 832 894 832 894 740 894 c 0,46,47
 638 894 638 894 569 833 c 128,-1,48
 500 772 500 772 468 653 c 1,49,-1
 917 653 l 1,41,-1
EndSplineSet
EndChar

StartChar: eacute
Encoding: 233 233 157
Width: 1139
GlyphClass: 2
Flags: W
LayerCount: 2
Fore
SplineSet
1151 1550 m 1,0,-1
 827 1242 l 1,1,-1
 684 1242 l 1,2,-1
 892 1550 l 1,3,-1
 1151 1550 l 1,0,-1
1174 463 m 1,4,-1
 429 463 l 1,5,6
 424 396 424 396 424 371 c 0,7,8
 424 352 424 352 426 336 c 0,9,10
 435 267 435 267 488 224.5 c 128,-1,11
 541 182 541 182 618 182 c 0,12,13
 692 182 692 182 755 217.5 c 128,-1,14
 818 253 818 253 847 311 c 1,15,-1
 1130 311 l 1,16,17
 1064 178 1064 178 954 87 c 0,18,19
 792 -47 792 -47 563 -47 c 0,20,21
 477 -47 477 -47 399 -21 c 0,22,23
 259 25 259 25 187 155 c 0,24,25
 131 255 131 255 131 378 c 0,26,27
 131 585 131 585 239 794 c 0,28,29
 293 897 293 897 355.5 960.5 c 128,-1,30
 418 1024 418 1024 508 1065 c 0,31,32
 635 1124 635 1124 776 1124 c 0,33,34
 921 1124 921 1124 1026 1063 c 0,35,36
 1111 1014 1111 1014 1161 915 c 0,37,38
 1210 819 1210 819 1210 716 c 0,39,40
 1210 600 1210 600 1174 463 c 1,4,-1
917 653 m 1,41,-1
 917 714 l 2,42,43
 917 786 917 786 880 833 c 0,44,45
 832 894 832 894 740 894 c 0,46,47
 638 894 638 894 569 833 c 128,-1,48
 500 772 500 772 468 653 c 1,49,-1
 917 653 l 1,41,-1
EndSplineSet
EndChar

StartChar: ecircumflex
Encoding: 234 234 158
Width: 1139
GlyphClass: 2
Flags: W
LayerCount: 2
Fore
SplineSet
773 1550 m 1,0,-1
 993 1550 l 1,1,-1
 1140 1249 l 1,2,-1
 980 1249 l 1,3,-1
 856 1448 l 1,4,-1
 645 1249 l 1,5,-1
 488 1249 l 1,6,-1
 773 1550 l 1,0,-1
1174 463 m 1,7,-1
 429 463 l 1,8,9
 424 396 424 396 424 371 c 0,10,11
 424 352 424 352 426 336 c 0,12,13
 435 267 435 267 488 224.5 c 128,-1,14
 541 182 541 182 618 182 c 0,15,16
 692 182 692 182 755 217.5 c 128,-1,17
 818 253 818 253 847 311 c 1,18,-1
 1130 311 l 1,19,20
 1064 178 1064 178 954 87 c 0,21,22
 792 -47 792 -47 563 -47 c 0,23,24
 477 -47 477 -47 399 -21 c 0,25,26
 259 25 259 25 187 155 c 0,27,28
 131 255 131 255 131 378 c 0,29,30
 131 585 131 585 239 794 c 0,31,32
 293 897 293 897 355.5 960.5 c 128,-1,33
 418 1024 418 1024 508 1065 c 0,34,35
 635 1124 635 1124 776 1124 c 0,36,37
 921 1124 921 1124 1026 1063 c 0,38,39
 1111 1014 1111 1014 1161 915 c 0,40,41
 1210 819 1210 819 1210 716 c 0,42,43
 1210 600 1210 600 1174 463 c 1,7,-1
917 653 m 1,44,-1
 917 714 l 2,45,46
 917 786 917 786 880 833 c 0,47,48
 832 894 832 894 740 894 c 0,49,50
 638 894 638 894 569 833 c 128,-1,51
 500 772 500 772 468 653 c 1,52,-1
 917 653 l 1,44,-1
EndSplineSet
EndChar

StartChar: edieresis
Encoding: 235 235 159
Width: 1139
GlyphClass: 2
Flags: W
LayerCount: 2
Fore
SplineSet
804 1517 m 1,0,-1
 751 1271 l 1,1,-1
 525 1271 l 1,2,-1
 578 1517 l 1,3,-1
 804 1517 l 1,0,-1
1185 1517 m 1,4,-1
 1132 1271 l 1,5,-1
 906 1271 l 1,6,-1
 959 1517 l 1,7,-1
 1185 1517 l 1,4,-1
1174 463 m 1,8,-1
 429 463 l 1,9,10
 424 396 424 396 424 371 c 0,11,12
 424 352 424 352 426 336 c 0,13,14
 435 267 435 267 488 224.5 c 128,-1,15
 541 182 541 182 618 182 c 0,16,17
 692 182 692 182 755 217.5 c 128,-1,18
 818 253 818 253 847 311 c 1,19,-1
 1130 311 l 1,20,21
 1064 178 1064 178 954 87 c 0,22,23
 792 -47 792 -47 563 -47 c 0,24,25
 477 -47 477 -47 399 -21 c 0,26,27
 259 25 259 25 187 155 c 0,28,29
 131 255 131 255 131 378 c 0,30,31
 131 585 131 585 239 794 c 0,32,33
 293 897 293 897 355.5 960.5 c 128,-1,34
 418 1024 418 1024 508 1065 c 0,35,36
 635 1124 635 1124 776 1124 c 0,37,38
 921 1124 921 1124 1026 1063 c 0,39,40
 1111 1014 1111 1014 1161 915 c 0,41,42
 1210 819 1210 819 1210 716 c 0,43,44
 1210 600 1210 600 1174 463 c 1,8,-1
917 653 m 1,45,-1
 917 714 l 2,46,47
 917 786 917 786 880 833 c 0,48,49
 832 894 832 894 740 894 c 0,50,51
 638 894 638 894 569 833 c 128,-1,52
 500 772 500 772 468 653 c 1,53,-1
 917 653 l 1,45,-1
EndSplineSet
EndChar

StartChar: igrave
Encoding: 236 236 160
Width: 569
GlyphClass: 2
Flags: W
LayerCount: 2
Fore
SplineSet
659 1106 m 1,0,-1
 424 0 l 1,1,-1
 137 0 l 1,2,-1
 372 1106 l 1,3,-1
 659 1106 l 1,0,-1
301 1550 m 1,4,-1
 545 1550 l 1,5,-1
 637 1243 l 1,6,-1
 508 1243 l 1,7,-1
 301 1550 l 1,4,-1
EndSplineSet
EndChar

StartChar: iacute
Encoding: 237 237 161
Width: 569
GlyphClass: 2
Flags: W
LayerCount: 2
Fore
SplineSet
659 1106 m 1,0,-1
 424 0 l 1,1,-1
 137 0 l 1,2,-1
 372 1106 l 1,3,-1
 659 1106 l 1,0,-1
917 1550 m 1,4,-1
 593 1242 l 1,5,-1
 450 1242 l 1,6,-1
 658 1550 l 1,7,-1
 917 1550 l 1,4,-1
EndSplineSet
EndChar

StartChar: icircumflex
Encoding: 238 238 162
Width: 569
GlyphClass: 2
Flags: W
LayerCount: 2
Fore
SplineSet
659 1106 m 1,0,-1
 424 0 l 1,1,-1
 137 0 l 1,2,-1
 372 1106 l 1,3,-1
 659 1106 l 1,0,-1
506 1550 m 1,4,-1
 726 1550 l 1,5,-1
 872 1249 l 1,6,-1
 713 1249 l 1,7,-1
 588 1448 l 1,8,-1
 377 1249 l 1,9,-1
 221 1249 l 1,10,-1
 506 1550 l 1,4,-1
EndSplineSet
EndChar

StartChar: idieresis
Encoding: 239 239 163
Width: 569
GlyphClass: 2
Flags: W
LayerCount: 2
Fore
SplineSet
659 1106 m 1,0,-1
 424 0 l 1,1,-1
 137 0 l 1,2,-1
 372 1106 l 1,3,-1
 659 1106 l 1,0,-1
524 1517 m 1,4,-1
 471 1271 l 1,5,-1
 246 1271 l 1,6,-1
 298 1517 l 1,7,-1
 524 1517 l 1,4,-1
905 1517 m 1,8,-1
 852 1271 l 1,9,-1
 626 1271 l 1,10,-1
 679 1517 l 1,11,-1
 905 1517 l 1,8,-1
EndSplineSet
EndChar

StartChar: ntilde
Encoding: 241 241 164
Width: 1251
GlyphClass: 2
Flags: W
LayerCount: 2
Fore
SplineSet
364 1106 m 1,0,-1
 651 1106 l 1,1,-1
 615 937 l 1,2,3
 686 1022 686 1022 753 1061 c 0,4,5
 859 1124 859 1124 988 1124 c 0,6,7
 1050 1124 1050 1124 1104 1108 c 0,8,9
 1189 1082 1189 1082 1238.5 1014 c 128,-1,10
 1288 946 1288 946 1288 855 c 0,11,12
 1288 799 1288 799 1276 742 c 2,13,-1
 1118 0 l 1,14,-1
 831 0 l 1,15,-1
 968 641 l 2,16,17
 981 703 981 703 981 742 c 0,18,19
 981 778 981 778 970 809 c 0,20,21
 941 895 941 895 830 895 c 0,22,23
 712 895 712 895 636 807 c 0,24,25
 571 732 571 732 548 623 c 2,26,-1
 416 0 l 1,27,-1
 129 0 l 1,28,-1
 364 1106 l 1,0,-1
1212 1523 m 1,29,-1
 1323 1523 l 1,30,31
 1292 1412 1292 1412 1239 1358 c 0,32,33
 1157 1273 1157 1273 1050 1273 c 0,34,35
 1015 1273 1015 1273 978 1284 c 0,36,37
 960 1290 960 1290 946 1297 c 2,38,-1
 843 1347 l 2,39,40
 786 1376 786 1376 753 1376 c 0,41,42
 737 1376 737 1376 721 1367 c 0,43,44
 685 1349 685 1349 649 1278 c 1,45,-1
 539 1278 l 1,46,47
 575 1394 575 1394 639 1456 c 128,-1,48
 703 1518 703 1518 787 1518 c 0,49,50
 849 1518 849 1518 931 1483 c 2,51,-1
 1034 1439 l 2,52,53
 1075 1419 1075 1419 1101 1419 c 0,54,55
 1170 1419 1170 1419 1212 1523 c 1,29,-1
EndSplineSet
EndChar

StartChar: ograve
Encoding: 242 242 165
Width: 1251
GlyphClass: 2
Flags: W
LayerCount: 2
Fore
SplineSet
671 1550 m 1,0,-1
 915 1550 l 1,1,-1
 1006 1243 l 1,2,-1
 877 1243 l 1,3,-1
 671 1550 l 1,0,-1
846 1124 m 0,4,5
 970 1124 970 1124 1072 1081 c 0,6,7
 1179 1036 1179 1036 1237 945 c 0,8,9
 1298 849 1298 849 1298 714 c 0,10,11
 1298 581 1298 581 1253.5 441 c 128,-1,12
 1209 301 1209 301 1137 205 c 0,13,14
 948 -47 948 -47 613 -47 c 0,15,16
 517 -47 517 -47 429.5 -17 c 128,-1,17
 342 13 342 13 285 65 c 0,18,19
 168 172 168 172 168 362 c 0,20,21
 168 495 168 495 212 635 c 128,-1,22
 256 775 256 775 329 872 c 0,23,24
 517 1124 517 1124 846 1124 c 0,4,5
801 895 m 0,25,26
 739 895 739 895 683 866 c 0,27,28
 572 808 572 808 511 663 c 0,29,30
 461 543 461 543 461 420 c 0,31,32
 461 344 461 344 488 287 c 0,33,34
 510 240 510 240 558.5 211 c 128,-1,35
 607 182 607 182 663 182 c 0,36,37
 726 182 726 182 783 211 c 0,38,39
 893 268 893 268 955 414 c 0,40,41
 1005 533 1005 533 1005 655 c 0,42,43
 1005 733 1005 733 978 790 c 0,44,45
 955 837 955 837 906.5 866 c 128,-1,46
 858 895 858 895 801 895 c 0,25,26
EndSplineSet
EndChar

StartChar: oacute
Encoding: 243 243 166
Width: 1251
GlyphClass: 2
Flags: W
LayerCount: 2
Fore
SplineSet
1228 1550 m 1,0,-1
 904 1242 l 1,1,-1
 761 1242 l 1,2,-1
 969 1550 l 1,3,-1
 1228 1550 l 1,0,-1
846 1124 m 0,4,5
 970 1124 970 1124 1072 1081 c 0,6,7
 1179 1036 1179 1036 1237 945 c 0,8,9
 1298 849 1298 849 1298 714 c 0,10,11
 1298 581 1298 581 1253.5 441 c 128,-1,12
 1209 301 1209 301 1137 205 c 0,13,14
 948 -47 948 -47 613 -47 c 0,15,16
 517 -47 517 -47 429.5 -17 c 128,-1,17
 342 13 342 13 285 65 c 0,18,19
 168 172 168 172 168 362 c 0,20,21
 168 495 168 495 212 635 c 128,-1,22
 256 775 256 775 329 872 c 0,23,24
 517 1124 517 1124 846 1124 c 0,4,5
801 895 m 0,25,26
 739 895 739 895 683 866 c 0,27,28
 572 808 572 808 511 663 c 0,29,30
 461 543 461 543 461 420 c 0,31,32
 461 344 461 344 488 287 c 0,33,34
 510 240 510 240 558.5 211 c 128,-1,35
 607 182 607 182 663 182 c 0,36,37
 726 182 726 182 783 211 c 0,38,39
 893 268 893 268 955 414 c 0,40,41
 1005 533 1005 533 1005 655 c 0,42,43
 1005 733 1005 733 978 790 c 0,44,45
 955 837 955 837 906.5 866 c 128,-1,46
 858 895 858 895 801 895 c 0,25,26
EndSplineSet
EndChar

StartChar: ocircumflex
Encoding: 244 244 167
Width: 1251
GlyphClass: 2
Flags: W
LayerCount: 2
Fore
SplineSet
850 1550 m 1,0,-1
 1070 1550 l 1,1,-1
 1216 1249 l 1,2,-1
 1056 1249 l 1,3,-1
 932 1448 l 1,4,-1
 721 1249 l 1,5,-1
 565 1249 l 1,6,-1
 850 1550 l 1,0,-1
846 1124 m 0,7,8
 970 1124 970 1124 1072 1081 c 0,9,10
 1179 1036 1179 1036 1237 945 c 0,11,12
 1298 849 1298 849 1298 714 c 0,13,14
 1298 581 1298 581 1253.5 441 c 128,-1,15
 1209 301 1209 301 1137 205 c 0,16,17
 948 -47 948 -47 613 -47 c 0,18,19
 517 -47 517 -47 429.5 -17 c 128,-1,20
 342 13 342 13 285 65 c 0,21,22
 168 172 168 172 168 362 c 0,23,24
 168 495 168 495 212 635 c 128,-1,25
 256 775 256 775 329 872 c 0,26,27
 517 1124 517 1124 846 1124 c 0,7,8
801 895 m 0,28,29
 739 895 739 895 683 866 c 0,30,31
 572 808 572 808 511 663 c 0,32,33
 461 543 461 543 461 420 c 0,34,35
 461 344 461 344 488 287 c 0,36,37
 510 240 510 240 558.5 211 c 128,-1,38
 607 182 607 182 663 182 c 0,39,40
 726 182 726 182 783 211 c 0,41,42
 893 268 893 268 955 414 c 0,43,44
 1005 533 1005 533 1005 655 c 0,45,46
 1005 733 1005 733 978 790 c 0,47,48
 955 837 955 837 906.5 866 c 128,-1,49
 858 895 858 895 801 895 c 0,28,29
EndSplineSet
EndChar

StartChar: otilde
Encoding: 245 245 168
Width: 1251
GlyphClass: 2
Flags: W
LayerCount: 2
Fore
SplineSet
846 1124 m 0,0,1
 970 1124 970 1124 1072 1081 c 0,2,3
 1179 1036 1179 1036 1237 945 c 0,4,5
 1298 849 1298 849 1298 714 c 0,6,7
 1298 581 1298 581 1253.5 441 c 128,-1,8
 1209 301 1209 301 1137 205 c 0,9,10
 948 -47 948 -47 613 -47 c 0,11,12
 517 -47 517 -47 429.5 -17 c 128,-1,13
 342 13 342 13 285 65 c 0,14,15
 168 172 168 172 168 362 c 0,16,17
 168 495 168 495 212 635 c 128,-1,18
 256 775 256 775 329 872 c 0,19,20
 517 1124 517 1124 846 1124 c 0,0,1
801 895 m 0,21,22
 739 895 739 895 683 866 c 0,23,24
 572 808 572 808 511 663 c 0,25,26
 461 543 461 543 461 420 c 0,27,28
 461 344 461 344 488 287 c 0,29,30
 510 240 510 240 558.5 211 c 128,-1,31
 607 182 607 182 663 182 c 0,32,33
 726 182 726 182 783 211 c 0,34,35
 893 268 893 268 955 414 c 0,36,37
 1005 533 1005 533 1005 655 c 0,38,39
 1005 733 1005 733 978 790 c 0,40,41
 955 837 955 837 906.5 866 c 128,-1,42
 858 895 858 895 801 895 c 0,21,22
1198 1523 m 1,43,-1
 1309 1523 l 1,44,45
 1256 1414 1256 1414 1190 1358 c 0,46,47
 1091 1273 1091 1273 983 1273 c 0,48,49
 947 1273 947 1273 913 1284 c 0,50,51
 896 1290 896 1290 884 1297 c 2,52,-1
 792 1347 l 2,53,54
 740 1376 740 1376 708 1376 c 0,55,56
 692 1376 692 1376 673 1367 c 0,57,58
 633 1348 633 1348 583 1278 c 1,59,-1
 472 1278 l 1,60,61
 533 1394 533 1394 610 1456 c 128,-1,62
 687 1518 687 1518 771 1518 c 0,63,64
 787 1518 787 1518 803 1516 c 0,65,66
 847 1512 847 1512 909 1483 c 2,67,-1
 1001 1439 l 2,68,69
 1040 1419 1040 1419 1065 1419 c 0,70,71
 1134 1419 1134 1419 1198 1523 c 1,43,-1
EndSplineSet
EndChar

StartChar: odieresis
Encoding: 246 246 169
Width: 1251
GlyphClass: 2
Flags: W
LayerCount: 2
Fore
SplineSet
862 1517 m 1,0,-1
 810 1271 l 1,1,-1
 584 1271 l 1,2,-1
 637 1517 l 1,3,-1
 862 1517 l 1,0,-1
1243 1517 m 1,4,-1
 1190 1271 l 1,5,-1
 965 1271 l 1,6,-1
 1018 1517 l 1,7,-1
 1243 1517 l 1,4,-1
846 1124 m 0,8,9
 970 1124 970 1124 1072 1081 c 0,10,11
 1179 1036 1179 1036 1237 945 c 0,12,13
 1298 849 1298 849 1298 714 c 0,14,15
 1298 581 1298 581 1253.5 441 c 128,-1,16
 1209 301 1209 301 1137 205 c 0,17,18
 948 -47 948 -47 613 -47 c 0,19,20
 517 -47 517 -47 429.5 -17 c 128,-1,21
 342 13 342 13 285 65 c 0,22,23
 168 172 168 172 168 362 c 0,24,25
 168 495 168 495 212 635 c 128,-1,26
 256 775 256 775 329 872 c 0,27,28
 517 1124 517 1124 846 1124 c 0,8,9
801 895 m 0,29,30
 739 895 739 895 683 866 c 0,31,32
 572 808 572 808 511 663 c 0,33,34
 461 543 461 543 461 420 c 0,35,36
 461 344 461 344 488 287 c 0,37,38
 510 240 510 240 558.5 211 c 128,-1,39
 607 182 607 182 663 182 c 0,40,41
 726 182 726 182 783 211 c 0,42,43
 893 268 893 268 955 414 c 0,44,45
 1005 533 1005 533 1005 655 c 0,46,47
 1005 733 1005 733 978 790 c 0,48,49
 955 837 955 837 906.5 866 c 128,-1,50
 858 895 858 895 801 895 c 0,29,30
EndSplineSet
EndChar

StartChar: divide
Encoding: 247 247 170
Width: 1196
GlyphClass: 2
Flags: W
LayerCount: 2
Fore
SplineSet
1241 598 m 1,0,-1
 1190 352 l 1,1,-1
 158 352 l 1,2,-1
 210 598 l 1,3,-1
 1241 598 l 1,0,-1
652 254 m 0,4,5
 678 254 678 254 698 244 c 0,6,7
 755 218 755 218 755 149 c 0,8,9
 755 92 755 92 706.5 46 c 128,-1,10
 658 0 658 0 598 0 c 0,11,12
 574 0 574 0 553 10 c 0,13,14
 496 35 496 35 496 101 c 0,15,16
 496 160 496 160 544 207 c 128,-1,17
 592 254 592 254 652 254 c 0,4,5
799 946 m 0,18,19
 825 946 825 946 845 936 c 0,20,21
 902 910 902 910 902 842 c 0,22,23
 902 784 902 784 853.5 738 c 128,-1,24
 805 692 805 692 745 692 c 0,25,26
 721 692 721 692 699 702 c 0,27,28
 643 727 643 727 643 793 c 0,29,30
 643 852 643 852 691 899 c 128,-1,31
 739 946 739 946 799 946 c 0,18,19
EndSplineSet
EndChar

StartChar: oslash
Encoding: 248 248 171
Width: 1251
GlyphClass: 2
Flags: W
LayerCount: 2
Fore
SplineSet
278 74 m 1,0,-1
 95 -78 l 1,1,-1
 25 5 l 1,2,-1
 216 165 l 1,3,4
 172 256 172 256 172 365 c 0,5,6
 172 496 172 496 217 636 c 128,-1,7
 262 776 262 776 336 873 c 0,8,9
 429 996 429 996 566 1061 c 0,10,11
 698 1124 698 1124 854 1124 c 0,12,13
 975 1124 975 1124 1082 1081 c 0,14,15
 1153 1053 1153 1053 1208 995 c 1,16,-1
 1382 1140 l 1,17,-1
 1452 1057 l 1,18,-1
 1266 902 l 1,19,20
 1303 811 1303 811 1303 706 c 0,21,22
 1303 579 1303 579 1257.5 439.5 c 128,-1,23
 1212 300 1212 300 1140 205 c 0,24,25
 1046 81 1046 81 910 16 c 0,26,27
 778 -47 778 -47 623 -47 c 0,28,29
 502 -47 502 -47 396 -4 c 0,30,31
 331 22 331 22 278 74 c 1,0,-1
504 263 m 1,32,33
 561 182 561 182 672 182 c 0,34,35
 732 182 732 182 789 211 c 0,36,37
 928 284 928 284 987 488 c 0,38,39
 1012 573 1012 573 1012 658 c 0,40,41
 1012 667 1012 667 1011 688 c 1,42,-1
 504 263 l 1,32,33
468 375 m 1,43,-1
 980 803 l 1,44,45
 922 895 922 895 808 895 c 0,46,47
 642 895 642 895 542 717 c 0,48,49
 465 578 465 578 465 427 c 0,50,51
 465 403 465 403 468 375 c 1,43,-1
EndSplineSet
EndChar

StartChar: ugrave
Encoding: 249 249 172
Width: 1251
GlyphClass: 2
Flags: W
LayerCount: 2
Fore
SplineSet
665 1550 m 1,0,-1
 909 1550 l 1,1,-1
 1001 1243 l 1,2,-1
 871 1243 l 1,3,-1
 665 1550 l 1,0,-1
1108 0 m 1,4,-1
 822 0 l 1,5,-1
 851 140 l 1,6,7
 779 55 779 55 714 16 c 0,8,9
 606 -47 606 -47 479 -47 c 0,10,11
 336 -47 336 -47 252 37 c 0,12,13
 180 109 180 109 180 222 c 0,14,15
 180 278 180 278 192 336 c 2,16,-1
 356 1106 l 1,17,-1
 643 1106 l 1,18,-1
 501 437 l 2,19,20
 487 373 487 373 487 336 c 0,21,22
 487 182 487 182 642 182 c 0,23,24
 754 182 754 182 830 270 c 0,25,26
 895 345 895 345 918 455 c 2,27,-1
 1057 1106 l 1,28,-1
 1343 1106 l 1,29,-1
 1108 0 l 1,4,-1
EndSplineSet
EndChar

StartChar: uacute
Encoding: 250 250 173
Width: 1251
GlyphClass: 2
Flags: W
LayerCount: 2
Fore
SplineSet
1201 1550 m 1,0,-1
 877 1242 l 1,1,-1
 734 1242 l 1,2,-1
 942 1550 l 1,3,-1
 1201 1550 l 1,0,-1
1108 0 m 1,4,-1
 822 0 l 1,5,-1
 851 140 l 1,6,7
 779 55 779 55 714 16 c 0,8,9
 606 -47 606 -47 479 -47 c 0,10,11
 336 -47 336 -47 252 37 c 0,12,13
 180 109 180 109 180 222 c 0,14,15
 180 278 180 278 192 336 c 2,16,-1
 356 1106 l 1,17,-1
 643 1106 l 1,18,-1
 501 437 l 2,19,20
 487 373 487 373 487 336 c 0,21,22
 487 182 487 182 642 182 c 0,23,24
 754 182 754 182 830 270 c 0,25,26
 895 345 895 345 918 455 c 2,27,-1
 1057 1106 l 1,28,-1
 1343 1106 l 1,29,-1
 1108 0 l 1,4,-1
EndSplineSet
EndChar

StartChar: ucircumflex
Encoding: 251 251 174
Width: 1251
GlyphClass: 2
Flags: W
LayerCount: 2
Fore
SplineSet
830 1550 m 1,0,-1
 1050 1550 l 1,1,-1
 1197 1249 l 1,2,-1
 1037 1249 l 1,3,-1
 913 1448 l 1,4,-1
 702 1249 l 1,5,-1
 545 1249 l 1,6,-1
 830 1550 l 1,0,-1
1108 0 m 1,7,-1
 822 0 l 1,8,-1
 851 140 l 1,9,10
 779 55 779 55 714 16 c 0,11,12
 606 -47 606 -47 479 -47 c 0,13,14
 336 -47 336 -47 252 37 c 0,15,16
 180 109 180 109 180 222 c 0,17,18
 180 278 180 278 192 336 c 2,19,-1
 356 1106 l 1,20,-1
 643 1106 l 1,21,-1
 501 437 l 2,22,23
 487 373 487 373 487 336 c 0,24,25
 487 182 487 182 642 182 c 0,26,27
 754 182 754 182 830 270 c 0,28,29
 895 345 895 345 918 455 c 2,30,-1
 1057 1106 l 1,31,-1
 1343 1106 l 1,32,-1
 1108 0 l 1,7,-1
EndSplineSet
EndChar

StartChar: udieresis
Encoding: 252 252 175
Width: 1251
GlyphClass: 2
Flags: W
LayerCount: 2
Fore
SplineSet
861 1517 m 1,0,-1
 808 1271 l 1,1,-1
 582 1271 l 1,2,-1
 635 1517 l 1,3,-1
 861 1517 l 1,0,-1
1242 1517 m 1,4,-1
 1189 1271 l 1,5,-1
 963 1271 l 1,6,-1
 1016 1517 l 1,7,-1
 1242 1517 l 1,4,-1
1108 0 m 1,8,-1
 822 0 l 1,9,-1
 851 140 l 1,10,11
 779 55 779 55 714 16 c 0,12,13
 606 -47 606 -47 479 -47 c 0,14,15
 336 -47 336 -47 252 37 c 0,16,17
 180 109 180 109 180 222 c 0,18,19
 180 278 180 278 192 336 c 2,20,-1
 356 1106 l 1,21,-1
 643 1106 l 1,22,-1
 501 437 l 2,23,24
 487 373 487 373 487 336 c 0,25,26
 487 182 487 182 642 182 c 0,27,28
 754 182 754 182 830 270 c 0,29,30
 895 345 895 345 918 455 c 2,31,-1
 1057 1106 l 1,32,-1
 1343 1106 l 1,33,-1
 1108 0 l 1,8,-1
EndSplineSet
EndChar

StartChar: yacute
Encoding: 253 253 176
Width: 1139
GlyphClass: 2
Flags: W
LayerCount: 2
Fore
SplineSet
1043 1106 m 1,0,-1
 1338 1106 l 1,1,-1
 604 -201 l 2,2,3
 549 -300 549 -300 506 -343.5 c 128,-1,4
 463 -387 463 -387 396 -413 c 0,5,6
 304 -448 304 -448 168 -448 c 0,7,8
 120 -448 120 -448 90 -442 c 0,9,10
 87 -442 87 -442 76 -439 c 1,11,-1
 124 -216 l 1,12,13
 152 -221 152 -221 179 -221 c 0,14,15
 269 -221 269 -221 322 -188 c 0,16,17
 411 -134 411 -134 411 -31 c 0,18,19
 411 -15 411 -15 409 0 c 2,20,-1
 254 1106 l 1,21,-1
 569 1106 l 1,22,-1
 643 301 l 1,23,-1
 1043 1106 l 1,0,-1
1160 1550 m 1,24,-1
 836 1242 l 1,25,-1
 693 1242 l 1,26,-1
 901 1550 l 1,27,-1
 1160 1550 l 1,24,-1
EndSplineSet
EndChar

StartChar: ydieresis
Encoding: 255 255 177
Width: 1139
GlyphClass: 2
Flags: W
LayerCount: 2
Fore
SplineSet
1043 1106 m 1,0,-1
 1338 1106 l 1,1,-1
 604 -201 l 2,2,3
 549 -300 549 -300 506 -343.5 c 128,-1,4
 463 -387 463 -387 396 -413 c 0,5,6
 304 -448 304 -448 168 -448 c 0,7,8
 120 -448 120 -448 90 -442 c 0,9,10
 87 -442 87 -442 76 -439 c 1,11,-1
 124 -216 l 1,12,13
 152 -221 152 -221 179 -221 c 0,14,15
 269 -221 269 -221 322 -188 c 0,16,17
 411 -134 411 -134 411 -31 c 0,18,19
 411 -15 411 -15 409 0 c 2,20,-1
 254 1106 l 1,21,-1
 569 1106 l 1,22,-1
 643 301 l 1,23,-1
 1043 1106 l 1,0,-1
813 1517 m 1,24,-1
 760 1271 l 1,25,-1
 534 1271 l 1,26,-1
 587 1517 l 1,27,-1
 813 1517 l 1,24,-1
1194 1517 m 1,28,-1
 1141 1271 l 1,29,-1
 915 1271 l 1,30,-1
 968 1517 l 1,31,-1
 1194 1517 l 1,28,-1
EndSplineSet
EndChar

StartChar: dotlessi
Encoding: 305 305 178
Width: 569
GlyphClass: 2
Flags: W
LayerCount: 2
Fore
SplineSet
659 1106 m 1,0,-1
 424 0 l 1,1,-1
 137 0 l 1,2,-1
 372 1106 l 1,3,-1
 659 1106 l 1,0,-1
EndSplineSet
EndChar

StartChar: OE
Encoding: 338 338 179
Width: 2048
GlyphClass: 3
Flags: W
LayerCount: 2
Fore
SplineSet
1417 643 m 1,0,-1
 1335 256 l 1,1,-1
 2042 256 l 1,2,-1
 1988 0 l 1,3,-1
 984 0 l 1,4,-1
 1010 121 l 1,5,6
 924 28 924 28 847 -9.5 c 128,-1,7
 770 -47 770 -47 667 -47 c 0,8,9
 571 -47 571 -47 485 -14 c 0,10,11
 314 53 314 53 238 229 c 0,12,13
 184 353 184 353 184 501 c 0,14,15
 184 712 184 712 270 937 c 0,16,17
 399 1273 399 1273 665 1430 c 0,18,19
 815 1518 815 1518 987 1518 c 0,20,21
 1045 1518 1045 1518 1099 1506 c 0,22,23
 1203 1483 1203 1483 1279 1387 c 1,24,-1
 1302 1493 l 1,25,-1
 2267 1493 l 1,26,-1
 2212 1237 l 1,27,-1
 1543 1237 l 1,28,-1
 1471 899 l 1,29,-1
 2082 899 l 1,30,-1
 2028 643 l 1,31,-1
 1417 643 l 1,0,-1
1208 1107 m 1,32,33
 1152 1256 1152 1256 986 1256 c 0,34,35
 745 1256 745 1256 599 987 c 0,36,37
 489 787 489 787 489 562 c 0,38,39
 489 459 489 459 524 374 c 0,40,41
 554 300 554 300 623.5 257.5 c 128,-1,42
 693 215 693 215 783 215 c 0,43,44
 837 215 837 215 882 230 c 0,45,46
 972 260 972 260 1050 364 c 1,47,-1
 1208 1107 l 1,32,33
EndSplineSet
EndChar

StartChar: oe
Encoding: 339 339 180
Width: 1933
GlyphClass: 3
Flags: W
LayerCount: 2
Fore
SplineSet
779 894 m 0,0,1
 716 894 716 894 660 865 c 0,2,3
 550 807 550 807 489 663 c 0,4,5
 438 543 438 543 438 420 c 256,6,7
 438 297 438 297 502 237 c 0,8,9
 560 182 560 182 641 182 c 0,10,11
 703 182 703 182 760 211 c 0,12,13
 871 268 871 268 933 414 c 0,14,15
 983 533 983 533 983 654 c 0,16,17
 983 732 983 732 956 789 c 0,18,19
 933 836 933 836 884.5 865 c 128,-1,20
 836 894 836 894 779 894 c 0,0,1
1726 653 m 1,21,-1
 1726 711 l 2,22,23
 1726 733 1726 733 1724 751 c 0,24,25
 1717 816 1717 816 1670 855 c 128,-1,26
 1623 894 1623 894 1552 894 c 0,27,28
 1453 894 1453 894 1385 833 c 128,-1,29
 1317 772 1317 772 1284 653 c 1,30,-1
 1726 653 l 1,21,-1
1019 103 m 1,31,32
 980 68 980 68 936 43 c 0,33,34
 781 -47 781 -47 590 -47 c 0,35,36
 471 -47 471 -47 367 -4 c 0,37,38
 262 40 262 40 205 132 c 0,39,40
 145 229 145 229 145 361 c 0,41,42
 145 495 145 495 189.5 634.5 c 128,-1,43
 234 774 234 774 309 872 c 0,44,45
 402 996 402 996 539 1061 c 0,46,47
 670 1124 670 1124 825 1124 c 0,48,49
 947 1124 947 1124 1053 1081 c 0,50,51
 1142 1046 1142 1046 1193 977 c 1,52,53
 1228 1011 1228 1011 1268 1035 c 0,54,55
 1413 1124 1413 1124 1593 1124 c 0,56,57
 1813 1124 1813 1124 1926 983 c 0,58,59
 2019 867 2019 867 2019 718 c 0,60,61
 2019 602 2019 602 1983 463 c 1,62,-1
 1240 463 l 1,63,64
 1226 395 1226 395 1226 357 c 0,65,66
 1226 326 1226 326 1235 300 c 0,67,68
 1252 246 1252 246 1303 214 c 128,-1,69
 1354 182 1354 182 1423 182 c 0,70,71
 1499 182 1499 182 1562 217 c 128,-1,72
 1625 252 1625 252 1656 311 c 1,73,-1
 1939 311 l 1,74,75
 1873 177 1873 177 1754 87 c 0,76,77
 1579 -47 1579 -47 1363 -47 c 0,78,79
 1261 -47 1261 -47 1169 -12 c 0,80,81
 1067 27 1067 27 1019 103 c 1,31,32
EndSplineSet
EndChar

StartChar: Ydieresis
Encoding: 376 376 181
Width: 1366
GlyphClass: 2
Flags: W
LayerCount: 2
Fore
SplineSet
977 553 m 1,0,-1
 859 0 l 1,1,-1
 552 0 l 1,2,-1
 670 553 l 1,3,-1
 373 1493 l 1,4,-1
 716 1493 l 1,5,-1
 884 848 l 1,6,-1
 1306 1493 l 1,7,-1
 1649 1493 l 1,8,-1
 977 553 l 1,0,-1
1014 1884 m 1,9,-1
 962 1638 l 1,10,-1
 736 1638 l 1,11,-1
 788 1884 l 1,12,-1
 1014 1884 l 1,9,-1
1395 1884 m 1,13,-1
 1343 1638 l 1,14,-1
 1117 1638 l 1,15,-1
 1169 1884 l 1,16,-1
 1395 1884 l 1,13,-1
EndSplineSet
EndChar

StartChar: florin
Encoding: 402 402 182
Width: 1139
GlyphClass: 2
Flags: W
LayerCount: 2
Fore
SplineSet
1235 989 m 1,0,-1
 1193 784 l 1,1,-1
 911 784 l 1,2,-1
 625 2 l 2,3,4
 533 -249 533 -249 410 -352 c 0,5,6
 294 -450 294 -450 133 -450 c 0,7,8
 41 -450 41 -450 -43 -405 c 1,9,-1
 56 -169 l 1,10,11
 113 -213 113 -213 164 -213 c 0,12,13
 192 -213 192 -213 215 -200 c 0,14,15
 253 -179 253 -179 281 -133.5 c 128,-1,16
 309 -88 309 -88 348 15 c 2,17,-1
 633 784 l 1,18,-1
 382 784 l 1,19,-1
 424 989 l 1,20,-1
 707 989 l 1,21,-1
 754 1109 l 2,22,23
 837 1324 837 1324 950.5 1424 c 128,-1,24
 1064 1524 1064 1524 1224 1524 c 0,25,26
 1270 1524 1270 1524 1309 1517 c 0,27,28
 1349 1510 1349 1510 1413 1488 c 1,29,-1
 1322 1256 l 1,30,31
 1259 1288 1259 1288 1217 1288 c 0,32,33
 1097 1288 1097 1288 1015 1073 c 2,34,-1
 983 989 l 1,35,-1
 1235 989 l 1,0,-1
EndSplineSet
EndChar

StartChar: circumflex
Encoding: 710 710 183
Width: 682
GlyphClass: 2
Flags: W
LayerCount: 2
Fore
SplineSet
561 1550 m 1,0,-1
 781 1550 l 1,1,-1
 927 1249 l 1,2,-1
 768 1249 l 1,3,-1
 643 1448 l 1,4,-1
 432 1249 l 1,5,-1
 276 1249 l 1,6,-1
 561 1550 l 1,0,-1
EndSplineSet
EndChar

StartChar: caron
Encoding: 711 711 184
Width: 682
GlyphClass: 2
Flags: W
LayerCount: 2
Fore
SplineSet
708 1249 m 1,0,-1
 488 1249 l 1,1,-1
 342 1550 l 1,2,-1
 501 1550 l 1,3,-1
 626 1351 l 1,4,-1
 837 1550 l 1,5,-1
 993 1550 l 1,6,-1
 708 1249 l 1,0,-1
EndSplineSet
EndChar

StartChar: breve
Encoding: 728 728 185
Width: 682
GlyphClass: 2
Flags: W
LayerCount: 2
Fore
SplineSet
932 1545 m 1,0,1
 915 1443 915 1443 847 1367 c 0,2,3
 745 1252 745 1252 602 1252 c 0,4,5
 543 1252 543 1252 497 1273 c 0,6,7
 446 1296 446 1296 415.5 1348 c 128,-1,8
 385 1400 385 1400 385 1464 c 0,9,10
 385 1493 385 1493 391 1523 c 0,11,12
 393 1530 393 1530 396 1545 c 1,13,-1
 484 1545 l 1,14,15
 483 1535 483 1535 483 1528 c 0,16,17
 483 1473 483 1473 523 1442.5 c 128,-1,18
 563 1412 563 1412 635 1412 c 0,19,20
 795 1412 795 1412 845 1545 c 1,21,-1
 932 1545 l 1,0,1
EndSplineSet
EndChar

StartChar: dotaccent
Encoding: 729 729 186
Width: 682
GlyphClass: 2
Flags: W
LayerCount: 2
Fore
SplineSet
773 1517 m 1,0,-1
 720 1271 l 1,1,-1
 494 1271 l 1,2,-1
 547 1517 l 1,3,-1
 773 1517 l 1,0,-1
EndSplineSet
EndChar

StartChar: ring
Encoding: 730 730 187
Width: 682
GlyphClass: 2
Flags: W
LayerCount: 2
Fore
SplineSet
667 1584 m 0,0,1
 703 1584 703 1584 733 1570 c 0,2,3
 815 1532 815 1532 815 1438 c 0,4,5
 815 1357 815 1357 753 1291 c 0,6,7
 682 1215 682 1215 585 1215 c 0,8,9
 521 1215 521 1215 479.5 1256 c 128,-1,10
 438 1297 438 1297 438 1361 c 0,11,12
 438 1381 438 1381 442 1400 c 0,13,14
 458 1476 458 1476 523.5 1530 c 128,-1,15
 589 1584 589 1584 667 1584 c 0,0,1
647 1482 m 0,16,17
 628 1482 628 1482 612 1476 c 0,18,19
 579 1464 579 1464 558.5 1438 c 128,-1,20
 538 1412 538 1412 538 1383 c 256,21,22
 538 1354 538 1354 558 1335.5 c 128,-1,23
 578 1317 578 1317 608 1317 c 0,24,25
 627 1317 627 1317 644 1323 c 0,26,27
 674 1335 674 1335 694.5 1362 c 128,-1,28
 715 1389 715 1389 715 1418 c 0,29,30
 715 1446 715 1446 696 1464 c 128,-1,31
 677 1482 677 1482 647 1482 c 0,16,17
EndSplineSet
EndChar

StartChar: ogonek
Encoding: 731 731 188
Width: 682
GlyphClass: 2
Flags: W
LayerCount: 2
Fore
SplineSet
355 0 m 1,0,-1
 508 0 l 1,1,2
 407 -58 407 -58 379 -78 c 128,-1,3
 351 -98 351 -98 321 -135 c 0,4,5
 252 -223 252 -223 252 -293 c 0,6,7
 252 -312 252 -312 258 -327 c 0,8,9
 275 -375 275 -375 355 -375 c 0,10,11
 437 -375 437 -375 500 -353 c 1,12,-1
 478 -457 l 1,13,14
 391 -477 391 -477 322 -477 c 0,15,16
 260 -477 260 -477 200 -464 c 0,17,18
 47 -431 47 -431 47 -321 c 0,19,20
 47 -251 47 -251 86 -190 c 0,21,22
 126 -129 126 -129 184.5 -87.5 c 128,-1,23
 243 -46 243 -46 355 0 c 1,0,-1
EndSplineSet
EndChar

StartChar: tilde
Encoding: 732 732 189
Width: 682
GlyphClass: 2
Flags: W
LayerCount: 2
Fore
SplineSet
913 1523 m 1,0,-1
 1024 1523 l 1,1,2
 994 1412 994 1412 941 1358 c 0,3,4
 859 1273 859 1273 751 1273 c 0,5,6
 716 1273 716 1273 679 1284 c 0,7,8
 661 1290 661 1290 648 1297 c 2,9,-1
 545 1347 l 2,10,11
 487 1376 487 1376 454 1376 c 0,12,13
 439 1376 439 1376 422 1367 c 0,14,15
 387 1349 387 1349 351 1278 c 1,16,-1
 240 1278 l 1,17,18
 276 1394 276 1394 340 1456 c 128,-1,19
 404 1518 404 1518 488 1518 c 0,20,21
 550 1518 550 1518 633 1483 c 2,22,-1
 735 1439 l 2,23,24
 777 1419 777 1419 802 1419 c 0,25,26
 871 1419 871 1419 913 1523 c 1,0,-1
EndSplineSet
EndChar

StartChar: hungarumlaut
Encoding: 733 733 190
Width: 682
GlyphClass: 2
Flags: W
LayerCount: 2
Fore
SplineSet
635 1550 m 1,0,-1
 312 1249 l 1,1,-1
 168 1249 l 1,2,-1
 377 1550 l 1,3,-1
 635 1550 l 1,0,-1
1020 1550 m 1,4,-1
 697 1249 l 1,5,-1
 553 1249 l 1,6,-1
 762 1550 l 1,7,-1
 1020 1550 l 1,4,-1
EndSplineSet
EndChar

StartChar: uni0394
Encoding: 916 916 191
Width: 1374
GlyphClass: 2
Flags: W
LayerCount: 2
Fore
SplineSet
-36 0 m 1,0,-1
 814 1493 l 1,1,-1
 1196 1493 l 1,2,-1
 1411 0 l 1,3,-1
 -36 0 l 1,0,-1
426 256 m 1,4,-1
 1079 256 l 1,5,-1
 954 1199 l 1,6,-1
 426 256 l 1,4,-1
EndSplineSet
EndChar

StartChar: Pi
Encoding: 928 928 192
Width: 1470
GlyphClass: 2
Flags: W
LayerCount: 2
Fore
SplineSet
132 0 m 1,0,-1
 449 1493 l 1,1,-1
 1656 1493 l 1,2,-1
 1338 0 l 1,3,-1
 1029 0 l 1,4,-1
 1292 1237 l 1,5,-1
 702 1237 l 1,6,-1
 439 0 l 1,7,-1
 132 0 l 1,0,-1
EndSplineSet
EndChar

StartChar: uni03A9
Encoding: 937 937 193
Width: 1599
GlyphClass: 2
Flags: W
LayerCount: 2
Fore
SplineSet
749 256 m 1,0,-1
 695 0 l 1,1,-1
 55 0 l 1,2,-1
 109 256 l 1,3,-1
 465 256 l 1,4,5
 236 433 236 433 236 702 c 0,6,7
 236 885 236 885 326 1068 c 0,8,9
 442 1303 442 1303 681 1426 c 0,10,11
 861 1519 861 1519 1068 1519 c 0,12,13
 1360 1519 1360 1519 1538 1341 c 0,14,15
 1606 1274 1606 1274 1649 1186 c 0,16,17
 1709 1063 1709 1063 1709 932 c 0,18,19
 1709 856 1709 856 1689 767 c 0,20,21
 1635 535 1635 535 1470 391 c 0,22,23
 1394 324 1394 324 1264 256 c 1,24,-1
 1599 256 l 1,25,-1
 1544 0 l 1,26,-1
 905 0 l 1,27,-1
 959 256 l 1,28,29
 1075 321 1075 321 1128 361.5 c 128,-1,30
 1181 402 1181 402 1228 461 c 0,31,32
 1302 556 1302 556 1348.5 691 c 128,-1,33
 1395 826 1395 826 1395 949 c 0,34,35
 1395 1035 1395 1035 1358 1109 c 0,36,37
 1319 1188 1319 1188 1241 1229 c 0,38,39
 1161 1272 1161 1272 1062 1272 c 0,40,41
 920 1272 920 1272 802 1190 c 0,42,43
 661 1091 661 1091 596 915 c 0,44,45
 544 773 544 773 544 622 c 0,46,47
 544 534 544 534 569 461 c 0,48,49
 588 405 588 405 626 362 c 128,-1,50
 664 319 664 319 749 256 c 1,0,-1
EndSplineSet
EndChar

StartChar: pi
Encoding: 960 960 194
Width: 1458
GlyphClass: 2
Flags: W
LayerCount: 2
Fore
SplineSet
1599 1106 m 1,0,-1
 1550 877 l 1,1,-1
 1407 877 l 1,2,-1
 1221 0 l 1,3,-1
 934 0 l 1,4,-1
 1121 877 l 1,5,-1
 711 877 l 1,6,-1
 525 0 l 1,7,-1
 238 0 l 1,8,-1
 424 877 l 1,9,-1
 268 877 l 1,10,-1
 316 1106 l 1,11,-1
 1599 1106 l 1,0,-1
EndSplineSet
EndChar

StartChar: endash
Encoding: 8211 8211 195
Width: 1139
GlyphClass: 2
Flags: W
LayerCount: 2
Fore
SplineSet
1278 637 m 1,0,-1
 1233 424 l 1,1,-1
 72 424 l 1,2,-1
 117 637 l 1,3,-1
 1278 637 l 1,0,-1
EndSplineSet
EndChar

StartChar: emdash
Encoding: 8212 8212 196
Width: 2048
GlyphClass: 2
Flags: W
LayerCount: 2
Fore
SplineSet
2192 637 m 1,0,-1
 2146 424 l 1,1,-1
 76 424 l 1,2,-1
 121 637 l 1,3,-1
 2192 637 l 1,0,-1
EndSplineSet
EndChar

StartChar: quoteleft
Encoding: 8216 8216 197
Width: 569
GlyphClass: 2
Flags: W
LayerCount: 2
Fore
SplineSet
618 961 m 1,0,-1
 342 961 l 1,1,-1
 390 1184 l 2,2,3
 408 1272 408 1272 441 1327 c 128,-1,4
 474 1382 474 1382 533 1423 c 0,5,6
 622 1487 622 1487 731 1493 c 1,7,-1
 711 1399 l 1,8,9
 534 1369 534 1369 509 1217 c 1,10,-1
 673 1217 l 1,11,-1
 618 961 l 1,0,-1
EndSplineSet
EndChar

StartChar: quoteright
Encoding: 8217 8217 198
Width: 569
GlyphClass: 2
Flags: W
LayerCount: 2
Fore
SplineSet
451 1493 m 1,0,-1
 729 1493 l 1,1,-1
 682 1270 l 2,2,3
 661 1172 661 1172 632 1122 c 128,-1,4
 603 1072 603 1072 544 1030 c 0,5,6
 453 967 453 967 338 961 c 1,7,-1
 358 1055 l 1,8,9
 535 1085 535 1085 560 1237 c 1,10,-1
 396 1237 l 1,11,-1
 451 1493 l 1,0,-1
EndSplineSet
EndChar

StartChar: quotesinglbase
Encoding: 8218 8218 199
Width: 569
GlyphClass: 2
Flags: W
LayerCount: 2
Fore
SplineSet
189 256 m 1,0,-1
 467 256 l 1,1,-1
 420 33 l 2,2,3
 399 -65 399 -65 370 -115 c 128,-1,4
 341 -165 341 -165 282 -207 c 0,5,6
 191 -270 191 -270 76 -276 c 1,7,-1
 96 -182 l 1,8,9
 273 -152 273 -152 298 0 c 1,10,-1
 134 0 l 1,11,-1
 189 256 l 1,0,-1
EndSplineSet
EndChar

StartChar: quotedblleft
Encoding: 8220 8220 200
Width: 1024
GlyphClass: 2
Flags: W
LayerCount: 2
Fore
SplineSet
626 961 m 1,0,-1
 350 961 l 1,1,-1
 398 1184 l 2,2,3
 416 1272 416 1272 449 1327 c 128,-1,4
 482 1382 482 1382 541 1423 c 0,5,6
 630 1487 630 1487 739 1493 c 1,7,-1
 719 1399 l 1,8,9
 542 1369 542 1369 517 1217 c 1,10,-1
 681 1217 l 1,11,-1
 626 961 l 1,0,-1
1091 961 m 1,12,-1
 815 961 l 1,13,-1
 862 1184 l 2,14,15
 881 1272 881 1272 914 1327 c 128,-1,16
 947 1382 947 1382 1005 1423 c 0,17,18
 1095 1487 1095 1487 1204 1493 c 1,19,-1
 1184 1399 l 1,20,21
 1007 1369 1007 1369 982 1217 c 1,22,-1
 1146 1217 l 1,23,-1
 1091 961 l 1,12,-1
EndSplineSet
EndChar

StartChar: quotedblright
Encoding: 8221 8221 201
Width: 1024
GlyphClass: 2
Flags: W
LayerCount: 2
Fore
SplineSet
467 1493 m 1,0,-1
 743 1493 l 1,1,-1
 696 1270 l 2,2,3
 677 1182 677 1182 644 1127 c 128,-1,4
 611 1072 611 1072 553 1030 c 0,5,6
 463 967 463 967 354 961 c 1,7,-1
 374 1055 l 1,8,9
 551 1085 551 1085 576 1237 c 1,10,-1
 412 1237 l 1,11,-1
 467 1493 l 1,0,-1
942 1493 m 1,12,-1
 1218 1493 l 1,13,-1
 1171 1270 l 2,14,15
 1152 1182 1152 1182 1119 1127 c 128,-1,16
 1086 1072 1086 1072 1028 1030 c 0,17,18
 938 967 938 967 829 961 c 1,19,-1
 849 1055 l 1,20,21
 1026 1085 1026 1085 1051 1237 c 1,22,-1
 887 1237 l 1,23,-1
 942 1493 l 1,12,-1
EndSplineSet
EndChar

StartChar: quotedblbase
Encoding: 8222 8222 202
Width: 1024
GlyphClass: 2
Flags: W
LayerCount: 2
Fore
SplineSet
189 256 m 1,0,-1
 465 256 l 1,1,-1
 418 33 l 2,2,3
 399 -55 399 -55 366 -110 c 128,-1,4
 333 -165 333 -165 275 -207 c 0,5,6
 185 -270 185 -270 76 -276 c 1,7,-1
 96 -182 l 1,8,9
 273 -152 273 -152 298 0 c 1,10,-1
 134 0 l 1,11,-1
 189 256 l 1,0,-1
670 256 m 1,12,-1
 946 256 l 1,13,-1
 899 33 l 2,14,15
 880 -55 880 -55 847 -110 c 128,-1,16
 814 -165 814 -165 756 -207 c 0,17,18
 666 -270 666 -270 557 -276 c 1,19,-1
 577 -182 l 1,20,21
 754 -152 754 -152 780 0 c 1,22,-1
 615 0 l 1,23,-1
 670 256 l 1,12,-1
EndSplineSet
EndChar

StartChar: dagger
Encoding: 8224 8224 203
Width: 1139
GlyphClass: 2
Flags: W
LayerCount: 2
Fore
SplineSet
1282 993 m 1,0,-1
 1231 755 l 1,1,-1
 864 755 l 1,2,-1
 619 -397 l 1,3,-1
 345 -397 l 1,4,-1
 590 755 l 1,5,-1
 223 755 l 1,6,-1
 274 993 l 1,7,-1
 641 993 l 1,8,-1
 738 1452 l 1,9,-1
 1012 1452 l 1,10,-1
 915 993 l 1,11,-1
 1282 993 l 1,0,-1
EndSplineSet
EndChar

StartChar: daggerdbl
Encoding: 8225 8225 204
Width: 1139
GlyphClass: 2
Flags: W
LayerCount: 2
Fore
SplineSet
1276 993 m 1,0,-1
 1226 755 l 1,1,-1
 860 755 l 1,2,-1
 763 299 l 1,3,-1
 1129 299 l 1,4,-1
 1078 61 l 1,5,-1
 712 61 l 1,6,-1
 615 -397 l 1,7,-1
 340 -397 l 1,8,-1
 438 61 l 1,9,-1
 72 61 l 1,10,-1
 123 299 l 1,11,-1
 488 299 l 1,12,-1
 586 755 l 1,13,-1
 220 755 l 1,14,-1
 270 993 l 1,15,-1
 636 993 l 1,16,-1
 734 1452 l 1,17,-1
 1008 1452 l 1,18,-1
 910 993 l 1,19,-1
 1276 993 l 1,0,-1
EndSplineSet
EndChar

StartChar: bullet
Encoding: 8226 8226 205
Width: 717
GlyphClass: 2
Flags: W
LayerCount: 2
Fore
SplineSet
528 870 m 0,0,1
 579 870 579 870 625 850 c 0,2,3
 751 794 751 794 751 658 c 0,4,5
 751 548 751 548 667 459 c 0,6,7
 571 358 571 358 445 358 c 0,8,9
 350 358 350 358 288.5 418.5 c 128,-1,10
 227 479 227 479 227 571 c 0,11,12
 227 597 227 597 232 623 c 0,13,14
 254 728 254 728 339 799 c 128,-1,15
 424 870 424 870 528 870 c 0,0,1
EndSplineSet
EndChar

StartChar: ellipsis
Encoding: 8230 8230 206
Width: 2048
GlyphClass: 2
Flags: W
LayerCount: 2
Fore
SplineSet
559 299 m 1,0,-1
 495 0 l 1,1,-1
 188 0 l 1,2,-1
 252 299 l 1,3,-1
 559 299 l 1,0,-1
1241 299 m 1,4,-1
 1177 0 l 1,5,-1
 870 0 l 1,6,-1
 934 299 l 1,7,-1
 1241 299 l 1,4,-1
1923 299 m 1,8,-1
 1859 0 l 1,9,-1
 1552 0 l 1,10,-1
 1615 299 l 1,11,-1
 1923 299 l 1,8,-1
EndSplineSet
EndChar

StartChar: perthousand
Encoding: 8240 8240 207
Width: 2048
GlyphClass: 2
Flags: W
LayerCount: 2
Fore
SplineSet
1340 1511 m 1,0,-1
 1476 1511 l 1,1,-1
 283 -43 l 1,2,-1
 147 -43 l 1,3,-1
 1340 1511 l 1,0,-1
646 1513 m 0,4,5
 709 1513 709 1513 761 1490 c 0,6,7
 901 1428 901 1428 901 1274 c 0,8,9
 901 1141 901 1141 800 1032 c 0,10,11
 684 907 684 907 526 907 c 0,12,13
 417 907 417 907 345.5 975.5 c 128,-1,14
 274 1044 274 1044 274 1147 c 0,15,16
 274 1280 274 1280 375 1388 c 0,17,18
 491 1513 491 1513 646 1513 c 0,4,5
613 1353 m 0,19,20
 583 1353 583 1353 555 1342 c 0,21,22
 504 1322 504 1322 471 1276 c 128,-1,23
 438 1230 438 1230 438 1178 c 0,24,25
 438 1165 438 1165 440 1154 c 0,26,27
 448 1116 448 1116 482.5 1091.5 c 128,-1,28
 517 1067 517 1067 562 1067 c 0,29,30
 593 1067 593 1067 621 1078 c 0,31,32
 671 1097 671 1097 704 1142.5 c 128,-1,33
 737 1188 737 1188 737 1238 c 256,34,35
 737 1288 737 1288 701.5 1320.5 c 128,-1,36
 666 1353 666 1353 613 1353 c 0,19,20
1081 565 m 0,37,38
 1144 565 1144 565 1195 542 c 0,39,40
 1335 480 1335 480 1335 326 c 0,41,42
 1335 193 1335 193 1234 84 c 0,43,44
 1119 -41 1119 -41 961 -41 c 0,45,46
 853 -41 853 -41 781.5 27.5 c 128,-1,47
 710 96 710 96 710 199 c 0,48,49
 710 231 710 231 717 262 c 0,50,51
 743 390 743 390 849 476 c 0,52,53
 957 565 957 565 1081 565 c 0,37,38
1048 405 m 0,54,55
 1018 405 1018 405 990 394 c 0,56,57
 939 374 939 374 906.5 328 c 128,-1,58
 874 282 874 282 874 230 c 0,59,60
 874 217 874 217 876 206 c 0,61,62
 885 168 885 168 918.5 143.5 c 128,-1,63
 952 119 952 119 997 119 c 0,64,65
 1028 119 1028 119 1056 130 c 0,66,67
 1106 149 1106 149 1138.5 194.5 c 128,-1,68
 1171 240 1171 240 1171 289 c 0,69,70
 1171 340 1171 340 1136 372.5 c 128,-1,71
 1101 405 1101 405 1048 405 c 0,54,55
1837 565 m 0,72,73
 1900 565 1900 565 1951 542 c 0,74,75
 2091 480 2091 480 2091 326 c 0,76,77
 2091 193 2091 193 1990 84 c 0,78,79
 1875 -41 1875 -41 1717 -41 c 0,80,81
 1609 -41 1609 -41 1537.5 27.5 c 128,-1,82
 1466 96 1466 96 1466 199 c 0,83,84
 1466 231 1466 231 1473 262 c 0,85,86
 1499 390 1499 390 1605 476 c 0,87,88
 1713 565 1713 565 1837 565 c 0,72,73
1804 405 m 0,89,90
 1774 405 1774 405 1746 394 c 0,91,92
 1695 374 1695 374 1662.5 328 c 128,-1,93
 1630 282 1630 282 1630 230 c 0,94,95
 1630 217 1630 217 1632 206 c 0,96,97
 1641 168 1641 168 1674.5 143.5 c 128,-1,98
 1708 119 1708 119 1753 119 c 0,99,100
 1784 119 1784 119 1812 130 c 0,101,102
 1862 149 1862 149 1894.5 194.5 c 128,-1,103
 1927 240 1927 240 1927 289 c 0,104,105
 1927 340 1927 340 1892 372.5 c 128,-1,106
 1857 405 1857 405 1804 405 c 0,89,90
EndSplineSet
EndChar

StartChar: guilsinglleft
Encoding: 8249 8249 208
Width: 682
GlyphClass: 2
Flags: W
LayerCount: 2
Fore
SplineSet
262 447 m 1,0,-1
 312 680 l 1,1,-1
 719 985 l 1,2,-1
 668 745 l 1,3,-1
 422 563 l 1,4,-1
 590 381 l 1,5,-1
 541 147 l 1,6,-1
 262 447 l 1,0,-1
EndSplineSet
EndChar

StartChar: guilsinglright
Encoding: 8250 8250 209
Width: 682
GlyphClass: 2
Flags: W
LayerCount: 2
Fore
SplineSet
654 685 m 1,0,-1
 604 452 l 1,1,-1
 197 147 l 1,2,-1
 248 387 l 1,3,-1
 494 569 l 1,4,-1
 325 751 l 1,5,-1
 375 985 l 1,6,-1
 654 685 l 1,0,-1
EndSplineSet
EndChar

StartChar: fraction
Encoding: 8260 8260 210
Width: 569
GlyphClass: 2
Flags: W
LayerCount: 2
Fore
SplineSet
941 1464 m 1,0,-1
 1115 1464 l 1,1,-1
 -75 -41 l 1,2,-1
 -249 -41 l 1,3,-1
 941 1464 l 1,0,-1
EndSplineSet
EndChar

StartChar: Euro
Encoding: 8364 8364 211
Width: 1139
GlyphClass: 2
Flags: W
LayerCount: 2
Fore
SplineSet
203 650 m 1,0,1
 215 722 215 722 233 792 c 1,2,-1
 102 792 l 1,3,-1
 181 930 l 1,4,-1
 281 930 l 1,5,6
 359 1111 359 1111 484 1249 c 0,7,8
 695 1483 695 1483 981 1483 c 0,9,10
 1113 1483 1113 1483 1201 1436 c 0,11,12
 1247 1412 1247 1412 1327 1343 c 1,13,-1
 1178 1079 l 1,14,15
 1099 1156 1099 1156 1039 1186.5 c 128,-1,16
 979 1217 979 1217 912 1217 c 0,17,18
 713 1217 713 1217 579 930 c 1,19,-1
 1094 930 l 1,20,-1
 1015 792 l 1,21,-1
 523 792 l 1,22,23
 499 715 499 715 490 650 c 1,24,-1
 935 650 l 1,25,-1
 856 512 l 1,26,-1
 485 512 l 1,27,28
 493 401 493 401 535 318 c 0,29,30
 585 221 585 221 697 221 c 0,31,32
 759 221 759 221 822.5 242 c 128,-1,33
 886 263 886 263 1019 327 c 1,34,-1
 954 23 l 1,35,36
 728 -48 728 -48 624 -48 c 0,37,38
 502 -48 502 -48 396 19 c 0,39,40
 192 150 192 150 192 488 c 2,41,-1
 192 512 l 1,42,-1
 43 512 l 1,43,-1
 122 650 l 1,44,-1
 203 650 l 1,0,1
EndSplineSet
EndChar

StartChar: trademark
Encoding: 8482 8482 212
Width: 2048
GlyphClass: 2
Flags: W
LayerCount: 2
Fore
SplineSet
912 1329 m 1,0,-1
 747 560 l 1,1,-1
 553 560 l 1,2,-1
 717 1329 l 1,3,-1
 436 1329 l 1,4,-1
 470 1493 l 1,5,-1
 1218 1493 l 1,6,-1
 1184 1329 l 1,7,-1
 912 1329 l 1,0,-1
1671 560 m 1,8,-1
 1479 560 l 1,9,-1
 1457 1274 l 1,10,-1
 1305 560 l 1,11,-1
 1119 560 l 1,12,-1
 1317 1493 l 1,13,-1
 1598 1493 l 1,14,-1
 1621 776 l 1,15,-1
 1945 1493 l 1,16,-1
 2226 1493 l 1,17,-1
 2028 560 l 1,18,-1
 1841 560 l 1,19,-1
 1993 1274 l 1,20,-1
 1671 560 l 1,8,-1
EndSplineSet
EndChar

StartChar: partialdiff
Encoding: 8706 8706 213
Width: 1012
GlyphClass: 2
Flags: W
LayerCount: 2
Fore
SplineSet
134 1479 m 1,0,1
 262 1536 262 1536 405 1536 c 0,2,3
 493 1536 493 1536 580 1501 c 0,4,5
 760 1427 760 1427 859 1233 c 0,6,7
 946 1063 946 1063 946 829 c 0,8,9
 946 669 946 669 907.5 492 c 128,-1,10
 869 315 869 315 811 211 c 0,11,12
 677 -31 677 -31 443 -31 c 0,13,14
 373 -31 373 -31 309 -7 c 0,15,16
 185 38 185 38 114 149 c 0,17,18
 53 245 53 245 53 367 c 0,19,20
 53 507 53 507 129 634 c 0,21,22
 249 836 249 836 454 836 c 0,23,24
 536 836 536 836 596.5 810 c 128,-1,25
 657 784 657 784 762 703 c 1,26,27
 782 859 782 859 782 931 c 0,28,29
 782 1045 782 1045 752 1153.5 c 128,-1,30
 722 1262 722 1262 670 1334 c 0,31,32
 594 1440 594 1440 446 1440 c 0,33,34
 390 1440 390 1440 357.5 1431 c 128,-1,35
 325 1422 325 1422 233 1380 c 0,36,37
 227 1378 227 1378 217 1373 c 1,38,-1
 134 1479 l 1,0,1
748 623 m 1,39,40
 666 748 666 748 533 748 c 0,41,42
 404 748 404 748 317 615 c 0,43,44
 231 483 231 483 231 316 c 0,45,46
 231 205 231 205 265 132 c 0,47,48
 285 89 285 89 326.5 62 c 128,-1,49
 368 35 368 35 414 35 c 0,50,51
 498 35 498 35 565.5 100 c 128,-1,52
 633 165 633 165 674 285 c 0,53,54
 713 397 713 397 748 623 c 1,39,40
EndSplineSet
EndChar

StartChar: product
Encoding: 8719 8719 214
Width: 2039
GlyphClass: 2
Flags: W
LayerCount: 2
Fore
SplineSet
484 -319 m 1,0,-1
 484 1300 l 1,1,-1
 271 1300 l 1,2,-1
 271 1475 l 1,3,-1
 1833 1475 l 1,4,-1
 1833 1300 l 1,5,-1
 1626 1300 l 1,6,-1
 1626 -319 l 1,7,-1
 1777 -319 l 1,8,-1
 1777 -494 l 1,9,-1
 1285 -494 l 1,10,-1
 1284 -319 l 1,11,-1
 1426 -319 l 1,12,-1
 1426 1300 l 1,13,-1
 684 1300 l 1,14,-1
 684 -319 l 1,15,-1
 838 -319 l 1,16,-1
 839 -494 l 1,17,-1
 327 -494 l 1,18,-1
 327 -319 l 1,19,-1
 484 -319 l 1,0,-1
EndSplineSet
EndChar

StartChar: summation
Encoding: 8721 8721 215
Width: 2039
GlyphClass: 2
Flags: W
LayerCount: 2
Fore
SplineSet
1488 1528 m 1,0,-1
 1488 1050 l 1,1,-1
 1301 1050 l 1,2,-1
 1293 1333 l 1,3,-1
 724 1333 l 1,4,-1
 1105 665 l 1,5,-1
 721 -76 l 1,6,-1
 1307 -76 l 1,7,-1
 1312 207 l 1,8,-1
 1503 207 l 1,9,-1
 1503 -270 l 1,10,-1
 482 -270 l 1,11,-1
 482 -96 l 1,12,-1
 877 662 l 1,13,-1
 482 1357 l 1,14,-1
 482 1528 l 1,15,-1
 1488 1528 l 1,0,-1
EndSplineSet
EndChar

StartChar: uni2219
Encoding: 8729 8729 216
Width: 569
GlyphClass: 2
Flags: W
LayerCount: 2
Fore
SplineSet
279 694 m 1,0,-1
 532 694 l 1,1,-1
 479 442 l 1,2,-1
 225 442 l 1,3,-1
 279 694 l 1,0,-1
EndSplineSet
EndChar

StartChar: radical
Encoding: 8730 8730 217
Width: 1124
GlyphClass: 2
Flags: W
LayerCount: 2
Fore
SplineSet
1380 1870 m 1,0,-1
 1451 1860 l 1,1,-1
 730 -74 l 1,2,-1
 453 945 l 1,3,-1
 239 849 l 1,4,-1
 217 918 l 1,5,-1
 551 1067 l 1,6,-1
 776 257 l 1,7,-1
 1380 1870 l 1,0,-1
EndSplineSet
EndChar

StartChar: infinity
Encoding: 8734 8734 218
Width: 1460
GlyphClass: 2
Flags: W
LayerCount: 2
Fore
SplineSet
859 608 m 1,0,1
 986 703 986 703 1035 735 c 0,2,3
 1176 827 1176 827 1304 827 c 0,4,5
 1373 827 1373 827 1432 790 c 0,6,7
 1530 728 1530 728 1530 601 c 0,8,9
 1530 484 1530 484 1446 385 c 0,10,11
 1393 324 1393 324 1321 289 c 128,-1,12
 1249 254 1249 254 1175 254 c 0,13,14
 1116 254 1116 254 1064 276 c 0,15,16
 1009 300 1009 300 962 339.5 c 128,-1,17
 915 379 915 379 830 473 c 1,18,19
 674 351 674 351 576 302.5 c 128,-1,20
 478 254 478 254 389 254 c 0,21,22
 318 254 318 254 258 291 c 0,23,24
 160 352 160 352 160 480 c 0,25,26
 160 597 160 597 244 696 c 0,27,28
 296 757 296 757 368 792 c 128,-1,29
 440 827 440 827 512 827 c 0,30,31
 634 827 634 827 738 735 c 0,32,33
 783 695 783 695 859 608 c 1,0,1
918 541 m 1,34,35
 964 483 964 483 1023 435 c 0,36,37
 1080 388 1080 388 1115 372 c 128,-1,38
 1150 356 1150 356 1193 356 c 0,39,40
 1242 356 1242 356 1288 379 c 0,41,42
 1336 403 1336 403 1370 447 c 0,43,44
 1422 515 1422 515 1422 581 c 0,45,46
 1422 607 1422 607 1410 636 c 0,47,48
 1372 725 1372 725 1274 725 c 0,49,50
 1144 725 1144 725 918 541 c 1,34,35
772 541 m 1,51,52
 625 725 625 725 498 725 c 0,53,54
 416 725 416 725 348 667 c 0,55,56
 268 597 268 597 268 501 c 0,57,58
 268 474 268 474 279 447 c 0,59,60
 315 356 315 356 418 356 c 0,61,62
 462 356 462 356 506.5 373 c 128,-1,63
 551 390 551 390 623 435 c 0,64,65
 709 488 709 488 772 541 c 1,51,52
EndSplineSet
EndChar

StartChar: integral
Encoding: 8747 8747 219
Width: 561
GlyphClass: 2
Flags: W
LayerCount: 2
Fore
SplineSet
386 1071 m 2,0,-1
 386 603 l 2,1,2
 386 336 386 336 377 201 c 128,-1,3
 368 66 368 66 343 -32 c 0,4,5
 298 -215 298 -215 161 -215 c 0,6,7
 136 -215 136 -215 114 -208 c 0,8,9
 77 -196 77 -196 54 -167 c 128,-1,10
 31 -138 31 -138 31 -103 c 0,11,12
 31 -80 31 -80 41 -59 c 0,13,14
 68 -2 68 -2 130 -2 c 0,15,16
 154 -2 154 -2 175 -13 c 0,17,18
 188 -20 188 -20 200 -32 c 0,19,20
 226 -58 226 -58 240 -58 c 0,21,22
 277 -58 277 -58 277 -1 c 0,23,24
 277 34 277 34 265 156 c 0,25,26
 236 461 236 461 236 585 c 2,27,-1
 236 1053 l 2,28,29
 236 1323 236 1323 245 1456.5 c 128,-1,30
 254 1590 254 1590 278 1688 c 0,31,32
 324 1870 324 1870 461 1870 c 0,33,34
 514 1870 514 1870 551.5 1837.5 c 128,-1,35
 589 1805 589 1805 589 1759 c 0,36,37
 589 1716 589 1716 560.5 1686.5 c 128,-1,38
 532 1657 532 1657 491 1657 c 0,39,40
 466 1657 466 1657 445 1668 c 0,41,42
 432 1675 432 1675 420 1687 c 0,43,44
 395 1713 395 1713 379 1713 c 0,45,46
 343 1713 343 1713 343 1656 c 0,47,48
 343 1620 343 1620 355 1499 c 0,49,50
 386 1198 386 1198 386 1071 c 2,0,-1
EndSplineSet
EndChar

StartChar: approxequal
Encoding: 8776 8776 220
Width: 1124
GlyphClass: 2
Flags: W
LayerCount: 2
Fore
SplineSet
323 492 m 1,0,-1
 207 580 l 1,1,2
 264 670 264 670 313 726 c 0,3,4
 425 854 425 854 569 854 c 0,5,6
 639 854 639 854 773 798 c 0,7,8
 855 764 855 764 882.5 756 c 128,-1,9
 910 748 910 748 943 748 c 0,10,11
 995 748 995 748 1032.5 771.5 c 128,-1,12
 1070 795 1070 795 1121 859 c 1,13,-1
 1242 779 l 1,14,15
 1137 625 1137 625 1056 574 c 0,16,17
 962 514 962 514 866 514 c 0,18,19
 810 514 810 514 677 567 c 0,20,21
 581 605 581 605 556.5 612.5 c 128,-1,22
 532 620 532 620 504 620 c 0,23,24
 453 620 453 620 415 593 c 128,-1,25
 377 566 377 566 323 492 c 1,0,-1
234 75 m 1,26,-1
 118 162 l 1,27,28
 177 255 177 255 224 309 c 0,29,30
 337 437 337 437 480 437 c 0,31,32
 506 437 506 437 530 433 c 0,33,34
 586 422 586 422 684 381 c 0,35,36
 766 347 766 347 793.5 338.5 c 128,-1,37
 821 330 821 330 854 330 c 0,38,39
 906 330 906 330 943 353 c 128,-1,40
 980 376 980 376 1032 441 c 1,41,-1
 1153 361 l 1,42,43
 1047 208 1047 208 967 157 c 0,44,45
 873 97 873 97 777 97 c 0,46,47
 740 97 740 97 695.5 111 c 128,-1,48
 651 125 651 125 498 186 c 0,49,50
 454 203 454 203 416 203 c 0,51,52
 364 203 364 203 326 176 c 128,-1,53
 288 149 288 149 234 75 c 1,26,-1
EndSplineSet
EndChar

StartChar: notequal
Encoding: 8800 8800 221
Width: 1124
GlyphClass: 2
Flags: W
LayerCount: 2
Fore
SplineSet
228 106 m 1,0,-1
 89 106 l 1,1,-1
 141 352 l 1,2,-1
 416 352 l 1,3,-1
 606 598 l 1,4,-1
 193 598 l 1,5,-1
 245 844 l 1,6,-1
 793 844 l 1,7,-1
 1002 1113 l 1,8,-1
 1197 986 l 1,9,-1
 1087 844 l 1,10,-1
 1238 844 l 1,11,-1
 1186 598 l 1,12,-1
 900 598 l 1,13,-1
 710 352 l 1,14,-1
 1133 352 l 1,15,-1
 1082 106 l 1,16,-1
 523 106 l 1,17,-1
 325 -151 l 1,18,-1
 130 -23 l 1,19,-1
 228 106 l 1,0,-1
EndSplineSet
EndChar

StartChar: lessequal
Encoding: 8804 8804 222
Width: 1124
GlyphClass: 2
Flags: W
LayerCount: 2
Fore
SplineSet
1083 213 m 1,0,-1
 1037 0 l 1,1,-1
 36 0 l 1,2,-1
 81 213 l 1,3,-1
 1083 213 l 1,0,-1
1310 1278 m 1,4,-1
 1253 1013 l 1,5,-1
 558 783 l 1,6,-1
 1156 554 l 1,7,-1
 1099 287 l 1,8,-1
 177 660 l 1,9,-1
 229 906 l 1,10,-1
 1310 1278 l 1,4,-1
EndSplineSet
EndChar

StartChar: greaterequal
Encoding: 8805 8805 223
Width: 1124
GlyphClass: 2
Flags: W
LayerCount: 2
Fore
SplineSet
1101 213 m 1,0,-1
 1055 0 l 1,1,-1
 54 0 l 1,2,-1
 99 213 l 1,3,-1
 1101 213 l 1,0,-1
115 287 m 1,4,-1
 172 551 l 1,5,-1
 867 782 l 1,6,-1
 269 1010 l 1,7,-1
 326 1278 l 1,8,-1
 1248 905 l 1,9,-1
 1196 658 l 1,10,-1
 115 287 l 1,4,-1
EndSplineSet
EndChar

StartChar: uni25C6
Encoding: 9670 9670 224
Width: 2039
GlyphClass: 2
Flags: W
LayerCount: 2
Fore
SplineSet
494 678 m 1,0,-1
 1024 1277 l 1,1,-1
 1572 674 l 1,2,-1
 1037 80 l 1,3,-1
 494 678 l 1,0,-1
EndSplineSet
EndChar
